%FSLAX45Y45*%
G04 Gerber Fmt 4.5, Leading zero omitted, Abs format (unit mm)*
G04 Created by KiCad (PCBNEW (5.1.12)-1) date 2022-03-16 07:26:37*
%MOMM*%
%LPD*%
G01*
G04 APERTURE LIST*
%TA.AperFunction,Profile*%
%ADD10C,0.050000*%
%TD*%
%ADD11C,0.200000*%
%ADD12C,0.300000*%
G04 APERTURE END LIST*
D10*
X23241000Y-13081000D02*
X23368000Y-12954000D01*
X10287000Y-13589000D02*
X12446000Y-14605000D01*
X8445500Y-13081000D02*
X10287000Y-13589000D01*
X6540500Y-13081000D02*
X8445500Y-13081000D01*
X6413500Y-12954000D02*
X6540500Y-13081000D01*
X6413500Y-11303000D02*
X6413500Y-12954000D01*
X2159000Y-10541000D02*
X6413500Y-11303000D01*
X2095500Y-10414000D02*
X2159000Y-10541000D01*
X3429000Y-2921000D02*
X2095500Y-10414000D01*
X3556000Y-2857500D02*
X3429000Y-2921000D01*
X10922000Y-2984500D02*
X3556000Y-2857500D01*
X16649700Y-1955800D02*
X10922000Y-2984500D01*
X16998950Y-3930650D02*
X16649700Y-1955800D01*
X18415000Y-3683000D02*
X16998950Y-3930650D01*
X18605500Y-3429000D02*
X18415000Y-3683000D01*
X20510500Y-3111500D02*
X18605500Y-3429000D01*
X26225500Y-2857500D02*
X20510500Y-3111500D01*
X26352500Y-2921000D02*
X26225500Y-2857500D01*
X27686000Y-10414000D02*
X26352500Y-2921000D01*
X27622500Y-10541000D02*
X27686000Y-10414000D01*
X23368000Y-11303000D02*
X27622500Y-10541000D01*
X23368000Y-12954000D02*
X23368000Y-11303000D01*
X21336000Y-13081000D02*
X23241000Y-13081000D01*
X19494500Y-13589000D02*
X21336000Y-13081000D01*
X17399000Y-14605000D02*
X19494500Y-13589000D01*
X12446000Y-14605000D02*
X17399000Y-14605000D01*
D11*
X12304698Y-2869549D02*
X12394698Y-2959549D01*
X12394698Y-2869549D02*
X12304698Y-2959549D01*
X12600141Y-2817454D02*
X12690141Y-2907454D01*
X12690141Y-2817454D02*
X12600141Y-2907454D01*
X2887218Y-9564512D02*
G75*
G03*
X2887218Y-9564512I-87500J0D01*
G01*
X3218018Y-7688454D02*
G75*
G03*
X3218018Y-7688454I-87500J0D01*
G01*
X3548818Y-5812395D02*
G75*
G03*
X3548818Y-5812395I-87500J0D01*
G01*
X3879618Y-3936336D02*
G75*
G03*
X3879618Y-3936336I-87500J0D01*
G01*
X3887783Y-9740939D02*
G75*
G03*
X3887783Y-9740939I-87500J0D01*
G01*
X4218583Y-7864880D02*
G75*
G03*
X4218583Y-7864880I-87500J0D01*
G01*
X4549383Y-5988821D02*
G75*
G03*
X4549383Y-5988821I-87500J0D01*
G01*
X4763277Y-9895312D02*
G75*
G03*
X4763277Y-9895312I-87500J0D01*
G01*
X4880182Y-4112763D02*
G75*
G03*
X4880182Y-4112763I-87500J0D01*
G01*
X5094077Y-8019253D02*
G75*
G03*
X5094077Y-8019253I-87500J0D01*
G01*
X5424877Y-6143195D02*
G75*
G03*
X5424877Y-6143195I-87500J0D01*
G01*
X5755676Y-4267136D02*
G75*
G03*
X5755676Y-4267136I-87500J0D01*
G01*
X5763842Y-10071739D02*
G75*
G03*
X5763842Y-10071739I-87500J0D01*
G01*
X6094641Y-8195680D02*
G75*
G03*
X6094641Y-8195680I-87500J0D01*
G01*
X6425441Y-6319621D02*
G75*
G03*
X6425441Y-6319621I-87500J0D01*
G01*
X6721819Y-9758328D02*
G75*
G03*
X6721819Y-9758328I-87500J0D01*
G01*
X6756241Y-4443562D02*
G75*
G03*
X6756241Y-4443562I-87500J0D01*
G01*
X7052618Y-7882269D02*
G75*
G03*
X7052618Y-7882269I-87500J0D01*
G01*
X7072500Y-12001500D02*
G75*
G03*
X7072500Y-12001500I-87500J0D01*
G01*
X7383418Y-6006211D02*
G75*
G03*
X7383418Y-6006211I-87500J0D01*
G01*
X7714218Y-4130152D02*
G75*
G03*
X7714218Y-4130152I-87500J0D01*
G01*
X7722383Y-9934755D02*
G75*
G03*
X7722383Y-9934755I-87500J0D01*
G01*
X8053183Y-8058696D02*
G75*
G03*
X8053183Y-8058696I-87500J0D01*
G01*
X8088500Y-12001500D02*
G75*
G03*
X8088500Y-12001500I-87500J0D01*
G01*
X8383983Y-6182637D02*
G75*
G03*
X8383983Y-6182637I-87500J0D01*
G01*
X8639119Y-9855236D02*
G75*
G03*
X8639119Y-9855236I-87500J0D01*
G01*
X8714783Y-4306579D02*
G75*
G03*
X8714783Y-4306579I-87500J0D01*
G01*
X8969919Y-7979177D02*
G75*
G03*
X8969919Y-7979177I-87500J0D01*
G01*
X9248810Y-12187520D02*
G75*
G03*
X9248810Y-12187520I-87500J0D01*
G01*
X9300719Y-6103119D02*
G75*
G03*
X9300719Y-6103119I-87500J0D01*
G01*
X9631518Y-4227060D02*
G75*
G03*
X9631518Y-4227060I-87500J0D01*
G01*
X9639684Y-10031663D02*
G75*
G03*
X9639684Y-10031663I-87500J0D01*
G01*
X9970483Y-8155604D02*
G75*
G03*
X9970483Y-8155604I-87500J0D01*
G01*
X10230190Y-12450480D02*
G75*
G03*
X10230190Y-12450480I-87500J0D01*
G01*
X10301283Y-6279545D02*
G75*
G03*
X10301283Y-6279545I-87500J0D01*
G01*
X10473936Y-10419928D02*
G75*
G03*
X10473936Y-10419928I-87500J0D01*
G01*
X10632083Y-4403487D02*
G75*
G03*
X10632083Y-4403487I-87500J0D01*
G01*
X10804736Y-8543869D02*
G75*
G03*
X10804736Y-8543869I-87500J0D01*
G01*
X11135536Y-6667810D02*
G75*
G03*
X11135536Y-6667810I-87500J0D01*
G01*
X11311096Y-12802810D02*
G75*
G03*
X11311096Y-12802810I-87500J0D01*
G01*
X11466336Y-4791752D02*
G75*
G03*
X11466336Y-4791752I-87500J0D01*
G01*
X11474501Y-10596354D02*
G75*
G03*
X11474501Y-10596354I-87500J0D01*
G01*
X11805301Y-8720296D02*
G75*
G03*
X11805301Y-8720296I-87500J0D01*
G01*
X12136100Y-6844237D02*
G75*
G03*
X12136100Y-6844237I-87500J0D01*
G01*
X12231904Y-13232190D02*
G75*
G03*
X12231904Y-13232190I-87500J0D01*
G01*
X12308754Y-10984619D02*
G75*
G03*
X12308754Y-10984619I-87500J0D01*
G01*
X12466900Y-4968178D02*
G75*
G03*
X12466900Y-4968178I-87500J0D01*
G01*
X12639553Y-9108561D02*
G75*
G03*
X12639553Y-9108561I-87500J0D01*
G01*
X12970353Y-7232502D02*
G75*
G03*
X12970353Y-7232502I-87500J0D01*
G01*
X13301153Y-5356443D02*
G75*
G03*
X13301153Y-5356443I-87500J0D01*
G01*
X13309318Y-11161046D02*
G75*
G03*
X13309318Y-11161046I-87500J0D01*
G01*
X13640118Y-9284987D02*
G75*
G03*
X13640118Y-9284987I-87500J0D01*
G01*
X13970918Y-7408928D02*
G75*
G03*
X13970918Y-7408928I-87500J0D01*
G01*
X14301717Y-5532870D02*
G75*
G03*
X14301717Y-5532870I-87500J0D01*
G01*
X14502000Y-13525500D02*
G75*
G03*
X14502000Y-13525500I-87500J0D01*
G01*
X15518000Y-13525500D02*
G75*
G03*
X15518000Y-13525500I-87500J0D01*
G01*
X15654782Y-5532870D02*
G75*
G03*
X15654782Y-5532870I-87500J0D01*
G01*
X15985582Y-7408928D02*
G75*
G03*
X15985582Y-7408928I-87500J0D01*
G01*
X16316382Y-9284987D02*
G75*
G03*
X16316382Y-9284987I-87500J0D01*
G01*
X16647182Y-11161046D02*
G75*
G03*
X16647182Y-11161046I-87500J0D01*
G01*
X16655347Y-5356443D02*
G75*
G03*
X16655347Y-5356443I-87500J0D01*
G01*
X16986147Y-7232502D02*
G75*
G03*
X16986147Y-7232502I-87500J0D01*
G01*
X17316947Y-9108561D02*
G75*
G03*
X17316947Y-9108561I-87500J0D01*
G01*
X17489600Y-4968178D02*
G75*
G03*
X17489600Y-4968178I-87500J0D01*
G01*
X17647746Y-10984619D02*
G75*
G03*
X17647746Y-10984619I-87500J0D01*
G01*
X17788096Y-13232190D02*
G75*
G03*
X17788096Y-13232190I-87500J0D01*
G01*
X17820400Y-6844237D02*
G75*
G03*
X17820400Y-6844237I-87500J0D01*
G01*
X18151199Y-8720296D02*
G75*
G03*
X18151199Y-8720296I-87500J0D01*
G01*
X18481999Y-10596354D02*
G75*
G03*
X18481999Y-10596354I-87500J0D01*
G01*
X18490164Y-4791752D02*
G75*
G03*
X18490164Y-4791752I-87500J0D01*
G01*
X18708904Y-12802810D02*
G75*
G03*
X18708904Y-12802810I-87500J0D01*
G01*
X18820964Y-6667810D02*
G75*
G03*
X18820964Y-6667810I-87500J0D01*
G01*
X19151764Y-8543869D02*
G75*
G03*
X19151764Y-8543869I-87500J0D01*
G01*
X19324417Y-4403487D02*
G75*
G03*
X19324417Y-4403487I-87500J0D01*
G01*
X19482564Y-10419928D02*
G75*
G03*
X19482564Y-10419928I-87500J0D01*
G01*
X19655217Y-6279545D02*
G75*
G03*
X19655217Y-6279545I-87500J0D01*
G01*
X19726310Y-12450480D02*
G75*
G03*
X19726310Y-12450480I-87500J0D01*
G01*
X19986017Y-8155604D02*
G75*
G03*
X19986017Y-8155604I-87500J0D01*
G01*
X20316817Y-10031663D02*
G75*
G03*
X20316817Y-10031663I-87500J0D01*
G01*
X20324982Y-4227060D02*
G75*
G03*
X20324982Y-4227060I-87500J0D01*
G01*
X20655782Y-6103119D02*
G75*
G03*
X20655782Y-6103119I-87500J0D01*
G01*
X20707690Y-12187520D02*
G75*
G03*
X20707690Y-12187520I-87500J0D01*
G01*
X20986581Y-7979177D02*
G75*
G03*
X20986581Y-7979177I-87500J0D01*
G01*
X21241717Y-4306579D02*
G75*
G03*
X21241717Y-4306579I-87500J0D01*
G01*
X21317381Y-9855236D02*
G75*
G03*
X21317381Y-9855236I-87500J0D01*
G01*
X21572517Y-6182637D02*
G75*
G03*
X21572517Y-6182637I-87500J0D01*
G01*
X21868000Y-12001500D02*
G75*
G03*
X21868000Y-12001500I-87500J0D01*
G01*
X21903317Y-8058696D02*
G75*
G03*
X21903317Y-8058696I-87500J0D01*
G01*
X22234117Y-9934755D02*
G75*
G03*
X22234117Y-9934755I-87500J0D01*
G01*
X22242282Y-4130152D02*
G75*
G03*
X22242282Y-4130152I-87500J0D01*
G01*
X22573082Y-6006211D02*
G75*
G03*
X22573082Y-6006211I-87500J0D01*
G01*
X22884000Y-12001500D02*
G75*
G03*
X22884000Y-12001500I-87500J0D01*
G01*
X22903881Y-7882269D02*
G75*
G03*
X22903881Y-7882269I-87500J0D01*
G01*
X23200259Y-4443562D02*
G75*
G03*
X23200259Y-4443562I-87500J0D01*
G01*
X23234681Y-9758328D02*
G75*
G03*
X23234681Y-9758328I-87500J0D01*
G01*
X23531059Y-6319621D02*
G75*
G03*
X23531059Y-6319621I-87500J0D01*
G01*
X23861858Y-8195680D02*
G75*
G03*
X23861858Y-8195680I-87500J0D01*
G01*
X24192658Y-10071739D02*
G75*
G03*
X24192658Y-10071739I-87500J0D01*
G01*
X24200824Y-4267136D02*
G75*
G03*
X24200824Y-4267136I-87500J0D01*
G01*
X24531623Y-6143195D02*
G75*
G03*
X24531623Y-6143195I-87500J0D01*
G01*
X24862423Y-8019253D02*
G75*
G03*
X24862423Y-8019253I-87500J0D01*
G01*
X25076318Y-4112763D02*
G75*
G03*
X25076318Y-4112763I-87500J0D01*
G01*
X25193223Y-9895312D02*
G75*
G03*
X25193223Y-9895312I-87500J0D01*
G01*
X25407117Y-5988821D02*
G75*
G03*
X25407117Y-5988821I-87500J0D01*
G01*
X25737917Y-7864880D02*
G75*
G03*
X25737917Y-7864880I-87500J0D01*
G01*
X26068717Y-9740939D02*
G75*
G03*
X26068717Y-9740939I-87500J0D01*
G01*
X26076882Y-3936336D02*
G75*
G03*
X26076882Y-3936336I-87500J0D01*
G01*
X26407682Y-5812395D02*
G75*
G03*
X26407682Y-5812395I-87500J0D01*
G01*
X26738482Y-7688454D02*
G75*
G03*
X26738482Y-7688454I-87500J0D01*
G01*
X27069282Y-9564512D02*
G75*
G03*
X27069282Y-9564512I-87500J0D01*
G01*
X2968895Y-9186425D02*
X2968895Y-9486425D01*
X2818895Y-9336425D02*
X3118895Y-9336425D01*
X3299695Y-7310366D02*
X3299695Y-7610366D01*
X3149695Y-7460366D02*
X3449695Y-7460366D01*
X3630495Y-5434307D02*
X3630495Y-5734307D01*
X3480495Y-5584307D02*
X3780495Y-5584307D01*
X3638355Y-9046550D02*
X3638355Y-9346550D01*
X3488355Y-9196550D02*
X3788355Y-9196550D01*
X3961295Y-3558248D02*
X3961295Y-3858248D01*
X3811295Y-3708248D02*
X4111295Y-3708248D01*
X3969155Y-7170491D02*
X3969155Y-7470491D01*
X3819155Y-7320491D02*
X4119155Y-7320491D01*
X4299955Y-5294432D02*
X4299955Y-5594432D01*
X4149955Y-5444432D02*
X4449955Y-5444432D01*
X4630754Y-3418374D02*
X4630754Y-3718374D01*
X4480754Y-3568374D02*
X4780754Y-3568374D01*
X4844954Y-9517224D02*
X4844954Y-9817224D01*
X4694954Y-9667224D02*
X4994954Y-9667224D01*
X5175754Y-7641166D02*
X5175754Y-7941166D01*
X5025754Y-7791166D02*
X5325754Y-7791166D01*
X5506554Y-5765107D02*
X5506554Y-6065107D01*
X5356554Y-5915107D02*
X5656554Y-5915107D01*
X5514414Y-9377350D02*
X5514414Y-9677350D01*
X5364414Y-9527350D02*
X5664414Y-9527350D01*
X5837354Y-3889048D02*
X5837354Y-4189048D01*
X5687354Y-4039048D02*
X5987354Y-4039048D01*
X5845214Y-7501291D02*
X5845214Y-7801291D01*
X5695214Y-7651291D02*
X5995214Y-7651291D01*
X6176013Y-5625232D02*
X6176013Y-5925232D01*
X6026013Y-5775232D02*
X6326013Y-5775232D01*
X6506813Y-3749173D02*
X6506813Y-4049173D01*
X6356813Y-3899173D02*
X6656813Y-3899173D01*
X6803496Y-9380241D02*
X6803496Y-9680241D01*
X6653496Y-9530241D02*
X6953496Y-9530241D01*
X7112000Y-11597500D02*
X7112000Y-11897500D01*
X6962000Y-11747500D02*
X7262000Y-11747500D01*
X7134296Y-7504182D02*
X7134296Y-7804182D01*
X6984296Y-7654182D02*
X7284296Y-7654182D01*
X7465095Y-5628123D02*
X7465095Y-5928123D01*
X7315095Y-5778123D02*
X7615095Y-5778123D01*
X7472955Y-9240366D02*
X7472955Y-9540366D01*
X7322955Y-9390366D02*
X7622955Y-9390366D01*
X7747000Y-11343500D02*
X7747000Y-11643500D01*
X7597000Y-11493500D02*
X7897000Y-11493500D01*
X7795895Y-3752064D02*
X7795895Y-4052064D01*
X7645895Y-3902064D02*
X7945895Y-3902064D01*
X7803755Y-7364307D02*
X7803755Y-7664307D01*
X7653755Y-7514307D02*
X7953755Y-7514307D01*
X8134555Y-5488248D02*
X8134555Y-5788248D01*
X7984555Y-5638248D02*
X8284555Y-5638248D01*
X8465355Y-3612189D02*
X8465355Y-3912189D01*
X8315355Y-3762189D02*
X8615355Y-3762189D01*
X8720796Y-9477148D02*
X8720796Y-9777148D01*
X8570796Y-9627148D02*
X8870796Y-9627148D01*
X9051596Y-7601090D02*
X9051596Y-7901090D01*
X8901596Y-7751090D02*
X9201596Y-7751090D01*
X9349722Y-11825045D02*
X9349722Y-12125045D01*
X9199722Y-11975045D02*
X9499722Y-11975045D01*
X9382396Y-5725031D02*
X9382396Y-6025031D01*
X9232396Y-5875031D02*
X9532396Y-5875031D01*
X9390256Y-9337274D02*
X9390256Y-9637274D01*
X9240256Y-9487274D02*
X9540256Y-9487274D01*
X9713196Y-3848972D02*
X9713196Y-4148972D01*
X9563196Y-3998972D02*
X9863196Y-3998972D01*
X9721055Y-7461215D02*
X9721055Y-7761215D01*
X9571055Y-7611215D02*
X9871055Y-7611215D01*
X10028825Y-11744050D02*
X10028825Y-12044050D01*
X9878825Y-11894050D02*
X10178825Y-11894050D01*
X10051855Y-5585156D02*
X10051855Y-5885156D01*
X9901855Y-5735156D02*
X10201855Y-5735156D01*
X10382655Y-3709097D02*
X10382655Y-4009097D01*
X10232655Y-3859097D02*
X10532655Y-3859097D01*
X10555614Y-10041840D02*
X10555614Y-10341840D01*
X10405614Y-10191840D02*
X10705614Y-10191840D01*
X10886413Y-8165781D02*
X10886413Y-8465781D01*
X10736413Y-8315781D02*
X11036413Y-8315781D01*
X11217213Y-6289722D02*
X11217213Y-6589722D01*
X11067213Y-6439722D02*
X11367213Y-6439722D01*
X11225073Y-9901965D02*
X11225073Y-10201965D01*
X11075073Y-10051965D02*
X11375073Y-10051965D01*
X11446042Y-12476280D02*
X11446042Y-12776280D01*
X11296042Y-12626280D02*
X11596042Y-12626280D01*
X11548013Y-4413664D02*
X11548013Y-4713664D01*
X11398013Y-4563664D02*
X11698013Y-4563664D01*
X11555873Y-8025907D02*
X11555873Y-8325907D01*
X11405873Y-8175907D02*
X11705873Y-8175907D01*
X11886672Y-6149848D02*
X11886672Y-6449848D01*
X11736672Y-6299848D02*
X12036672Y-6299848D01*
X12128892Y-12514441D02*
X12128892Y-12814441D01*
X11978892Y-12664441D02*
X12278892Y-12664441D01*
X12217472Y-4273789D02*
X12217472Y-4573789D01*
X12067472Y-4423789D02*
X12367472Y-4423789D01*
X12390431Y-10606532D02*
X12390431Y-10906532D01*
X12240431Y-10756532D02*
X12540431Y-10756532D01*
X12721231Y-8730473D02*
X12721231Y-9030473D01*
X12571231Y-8880473D02*
X12871231Y-8880473D01*
X13052030Y-6854414D02*
X13052030Y-7154414D01*
X12902030Y-7004414D02*
X13202030Y-7004414D01*
X13059890Y-10466657D02*
X13059890Y-10766657D01*
X12909890Y-10616657D02*
X13209890Y-10616657D01*
X13382830Y-4978355D02*
X13382830Y-5278355D01*
X13232830Y-5128355D02*
X13532830Y-5128355D01*
X13390690Y-8590598D02*
X13390690Y-8890598D01*
X13240690Y-8740598D02*
X13540690Y-8740598D01*
X13721490Y-6714539D02*
X13721490Y-7014539D01*
X13571490Y-6864539D02*
X13871490Y-6864539D01*
X14052290Y-4838481D02*
X14052290Y-5138481D01*
X13902290Y-4988481D02*
X14202290Y-4988481D01*
X14541500Y-13121500D02*
X14541500Y-13421500D01*
X14391500Y-13271500D02*
X14691500Y-13271500D01*
X15176500Y-12867500D02*
X15176500Y-13167500D01*
X15026500Y-13017500D02*
X15326500Y-13017500D01*
X15648246Y-5110675D02*
X15648246Y-5410675D01*
X15498246Y-5260675D02*
X15798246Y-5260675D01*
X15979046Y-6986734D02*
X15979046Y-7286734D01*
X15829046Y-7136734D02*
X16129046Y-7136734D01*
X16229493Y-4750267D02*
X16229493Y-5050267D01*
X16079493Y-4900267D02*
X16379493Y-4900267D01*
X16309846Y-8862793D02*
X16309846Y-9162793D01*
X16159846Y-9012793D02*
X16459846Y-9012793D01*
X16560292Y-6626326D02*
X16560292Y-6926326D01*
X16410292Y-6776326D02*
X16710292Y-6776326D01*
X16640646Y-10738852D02*
X16640646Y-11038852D01*
X16490646Y-10888852D02*
X16790646Y-10888852D01*
X16891092Y-8502385D02*
X16891092Y-8802385D01*
X16741092Y-8652385D02*
X17041092Y-8652385D01*
X17221892Y-10378444D02*
X17221892Y-10678444D01*
X17071892Y-10528444D02*
X17371892Y-10528444D01*
X17483064Y-4545984D02*
X17483064Y-4845984D01*
X17333064Y-4695984D02*
X17633064Y-4695984D01*
X17708352Y-12798315D02*
X17708352Y-13098315D01*
X17558352Y-12948315D02*
X17858352Y-12948315D01*
X17813864Y-6422042D02*
X17813864Y-6722042D01*
X17663864Y-6572042D02*
X17963864Y-6572042D01*
X18064310Y-4185576D02*
X18064310Y-4485576D01*
X17914310Y-4335576D02*
X18214310Y-4335576D01*
X18144663Y-8298101D02*
X18144663Y-8598101D01*
X17994663Y-8448101D02*
X18294663Y-8448101D01*
X18176512Y-12299751D02*
X18176512Y-12599751D01*
X18026512Y-12449751D02*
X18326512Y-12449751D01*
X18395110Y-6061635D02*
X18395110Y-6361635D01*
X18245110Y-6211635D02*
X18545110Y-6211635D01*
X18475463Y-10174160D02*
X18475463Y-10474160D01*
X18325463Y-10324160D02*
X18625463Y-10324160D01*
X18725910Y-7937693D02*
X18725910Y-8237693D01*
X18575910Y-8087693D02*
X18875910Y-8087693D01*
X19056709Y-9813752D02*
X19056709Y-10113752D01*
X18906709Y-9963752D02*
X19206709Y-9963752D01*
X19317881Y-3981292D02*
X19317881Y-4281292D01*
X19167881Y-4131292D02*
X19467881Y-4131292D01*
X19648681Y-5857351D02*
X19648681Y-6157351D01*
X19498681Y-6007351D02*
X19798681Y-6007351D01*
X19695742Y-12022265D02*
X19695742Y-12322265D01*
X19545742Y-12172265D02*
X19845742Y-12172265D01*
X19899127Y-3620884D02*
X19899127Y-3920884D01*
X19749127Y-3770884D02*
X20049127Y-3770884D01*
X19979481Y-7733409D02*
X19979481Y-8033409D01*
X19829481Y-7883409D02*
X20129481Y-7883409D01*
X20229927Y-5496943D02*
X20229927Y-5796943D01*
X20079927Y-5646943D02*
X20379927Y-5646943D01*
X20243365Y-11612570D02*
X20243365Y-11912570D01*
X20093365Y-11762570D02*
X20393365Y-11762570D01*
X20310280Y-9609468D02*
X20310280Y-9909468D01*
X20160280Y-9759468D02*
X20460280Y-9759468D01*
X20560727Y-7373002D02*
X20560727Y-7673002D01*
X20410727Y-7523002D02*
X20710727Y-7523002D01*
X20891527Y-9249061D02*
X20891527Y-9549061D01*
X20741527Y-9399061D02*
X21041527Y-9399061D01*
X21235181Y-3884384D02*
X21235181Y-4184384D01*
X21085181Y-4034384D02*
X21385181Y-4034384D01*
X21565981Y-5760443D02*
X21565981Y-6060443D01*
X21415981Y-5910443D02*
X21715981Y-5910443D01*
X21816428Y-3523976D02*
X21816428Y-3823976D01*
X21666428Y-3673976D02*
X21966428Y-3673976D01*
X21896781Y-7636502D02*
X21896781Y-7936502D01*
X21746781Y-7786502D02*
X22046781Y-7786502D01*
X21907500Y-11597500D02*
X21907500Y-11897500D01*
X21757500Y-11747500D02*
X22057500Y-11747500D01*
X22147227Y-5400035D02*
X22147227Y-5700035D01*
X21997227Y-5550035D02*
X22297227Y-5550035D01*
X22227581Y-9512560D02*
X22227581Y-9812560D01*
X22077581Y-9662560D02*
X22377581Y-9662560D01*
X22478027Y-7276094D02*
X22478027Y-7576094D01*
X22328027Y-7426094D02*
X22628027Y-7426094D01*
X22542500Y-11343500D02*
X22542500Y-11643500D01*
X22392500Y-11493500D02*
X22692500Y-11493500D01*
X22808827Y-9152153D02*
X22808827Y-9452153D01*
X22658827Y-9302153D02*
X22958827Y-9302153D01*
X23193723Y-4021368D02*
X23193723Y-4321368D01*
X23043723Y-4171368D02*
X23343723Y-4171368D01*
X23524523Y-5897427D02*
X23524523Y-6197427D01*
X23374523Y-6047427D02*
X23674523Y-6047427D01*
X23774969Y-3660960D02*
X23774969Y-3960960D01*
X23624969Y-3810960D02*
X23924969Y-3810960D01*
X23855322Y-7773485D02*
X23855322Y-8073485D01*
X23705322Y-7923485D02*
X24005322Y-7923485D01*
X24105769Y-5537019D02*
X24105769Y-5837019D01*
X23955769Y-5687019D02*
X24255769Y-5687019D01*
X24186122Y-9649544D02*
X24186122Y-9949544D01*
X24036122Y-9799544D02*
X24336122Y-9799544D01*
X24436569Y-7413078D02*
X24436569Y-7713078D01*
X24286569Y-7563078D02*
X24586569Y-7563078D01*
X24767368Y-9289137D02*
X24767368Y-9589137D01*
X24617368Y-9439137D02*
X24917368Y-9439137D01*
X25069782Y-3690568D02*
X25069782Y-3990568D01*
X24919782Y-3840568D02*
X25219782Y-3840568D01*
X25400581Y-5566627D02*
X25400581Y-5866627D01*
X25250581Y-5716627D02*
X25550581Y-5716627D01*
X25651028Y-3330160D02*
X25651028Y-3630160D01*
X25501028Y-3480160D02*
X25801028Y-3480160D01*
X25731381Y-7442686D02*
X25731381Y-7742686D01*
X25581381Y-7592686D02*
X25881381Y-7592686D01*
X25981828Y-5206219D02*
X25981828Y-5506219D01*
X25831828Y-5356219D02*
X26131828Y-5356219D01*
X26062181Y-9318745D02*
X26062181Y-9618745D01*
X25912181Y-9468745D02*
X26212181Y-9468745D01*
X26312627Y-7082278D02*
X26312627Y-7382278D01*
X26162627Y-7232278D02*
X26462627Y-7232278D01*
X26643427Y-8958337D02*
X26643427Y-9258337D01*
X26493427Y-9108337D02*
X26793427Y-9108337D01*
X13836464Y-14331764D02*
X13836464Y-14116236D01*
X13620936Y-14116236D01*
X13620936Y-14331764D01*
X13836464Y-14331764D01*
X16224064Y-14331764D02*
X16224064Y-14116236D01*
X16008536Y-14116236D01*
X16008536Y-14331764D01*
X16224064Y-14331764D01*
X3300001Y-9852116D02*
X3499391Y-9652726D01*
X3300001Y-9453336D01*
X3100611Y-9652726D01*
X3300001Y-9852116D01*
X3630800Y-7976057D02*
X3830190Y-7776667D01*
X3630800Y-7577277D01*
X3431410Y-7776667D01*
X3630800Y-7976057D01*
X3961600Y-6099998D02*
X4160990Y-5900608D01*
X3961600Y-5701218D01*
X3762210Y-5900608D01*
X3961600Y-6099998D01*
X4292400Y-4223939D02*
X4491790Y-4024549D01*
X4292400Y-3825159D01*
X4093010Y-4024549D01*
X4292400Y-4223939D01*
X5176059Y-10182916D02*
X5375449Y-9983526D01*
X5176059Y-9784136D01*
X4976669Y-9983526D01*
X5176059Y-10182916D01*
X5506859Y-8306857D02*
X5706249Y-8107467D01*
X5506859Y-7908077D01*
X5307469Y-8107467D01*
X5506859Y-8306857D01*
X5837659Y-6430798D02*
X6037049Y-6231408D01*
X5837659Y-6032018D01*
X5638269Y-6231408D01*
X5837659Y-6430798D01*
X6168459Y-4554739D02*
X6367849Y-4355349D01*
X6168459Y-4155959D01*
X5969069Y-4355349D01*
X6168459Y-4554739D01*
X7134601Y-10045932D02*
X7333991Y-9846542D01*
X7134601Y-9647152D01*
X6935211Y-9846542D01*
X7134601Y-10045932D01*
X7465401Y-8169873D02*
X7664791Y-7970483D01*
X7465401Y-7771093D01*
X7266011Y-7970483D01*
X7465401Y-8169873D01*
X7493000Y-12200890D02*
X7692390Y-12001500D01*
X7493000Y-11802110D01*
X7293610Y-12001500D01*
X7493000Y-12200890D01*
X7796201Y-6293814D02*
X7995591Y-6094424D01*
X7796201Y-5895034D01*
X7596811Y-6094424D01*
X7796201Y-6293814D01*
X8127000Y-4417755D02*
X8326390Y-4218365D01*
X8127000Y-4018975D01*
X7927610Y-4218365D01*
X8127000Y-4417755D01*
X9051901Y-10142840D02*
X9251291Y-9943450D01*
X9051901Y-9744060D01*
X8852511Y-9943450D01*
X9051901Y-10142840D01*
X9382701Y-8266781D02*
X9582091Y-8067391D01*
X9382701Y-7868001D01*
X9183311Y-8067391D01*
X9382701Y-8266781D01*
X9652000Y-12518390D02*
X9851390Y-12319000D01*
X9652000Y-12119610D01*
X9452610Y-12319000D01*
X9652000Y-12518390D01*
X9713501Y-6390722D02*
X9912891Y-6191332D01*
X9713501Y-5991942D01*
X9514111Y-6191332D01*
X9713501Y-6390722D01*
X10044301Y-4514663D02*
X10243691Y-4315273D01*
X10044301Y-4115883D01*
X9844911Y-4315273D01*
X10044301Y-4514663D01*
X10886719Y-10707531D02*
X11086109Y-10508141D01*
X10886719Y-10308751D01*
X10687329Y-10508141D01*
X10886719Y-10707531D01*
X11217518Y-8831472D02*
X11416908Y-8632082D01*
X11217518Y-8432692D01*
X11018128Y-8632082D01*
X11217518Y-8831472D01*
X11548318Y-6955414D02*
X11747708Y-6756024D01*
X11548318Y-6556634D01*
X11348928Y-6756024D01*
X11548318Y-6955414D01*
X11684000Y-13216890D02*
X11883390Y-13017500D01*
X11684000Y-12818110D01*
X11484610Y-13017500D01*
X11684000Y-13216890D01*
X11879118Y-5079355D02*
X12078508Y-4879965D01*
X11879118Y-4680575D01*
X11679728Y-4879965D01*
X11879118Y-5079355D01*
X12721536Y-11272223D02*
X12920926Y-11072833D01*
X12721536Y-10873443D01*
X12522146Y-11072833D01*
X12721536Y-11272223D01*
X13052336Y-9396164D02*
X13251726Y-9196774D01*
X13052336Y-8997384D01*
X12852946Y-9196774D01*
X13052336Y-9396164D01*
X13383135Y-7520105D02*
X13582525Y-7320715D01*
X13383135Y-7121325D01*
X13183745Y-7320715D01*
X13383135Y-7520105D01*
X13713935Y-5644046D02*
X13913325Y-5444656D01*
X13713935Y-5245266D01*
X13514545Y-5444656D01*
X13713935Y-5644046D01*
X13728700Y-12899390D02*
X13928090Y-12700000D01*
X13728700Y-12500610D01*
X13529310Y-12700000D01*
X13728700Y-12899390D01*
X14922500Y-13724890D02*
X15121890Y-13525500D01*
X14922500Y-13326110D01*
X14723110Y-13525500D01*
X14922500Y-13724890D01*
X16067565Y-5644046D02*
X16266955Y-5444656D01*
X16067565Y-5245266D01*
X15868175Y-5444656D01*
X16067565Y-5644046D01*
X16116300Y-12899390D02*
X16315690Y-12700000D01*
X16116300Y-12500610D01*
X15916910Y-12700000D01*
X16116300Y-12899390D01*
X16398364Y-7520105D02*
X16597754Y-7320715D01*
X16398364Y-7121325D01*
X16198974Y-7320715D01*
X16398364Y-7520105D01*
X16729164Y-9396164D02*
X16928554Y-9196774D01*
X16729164Y-8997384D01*
X16529774Y-9196774D01*
X16729164Y-9396164D01*
X17059964Y-11272223D02*
X17259354Y-11072833D01*
X17059964Y-10873443D01*
X16860574Y-11072833D01*
X17059964Y-11272223D01*
X17902382Y-5079355D02*
X18101772Y-4879965D01*
X17902382Y-4680575D01*
X17702992Y-4879965D01*
X17902382Y-5079355D01*
X18161000Y-13216890D02*
X18360390Y-13017500D01*
X18161000Y-12818110D01*
X17961610Y-13017500D01*
X18161000Y-13216890D01*
X18233182Y-6955414D02*
X18432572Y-6756024D01*
X18233182Y-6556634D01*
X18033792Y-6756024D01*
X18233182Y-6955414D01*
X18563982Y-8831472D02*
X18763372Y-8632082D01*
X18563982Y-8432692D01*
X18364592Y-8632082D01*
X18563982Y-8831472D01*
X18894781Y-10707531D02*
X19094171Y-10508141D01*
X18894781Y-10308751D01*
X18695391Y-10508141D01*
X18894781Y-10707531D01*
X19737199Y-4514663D02*
X19936589Y-4315273D01*
X19737199Y-4115883D01*
X19537809Y-4315273D01*
X19737199Y-4514663D01*
X20067999Y-6390722D02*
X20267389Y-6191332D01*
X20067999Y-5991942D01*
X19868609Y-6191332D01*
X20067999Y-6390722D01*
X20129500Y-12518390D02*
X20328890Y-12319000D01*
X20129500Y-12119610D01*
X19930110Y-12319000D01*
X20129500Y-12518390D01*
X20398799Y-8266781D02*
X20598189Y-8067391D01*
X20398799Y-7868001D01*
X20199409Y-8067391D01*
X20398799Y-8266781D01*
X20729599Y-10142840D02*
X20928989Y-9943450D01*
X20729599Y-9744060D01*
X20530209Y-9943450D01*
X20729599Y-10142840D01*
X21654500Y-4417755D02*
X21853890Y-4218365D01*
X21654500Y-4018975D01*
X21455110Y-4218365D01*
X21654500Y-4417755D01*
X21985299Y-6293814D02*
X22184689Y-6094424D01*
X21985299Y-5895034D01*
X21785909Y-6094424D01*
X21985299Y-6293814D01*
X22288500Y-12200890D02*
X22487890Y-12001500D01*
X22288500Y-11802110D01*
X22089110Y-12001500D01*
X22288500Y-12200890D01*
X22316099Y-8169873D02*
X22515489Y-7970483D01*
X22316099Y-7771093D01*
X22116709Y-7970483D01*
X22316099Y-8169873D01*
X22646899Y-10045932D02*
X22846289Y-9846542D01*
X22646899Y-9647152D01*
X22447509Y-9846542D01*
X22646899Y-10045932D01*
X23613041Y-4554739D02*
X23812431Y-4355349D01*
X23613041Y-4155959D01*
X23413651Y-4355349D01*
X23613041Y-4554739D01*
X23943841Y-6430798D02*
X24143231Y-6231408D01*
X23943841Y-6032018D01*
X23744451Y-6231408D01*
X23943841Y-6430798D01*
X24274641Y-8306857D02*
X24474031Y-8107467D01*
X24274641Y-7908077D01*
X24075251Y-8107467D01*
X24274641Y-8306857D01*
X24605441Y-10182916D02*
X24804831Y-9983526D01*
X24605441Y-9784136D01*
X24406051Y-9983526D01*
X24605441Y-10182916D01*
X25489100Y-4223939D02*
X25688490Y-4024549D01*
X25489100Y-3825159D01*
X25289710Y-4024549D01*
X25489100Y-4223939D01*
X25819900Y-6099998D02*
X26019290Y-5900608D01*
X25819900Y-5701218D01*
X25620510Y-5900608D01*
X25819900Y-6099998D01*
X26150700Y-7976057D02*
X26350090Y-7776667D01*
X26150700Y-7577277D01*
X25951310Y-7776667D01*
X26150700Y-7976057D01*
X26481499Y-9852116D02*
X26680889Y-9652726D01*
X26481499Y-9453336D01*
X26282109Y-9652726D01*
X26481499Y-9852116D01*
X4176500Y-8685000D02*
X4586500Y-9095000D01*
X4586500Y-8685000D02*
X4176500Y-9095000D01*
X4586500Y-8890000D02*
G75*
G03*
X4586500Y-8890000I-205000J0D01*
G01*
X4875000Y-4875000D02*
X5285000Y-5285000D01*
X5285000Y-4875000D02*
X4875000Y-5285000D01*
X5285000Y-5080000D02*
G75*
G03*
X5285000Y-5080000I-205000J0D01*
G01*
X8367500Y-6907000D02*
X8777500Y-7317000D01*
X8777500Y-6907000D02*
X8367500Y-7317000D01*
X8777500Y-7112000D02*
G75*
G03*
X8777500Y-7112000I-205000J0D01*
G01*
X8786600Y-10844000D02*
X9196600Y-11254000D01*
X9196600Y-10844000D02*
X8786600Y-11254000D01*
X9196600Y-11049000D02*
G75*
G03*
X9196600Y-11049000I-205000J0D01*
G01*
X12368000Y-5764000D02*
X12778000Y-6174000D01*
X12778000Y-5764000D02*
X12368000Y-6174000D01*
X12778000Y-5969000D02*
G75*
G03*
X12778000Y-5969000I-205000J0D01*
G01*
X14628600Y-8215100D02*
X15038600Y-8625100D01*
X15038600Y-8215100D02*
X14628600Y-8625100D01*
X15038600Y-8420100D02*
G75*
G03*
X15038600Y-8420100I-205000J0D01*
G01*
X17003500Y-5764000D02*
X17413500Y-6174000D01*
X17413500Y-5764000D02*
X17003500Y-6174000D01*
X17413500Y-5969000D02*
G75*
G03*
X17413500Y-5969000I-205000J0D01*
G01*
X20572200Y-10824950D02*
X20982200Y-11234950D01*
X20982200Y-10824950D02*
X20572200Y-11234950D01*
X20982200Y-11029950D02*
G75*
G03*
X20982200Y-11029950I-205000J0D01*
G01*
X20940500Y-6716500D02*
X21350500Y-7126500D01*
X21350500Y-6716500D02*
X20940500Y-7126500D01*
X21350500Y-6921500D02*
G75*
G03*
X21350500Y-6921500I-205000J0D01*
G01*
X24496500Y-4938500D02*
X24906500Y-5348500D01*
X24906500Y-4938500D02*
X24496500Y-5348500D01*
X24906500Y-5143500D02*
G75*
G03*
X24906500Y-5143500I-205000J0D01*
G01*
X25195000Y-8685000D02*
X25605000Y-9095000D01*
X25605000Y-8685000D02*
X25195000Y-9095000D01*
X25605000Y-8890000D02*
G75*
G03*
X25605000Y-8890000I-205000J0D01*
G01*
D12*
X2379428Y-15073214D02*
X2379428Y-14773214D01*
X2450857Y-14773214D01*
X2493714Y-14787500D01*
X2522286Y-14816071D01*
X2536571Y-14844643D01*
X2550857Y-14901786D01*
X2550857Y-14944643D01*
X2536571Y-15001786D01*
X2522286Y-15030357D01*
X2493714Y-15058929D01*
X2450857Y-15073214D01*
X2379428Y-15073214D01*
X2679428Y-15073214D02*
X2679428Y-14873214D01*
X2679428Y-14930357D02*
X2693714Y-14901786D01*
X2708000Y-14887500D01*
X2736571Y-14873214D01*
X2765143Y-14873214D01*
X2865143Y-15073214D02*
X2865143Y-14873214D01*
X2865143Y-14773214D02*
X2850857Y-14787500D01*
X2865143Y-14801786D01*
X2879428Y-14787500D01*
X2865143Y-14773214D01*
X2865143Y-14801786D01*
X3050857Y-15073214D02*
X3022286Y-15058929D01*
X3008000Y-15030357D01*
X3008000Y-14773214D01*
X3208000Y-15073214D02*
X3179428Y-15058929D01*
X3165143Y-15030357D01*
X3165143Y-14773214D01*
X3550857Y-15073214D02*
X3550857Y-14773214D01*
X3650857Y-14987500D01*
X3750857Y-14773214D01*
X3750857Y-15073214D01*
X4022286Y-15073214D02*
X4022286Y-14916071D01*
X4008000Y-14887500D01*
X3979428Y-14873214D01*
X3922286Y-14873214D01*
X3893714Y-14887500D01*
X4022286Y-15058929D02*
X3993714Y-15073214D01*
X3922286Y-15073214D01*
X3893714Y-15058929D01*
X3879428Y-15030357D01*
X3879428Y-15001786D01*
X3893714Y-14973214D01*
X3922286Y-14958929D01*
X3993714Y-14958929D01*
X4022286Y-14944643D01*
X4165143Y-14873214D02*
X4165143Y-15173214D01*
X4165143Y-14887500D02*
X4193714Y-14873214D01*
X4250857Y-14873214D01*
X4279428Y-14887500D01*
X4293714Y-14901786D01*
X4308000Y-14930357D01*
X4308000Y-15016071D01*
X4293714Y-15044643D01*
X4279428Y-15058929D01*
X4250857Y-15073214D01*
X4193714Y-15073214D01*
X4165143Y-15058929D01*
X4436571Y-15044643D02*
X4450857Y-15058929D01*
X4436571Y-15073214D01*
X4422286Y-15058929D01*
X4436571Y-15044643D01*
X4436571Y-15073214D01*
X4436571Y-14887500D02*
X4450857Y-14901786D01*
X4436571Y-14916071D01*
X4422286Y-14901786D01*
X4436571Y-14887500D01*
X4436571Y-14916071D01*
X2003000Y-15522500D02*
X2093000Y-15612500D01*
X2093000Y-15522500D02*
X2003000Y-15612500D01*
X2436571Y-15403214D02*
X2465143Y-15403214D01*
X2493714Y-15417500D01*
X2508000Y-15431786D01*
X2522286Y-15460357D01*
X2536571Y-15517500D01*
X2536571Y-15588929D01*
X2522286Y-15646071D01*
X2508000Y-15674643D01*
X2493714Y-15688929D01*
X2465143Y-15703214D01*
X2436571Y-15703214D01*
X2408000Y-15688929D01*
X2393714Y-15674643D01*
X2379428Y-15646071D01*
X2365143Y-15588929D01*
X2365143Y-15517500D01*
X2379428Y-15460357D01*
X2393714Y-15431786D01*
X2408000Y-15417500D01*
X2436571Y-15403214D01*
X2665143Y-15674643D02*
X2679428Y-15688929D01*
X2665143Y-15703214D01*
X2650857Y-15688929D01*
X2665143Y-15674643D01*
X2665143Y-15703214D01*
X2822286Y-15703214D02*
X2879428Y-15703214D01*
X2908000Y-15688929D01*
X2922286Y-15674643D01*
X2950857Y-15631786D01*
X2965143Y-15574643D01*
X2965143Y-15460357D01*
X2950857Y-15431786D01*
X2936571Y-15417500D01*
X2908000Y-15403214D01*
X2850857Y-15403214D01*
X2822286Y-15417500D01*
X2808000Y-15431786D01*
X2793714Y-15460357D01*
X2793714Y-15531786D01*
X2808000Y-15560357D01*
X2822286Y-15574643D01*
X2850857Y-15588929D01*
X2908000Y-15588929D01*
X2936571Y-15574643D01*
X2950857Y-15560357D01*
X2965143Y-15531786D01*
X3150857Y-15403214D02*
X3179428Y-15403214D01*
X3208000Y-15417500D01*
X3222286Y-15431786D01*
X3236571Y-15460357D01*
X3250857Y-15517500D01*
X3250857Y-15588929D01*
X3236571Y-15646071D01*
X3222286Y-15674643D01*
X3208000Y-15688929D01*
X3179428Y-15703214D01*
X3150857Y-15703214D01*
X3122286Y-15688929D01*
X3108000Y-15674643D01*
X3093714Y-15646071D01*
X3079428Y-15588929D01*
X3079428Y-15517500D01*
X3093714Y-15460357D01*
X3108000Y-15431786D01*
X3122286Y-15417500D01*
X3150857Y-15403214D01*
X3436571Y-15403214D02*
X3465143Y-15403214D01*
X3493714Y-15417500D01*
X3508000Y-15431786D01*
X3522286Y-15460357D01*
X3536571Y-15517500D01*
X3536571Y-15588929D01*
X3522286Y-15646071D01*
X3508000Y-15674643D01*
X3493714Y-15688929D01*
X3465143Y-15703214D01*
X3436571Y-15703214D01*
X3408000Y-15688929D01*
X3393714Y-15674643D01*
X3379428Y-15646071D01*
X3365143Y-15588929D01*
X3365143Y-15517500D01*
X3379428Y-15460357D01*
X3393714Y-15431786D01*
X3408000Y-15417500D01*
X3436571Y-15403214D01*
X3665143Y-15703214D02*
X3665143Y-15503214D01*
X3665143Y-15531786D02*
X3679428Y-15517500D01*
X3708000Y-15503214D01*
X3750857Y-15503214D01*
X3779428Y-15517500D01*
X3793714Y-15546071D01*
X3793714Y-15703214D01*
X3793714Y-15546071D02*
X3808000Y-15517500D01*
X3836571Y-15503214D01*
X3879428Y-15503214D01*
X3908000Y-15517500D01*
X3922286Y-15546071D01*
X3922286Y-15703214D01*
X4065143Y-15703214D02*
X4065143Y-15503214D01*
X4065143Y-15531786D02*
X4079428Y-15517500D01*
X4108000Y-15503214D01*
X4150857Y-15503214D01*
X4179428Y-15517500D01*
X4193714Y-15546071D01*
X4193714Y-15703214D01*
X4193714Y-15546071D02*
X4208000Y-15517500D01*
X4236571Y-15503214D01*
X4279428Y-15503214D01*
X4308000Y-15517500D01*
X4322286Y-15546071D01*
X4322286Y-15703214D01*
X4908000Y-15388929D02*
X4650857Y-15774643D01*
X5293714Y-15403214D02*
X5322286Y-15403214D01*
X5350857Y-15417500D01*
X5365143Y-15431786D01*
X5379428Y-15460357D01*
X5393714Y-15517500D01*
X5393714Y-15588929D01*
X5379428Y-15646071D01*
X5365143Y-15674643D01*
X5350857Y-15688929D01*
X5322286Y-15703214D01*
X5293714Y-15703214D01*
X5265143Y-15688929D01*
X5250857Y-15674643D01*
X5236571Y-15646071D01*
X5222286Y-15588929D01*
X5222286Y-15517500D01*
X5236571Y-15460357D01*
X5250857Y-15431786D01*
X5265143Y-15417500D01*
X5293714Y-15403214D01*
X5522286Y-15674643D02*
X5536571Y-15688929D01*
X5522286Y-15703214D01*
X5508000Y-15688929D01*
X5522286Y-15674643D01*
X5522286Y-15703214D01*
X5722286Y-15403214D02*
X5750857Y-15403214D01*
X5779428Y-15417500D01*
X5793714Y-15431786D01*
X5808000Y-15460357D01*
X5822286Y-15517500D01*
X5822286Y-15588929D01*
X5808000Y-15646071D01*
X5793714Y-15674643D01*
X5779428Y-15688929D01*
X5750857Y-15703214D01*
X5722286Y-15703214D01*
X5693714Y-15688929D01*
X5679428Y-15674643D01*
X5665143Y-15646071D01*
X5650857Y-15588929D01*
X5650857Y-15517500D01*
X5665143Y-15460357D01*
X5679428Y-15431786D01*
X5693714Y-15417500D01*
X5722286Y-15403214D01*
X5922286Y-15403214D02*
X6108000Y-15403214D01*
X6008000Y-15517500D01*
X6050857Y-15517500D01*
X6079428Y-15531786D01*
X6093714Y-15546071D01*
X6108000Y-15574643D01*
X6108000Y-15646071D01*
X6093714Y-15674643D01*
X6079428Y-15688929D01*
X6050857Y-15703214D01*
X5965143Y-15703214D01*
X5936571Y-15688929D01*
X5922286Y-15674643D01*
X6379428Y-15403214D02*
X6236571Y-15403214D01*
X6222286Y-15546071D01*
X6236571Y-15531786D01*
X6265143Y-15517500D01*
X6336571Y-15517500D01*
X6365143Y-15531786D01*
X6379428Y-15546071D01*
X6393714Y-15574643D01*
X6393714Y-15646071D01*
X6379428Y-15674643D01*
X6365143Y-15688929D01*
X6336571Y-15703214D01*
X6265143Y-15703214D01*
X6236571Y-15688929D01*
X6222286Y-15674643D01*
X6650857Y-15503214D02*
X6650857Y-15703214D01*
X6579428Y-15388929D02*
X6508000Y-15603214D01*
X6693714Y-15603214D01*
X6793714Y-15403214D02*
X6793714Y-15460357D01*
X6908000Y-15403214D02*
X6908000Y-15460357D01*
X7350857Y-15817500D02*
X7336571Y-15803214D01*
X7308000Y-15760357D01*
X7293714Y-15731786D01*
X7279428Y-15688929D01*
X7265143Y-15617500D01*
X7265143Y-15560357D01*
X7279428Y-15488929D01*
X7293714Y-15446071D01*
X7308000Y-15417500D01*
X7336571Y-15374643D01*
X7350857Y-15360357D01*
X7450857Y-15431786D02*
X7465143Y-15417500D01*
X7493714Y-15403214D01*
X7565143Y-15403214D01*
X7593714Y-15417500D01*
X7608000Y-15431786D01*
X7622286Y-15460357D01*
X7622286Y-15488929D01*
X7608000Y-15531786D01*
X7436571Y-15703214D01*
X7622286Y-15703214D01*
X7979428Y-15703214D02*
X7979428Y-15403214D01*
X8108000Y-15703214D02*
X8108000Y-15546071D01*
X8093714Y-15517500D01*
X8065143Y-15503214D01*
X8022286Y-15503214D01*
X7993714Y-15517500D01*
X7979428Y-15531786D01*
X8293714Y-15703214D02*
X8265143Y-15688929D01*
X8250857Y-15674643D01*
X8236571Y-15646071D01*
X8236571Y-15560357D01*
X8250857Y-15531786D01*
X8265143Y-15517500D01*
X8293714Y-15503214D01*
X8336571Y-15503214D01*
X8365143Y-15517500D01*
X8379428Y-15531786D01*
X8393714Y-15560357D01*
X8393714Y-15646071D01*
X8379428Y-15674643D01*
X8365143Y-15688929D01*
X8336571Y-15703214D01*
X8293714Y-15703214D01*
X8565143Y-15703214D02*
X8536571Y-15688929D01*
X8522286Y-15660357D01*
X8522286Y-15403214D01*
X8793714Y-15688929D02*
X8765143Y-15703214D01*
X8708000Y-15703214D01*
X8679428Y-15688929D01*
X8665143Y-15660357D01*
X8665143Y-15546071D01*
X8679428Y-15517500D01*
X8708000Y-15503214D01*
X8765143Y-15503214D01*
X8793714Y-15517500D01*
X8808000Y-15546071D01*
X8808000Y-15574643D01*
X8665143Y-15603214D01*
X8922286Y-15688929D02*
X8950857Y-15703214D01*
X9008000Y-15703214D01*
X9036571Y-15688929D01*
X9050857Y-15660357D01*
X9050857Y-15646071D01*
X9036571Y-15617500D01*
X9008000Y-15603214D01*
X8965143Y-15603214D01*
X8936571Y-15588929D01*
X8922286Y-15560357D01*
X8922286Y-15546071D01*
X8936571Y-15517500D01*
X8965143Y-15503214D01*
X9008000Y-15503214D01*
X9036571Y-15517500D01*
X9150857Y-15817500D02*
X9165143Y-15803214D01*
X9193714Y-15760357D01*
X9208000Y-15731786D01*
X9222286Y-15688929D01*
X9236571Y-15617500D01*
X9236571Y-15560357D01*
X9222286Y-15488929D01*
X9208000Y-15446071D01*
X9193714Y-15417500D01*
X9165143Y-15374643D01*
X9150857Y-15360357D01*
X9693714Y-15817500D02*
X9679428Y-15803214D01*
X9650857Y-15760357D01*
X9636571Y-15731786D01*
X9622286Y-15688929D01*
X9608000Y-15617500D01*
X9608000Y-15560357D01*
X9622286Y-15488929D01*
X9636571Y-15446071D01*
X9650857Y-15417500D01*
X9679428Y-15374643D01*
X9693714Y-15360357D01*
X9808000Y-15503214D02*
X9808000Y-15703214D01*
X9808000Y-15531786D02*
X9822286Y-15517500D01*
X9850857Y-15503214D01*
X9893714Y-15503214D01*
X9922286Y-15517500D01*
X9936571Y-15546071D01*
X9936571Y-15703214D01*
X10122286Y-15703214D02*
X10093714Y-15688929D01*
X10079428Y-15674643D01*
X10065143Y-15646071D01*
X10065143Y-15560357D01*
X10079428Y-15531786D01*
X10093714Y-15517500D01*
X10122286Y-15503214D01*
X10165143Y-15503214D01*
X10193714Y-15517500D01*
X10208000Y-15531786D01*
X10222286Y-15560357D01*
X10222286Y-15646071D01*
X10208000Y-15674643D01*
X10193714Y-15688929D01*
X10165143Y-15703214D01*
X10122286Y-15703214D01*
X10308000Y-15503214D02*
X10422286Y-15503214D01*
X10350857Y-15403214D02*
X10350857Y-15660357D01*
X10365143Y-15688929D01*
X10393714Y-15703214D01*
X10422286Y-15703214D01*
X10750857Y-15503214D02*
X10750857Y-15803214D01*
X10750857Y-15517500D02*
X10779428Y-15503214D01*
X10836571Y-15503214D01*
X10865143Y-15517500D01*
X10879428Y-15531786D01*
X10893714Y-15560357D01*
X10893714Y-15646071D01*
X10879428Y-15674643D01*
X10865143Y-15688929D01*
X10836571Y-15703214D01*
X10779428Y-15703214D01*
X10750857Y-15688929D01*
X11065143Y-15703214D02*
X11036571Y-15688929D01*
X11022286Y-15660357D01*
X11022286Y-15403214D01*
X11308000Y-15703214D02*
X11308000Y-15546071D01*
X11293714Y-15517500D01*
X11265143Y-15503214D01*
X11208000Y-15503214D01*
X11179428Y-15517500D01*
X11308000Y-15688929D02*
X11279428Y-15703214D01*
X11208000Y-15703214D01*
X11179428Y-15688929D01*
X11165143Y-15660357D01*
X11165143Y-15631786D01*
X11179428Y-15603214D01*
X11208000Y-15588929D01*
X11279428Y-15588929D01*
X11308000Y-15574643D01*
X11408000Y-15503214D02*
X11522286Y-15503214D01*
X11450857Y-15403214D02*
X11450857Y-15660357D01*
X11465143Y-15688929D01*
X11493714Y-15703214D01*
X11522286Y-15703214D01*
X11736571Y-15688929D02*
X11708000Y-15703214D01*
X11650857Y-15703214D01*
X11622286Y-15688929D01*
X11608000Y-15660357D01*
X11608000Y-15546071D01*
X11622286Y-15517500D01*
X11650857Y-15503214D01*
X11708000Y-15503214D01*
X11736571Y-15517500D01*
X11750857Y-15546071D01*
X11750857Y-15574643D01*
X11608000Y-15603214D01*
X12008000Y-15703214D02*
X12008000Y-15403214D01*
X12008000Y-15688929D02*
X11979428Y-15703214D01*
X11922286Y-15703214D01*
X11893714Y-15688929D01*
X11879428Y-15674643D01*
X11865143Y-15646071D01*
X11865143Y-15560357D01*
X11879428Y-15531786D01*
X11893714Y-15517500D01*
X11922286Y-15503214D01*
X11979428Y-15503214D01*
X12008000Y-15517500D01*
X12122286Y-15817500D02*
X12136571Y-15803214D01*
X12165143Y-15760357D01*
X12179428Y-15731786D01*
X12193714Y-15688929D01*
X12208000Y-15617500D01*
X12208000Y-15560357D01*
X12193714Y-15488929D01*
X12179428Y-15446071D01*
X12165143Y-15417500D01*
X12136571Y-15374643D01*
X12122286Y-15360357D01*
X2093000Y-15963500D02*
G75*
G03*
X2093000Y-15963500I-87500J0D01*
G01*
X2536571Y-16099214D02*
X2365143Y-16099214D01*
X2450857Y-16099214D02*
X2450857Y-15799214D01*
X2422286Y-15842071D01*
X2393714Y-15870643D01*
X2365143Y-15884929D01*
X2665143Y-16070643D02*
X2679428Y-16084929D01*
X2665143Y-16099214D01*
X2650857Y-16084929D01*
X2665143Y-16070643D01*
X2665143Y-16099214D01*
X2779428Y-15799214D02*
X2979428Y-15799214D01*
X2850857Y-16099214D01*
X3236571Y-15799214D02*
X3093714Y-15799214D01*
X3079428Y-15942071D01*
X3093714Y-15927786D01*
X3122286Y-15913500D01*
X3193714Y-15913500D01*
X3222286Y-15927786D01*
X3236571Y-15942071D01*
X3250857Y-15970643D01*
X3250857Y-16042071D01*
X3236571Y-16070643D01*
X3222286Y-16084929D01*
X3193714Y-16099214D01*
X3122286Y-16099214D01*
X3093714Y-16084929D01*
X3079428Y-16070643D01*
X3436571Y-15799214D02*
X3465143Y-15799214D01*
X3493714Y-15813500D01*
X3508000Y-15827786D01*
X3522286Y-15856357D01*
X3536571Y-15913500D01*
X3536571Y-15984929D01*
X3522286Y-16042071D01*
X3508000Y-16070643D01*
X3493714Y-16084929D01*
X3465143Y-16099214D01*
X3436571Y-16099214D01*
X3408000Y-16084929D01*
X3393714Y-16070643D01*
X3379428Y-16042071D01*
X3365143Y-15984929D01*
X3365143Y-15913500D01*
X3379428Y-15856357D01*
X3393714Y-15827786D01*
X3408000Y-15813500D01*
X3436571Y-15799214D01*
X3665143Y-16099214D02*
X3665143Y-15899214D01*
X3665143Y-15927786D02*
X3679428Y-15913500D01*
X3708000Y-15899214D01*
X3750857Y-15899214D01*
X3779428Y-15913500D01*
X3793714Y-15942071D01*
X3793714Y-16099214D01*
X3793714Y-15942071D02*
X3808000Y-15913500D01*
X3836571Y-15899214D01*
X3879428Y-15899214D01*
X3908000Y-15913500D01*
X3922286Y-15942071D01*
X3922286Y-16099214D01*
X4065143Y-16099214D02*
X4065143Y-15899214D01*
X4065143Y-15927786D02*
X4079428Y-15913500D01*
X4108000Y-15899214D01*
X4150857Y-15899214D01*
X4179428Y-15913500D01*
X4193714Y-15942071D01*
X4193714Y-16099214D01*
X4193714Y-15942071D02*
X4208000Y-15913500D01*
X4236571Y-15899214D01*
X4279428Y-15899214D01*
X4308000Y-15913500D01*
X4322286Y-15942071D01*
X4322286Y-16099214D01*
X4908000Y-15784929D02*
X4650857Y-16170643D01*
X5293714Y-15799214D02*
X5322286Y-15799214D01*
X5350857Y-15813500D01*
X5365143Y-15827786D01*
X5379428Y-15856357D01*
X5393714Y-15913500D01*
X5393714Y-15984929D01*
X5379428Y-16042071D01*
X5365143Y-16070643D01*
X5350857Y-16084929D01*
X5322286Y-16099214D01*
X5293714Y-16099214D01*
X5265143Y-16084929D01*
X5250857Y-16070643D01*
X5236571Y-16042071D01*
X5222286Y-15984929D01*
X5222286Y-15913500D01*
X5236571Y-15856357D01*
X5250857Y-15827786D01*
X5265143Y-15813500D01*
X5293714Y-15799214D01*
X5522286Y-16070643D02*
X5536571Y-16084929D01*
X5522286Y-16099214D01*
X5508000Y-16084929D01*
X5522286Y-16070643D01*
X5522286Y-16099214D01*
X5722286Y-15799214D02*
X5750857Y-15799214D01*
X5779428Y-15813500D01*
X5793714Y-15827786D01*
X5808000Y-15856357D01*
X5822286Y-15913500D01*
X5822286Y-15984929D01*
X5808000Y-16042071D01*
X5793714Y-16070643D01*
X5779428Y-16084929D01*
X5750857Y-16099214D01*
X5722286Y-16099214D01*
X5693714Y-16084929D01*
X5679428Y-16070643D01*
X5665143Y-16042071D01*
X5650857Y-15984929D01*
X5650857Y-15913500D01*
X5665143Y-15856357D01*
X5679428Y-15827786D01*
X5693714Y-15813500D01*
X5722286Y-15799214D01*
X6079428Y-15799214D02*
X6022286Y-15799214D01*
X5993714Y-15813500D01*
X5979428Y-15827786D01*
X5950857Y-15870643D01*
X5936571Y-15927786D01*
X5936571Y-16042071D01*
X5950857Y-16070643D01*
X5965143Y-16084929D01*
X5993714Y-16099214D01*
X6050857Y-16099214D01*
X6079428Y-16084929D01*
X6093714Y-16070643D01*
X6108000Y-16042071D01*
X6108000Y-15970643D01*
X6093714Y-15942071D01*
X6079428Y-15927786D01*
X6050857Y-15913500D01*
X5993714Y-15913500D01*
X5965143Y-15927786D01*
X5950857Y-15942071D01*
X5936571Y-15970643D01*
X6279428Y-15927786D02*
X6250857Y-15913500D01*
X6236571Y-15899214D01*
X6222286Y-15870643D01*
X6222286Y-15856357D01*
X6236571Y-15827786D01*
X6250857Y-15813500D01*
X6279428Y-15799214D01*
X6336571Y-15799214D01*
X6365143Y-15813500D01*
X6379428Y-15827786D01*
X6393714Y-15856357D01*
X6393714Y-15870643D01*
X6379428Y-15899214D01*
X6365143Y-15913500D01*
X6336571Y-15927786D01*
X6279428Y-15927786D01*
X6250857Y-15942071D01*
X6236571Y-15956357D01*
X6222286Y-15984929D01*
X6222286Y-16042071D01*
X6236571Y-16070643D01*
X6250857Y-16084929D01*
X6279428Y-16099214D01*
X6336571Y-16099214D01*
X6365143Y-16084929D01*
X6379428Y-16070643D01*
X6393714Y-16042071D01*
X6393714Y-15984929D01*
X6379428Y-15956357D01*
X6365143Y-15942071D01*
X6336571Y-15927786D01*
X6536571Y-16099214D02*
X6593714Y-16099214D01*
X6622286Y-16084929D01*
X6636571Y-16070643D01*
X6665143Y-16027786D01*
X6679428Y-15970643D01*
X6679428Y-15856357D01*
X6665143Y-15827786D01*
X6650857Y-15813500D01*
X6622286Y-15799214D01*
X6565143Y-15799214D01*
X6536571Y-15813500D01*
X6522286Y-15827786D01*
X6508000Y-15856357D01*
X6508000Y-15927786D01*
X6522286Y-15956357D01*
X6536571Y-15970643D01*
X6565143Y-15984929D01*
X6622286Y-15984929D01*
X6650857Y-15970643D01*
X6665143Y-15956357D01*
X6679428Y-15927786D01*
X6793714Y-15799214D02*
X6793714Y-15856357D01*
X6908000Y-15799214D02*
X6908000Y-15856357D01*
X7350857Y-16213500D02*
X7336571Y-16199214D01*
X7308000Y-16156357D01*
X7293714Y-16127786D01*
X7279428Y-16084929D01*
X7265143Y-16013500D01*
X7265143Y-15956357D01*
X7279428Y-15884929D01*
X7293714Y-15842071D01*
X7308000Y-15813500D01*
X7336571Y-15770643D01*
X7350857Y-15756357D01*
X7622286Y-16099214D02*
X7450857Y-16099214D01*
X7536571Y-16099214D02*
X7536571Y-15799214D01*
X7508000Y-15842071D01*
X7479428Y-15870643D01*
X7450857Y-15884929D01*
X7908000Y-16099214D02*
X7736571Y-16099214D01*
X7822286Y-16099214D02*
X7822286Y-15799214D01*
X7793714Y-15842071D01*
X7765143Y-15870643D01*
X7736571Y-15884929D01*
X8093714Y-15799214D02*
X8122286Y-15799214D01*
X8150857Y-15813500D01*
X8165143Y-15827786D01*
X8179428Y-15856357D01*
X8193714Y-15913500D01*
X8193714Y-15984929D01*
X8179428Y-16042071D01*
X8165143Y-16070643D01*
X8150857Y-16084929D01*
X8122286Y-16099214D01*
X8093714Y-16099214D01*
X8065143Y-16084929D01*
X8050857Y-16070643D01*
X8036571Y-16042071D01*
X8022286Y-15984929D01*
X8022286Y-15913500D01*
X8036571Y-15856357D01*
X8050857Y-15827786D01*
X8065143Y-15813500D01*
X8093714Y-15799214D01*
X8550857Y-16099214D02*
X8550857Y-15799214D01*
X8679428Y-16099214D02*
X8679428Y-15942071D01*
X8665143Y-15913500D01*
X8636571Y-15899214D01*
X8593714Y-15899214D01*
X8565143Y-15913500D01*
X8550857Y-15927786D01*
X8865143Y-16099214D02*
X8836571Y-16084929D01*
X8822286Y-16070643D01*
X8808000Y-16042071D01*
X8808000Y-15956357D01*
X8822286Y-15927786D01*
X8836571Y-15913500D01*
X8865143Y-15899214D01*
X8908000Y-15899214D01*
X8936571Y-15913500D01*
X8950857Y-15927786D01*
X8965143Y-15956357D01*
X8965143Y-16042071D01*
X8950857Y-16070643D01*
X8936571Y-16084929D01*
X8908000Y-16099214D01*
X8865143Y-16099214D01*
X9136571Y-16099214D02*
X9108000Y-16084929D01*
X9093714Y-16056357D01*
X9093714Y-15799214D01*
X9365143Y-16084929D02*
X9336571Y-16099214D01*
X9279428Y-16099214D01*
X9250857Y-16084929D01*
X9236571Y-16056357D01*
X9236571Y-15942071D01*
X9250857Y-15913500D01*
X9279428Y-15899214D01*
X9336571Y-15899214D01*
X9365143Y-15913500D01*
X9379428Y-15942071D01*
X9379428Y-15970643D01*
X9236571Y-15999214D01*
X9493714Y-16084929D02*
X9522286Y-16099214D01*
X9579428Y-16099214D01*
X9608000Y-16084929D01*
X9622286Y-16056357D01*
X9622286Y-16042071D01*
X9608000Y-16013500D01*
X9579428Y-15999214D01*
X9536571Y-15999214D01*
X9508000Y-15984929D01*
X9493714Y-15956357D01*
X9493714Y-15942071D01*
X9508000Y-15913500D01*
X9536571Y-15899214D01*
X9579428Y-15899214D01*
X9608000Y-15913500D01*
X9722286Y-16213500D02*
X9736571Y-16199214D01*
X9765143Y-16156357D01*
X9779428Y-16127786D01*
X9793714Y-16084929D01*
X9808000Y-16013500D01*
X9808000Y-15956357D01*
X9793714Y-15884929D01*
X9779428Y-15842071D01*
X9765143Y-15813500D01*
X9736571Y-15770643D01*
X9722286Y-15756357D01*
X10265143Y-16213500D02*
X10250857Y-16199214D01*
X10222286Y-16156357D01*
X10208000Y-16127786D01*
X10193714Y-16084929D01*
X10179428Y-16013500D01*
X10179428Y-15956357D01*
X10193714Y-15884929D01*
X10208000Y-15842071D01*
X10222286Y-15813500D01*
X10250857Y-15770643D01*
X10265143Y-15756357D01*
X10379428Y-15899214D02*
X10379428Y-16099214D01*
X10379428Y-15927786D02*
X10393714Y-15913500D01*
X10422286Y-15899214D01*
X10465143Y-15899214D01*
X10493714Y-15913500D01*
X10508000Y-15942071D01*
X10508000Y-16099214D01*
X10693714Y-16099214D02*
X10665143Y-16084929D01*
X10650857Y-16070643D01*
X10636571Y-16042071D01*
X10636571Y-15956357D01*
X10650857Y-15927786D01*
X10665143Y-15913500D01*
X10693714Y-15899214D01*
X10736571Y-15899214D01*
X10765143Y-15913500D01*
X10779428Y-15927786D01*
X10793714Y-15956357D01*
X10793714Y-16042071D01*
X10779428Y-16070643D01*
X10765143Y-16084929D01*
X10736571Y-16099214D01*
X10693714Y-16099214D01*
X10879428Y-15899214D02*
X10993714Y-15899214D01*
X10922286Y-15799214D02*
X10922286Y-16056357D01*
X10936571Y-16084929D01*
X10965143Y-16099214D01*
X10993714Y-16099214D01*
X11322286Y-15899214D02*
X11322286Y-16199214D01*
X11322286Y-15913500D02*
X11350857Y-15899214D01*
X11408000Y-15899214D01*
X11436571Y-15913500D01*
X11450857Y-15927786D01*
X11465143Y-15956357D01*
X11465143Y-16042071D01*
X11450857Y-16070643D01*
X11436571Y-16084929D01*
X11408000Y-16099214D01*
X11350857Y-16099214D01*
X11322286Y-16084929D01*
X11636571Y-16099214D02*
X11608000Y-16084929D01*
X11593714Y-16056357D01*
X11593714Y-15799214D01*
X11879428Y-16099214D02*
X11879428Y-15942071D01*
X11865143Y-15913500D01*
X11836571Y-15899214D01*
X11779428Y-15899214D01*
X11750857Y-15913500D01*
X11879428Y-16084929D02*
X11850857Y-16099214D01*
X11779428Y-16099214D01*
X11750857Y-16084929D01*
X11736571Y-16056357D01*
X11736571Y-16027786D01*
X11750857Y-15999214D01*
X11779428Y-15984929D01*
X11850857Y-15984929D01*
X11879428Y-15970643D01*
X11979428Y-15899214D02*
X12093714Y-15899214D01*
X12022286Y-15799214D02*
X12022286Y-16056357D01*
X12036571Y-16084929D01*
X12065143Y-16099214D01*
X12093714Y-16099214D01*
X12308000Y-16084929D02*
X12279428Y-16099214D01*
X12222286Y-16099214D01*
X12193714Y-16084929D01*
X12179428Y-16056357D01*
X12179428Y-15942071D01*
X12193714Y-15913500D01*
X12222286Y-15899214D01*
X12279428Y-15899214D01*
X12308000Y-15913500D01*
X12322286Y-15942071D01*
X12322286Y-15970643D01*
X12179428Y-15999214D01*
X12579428Y-16099214D02*
X12579428Y-15799214D01*
X12579428Y-16084929D02*
X12550857Y-16099214D01*
X12493714Y-16099214D01*
X12465143Y-16084929D01*
X12450857Y-16070643D01*
X12436571Y-16042071D01*
X12436571Y-15956357D01*
X12450857Y-15927786D01*
X12465143Y-15913500D01*
X12493714Y-15899214D01*
X12550857Y-15899214D01*
X12579428Y-15913500D01*
X12693714Y-16213500D02*
X12708000Y-16199214D01*
X12736571Y-16156357D01*
X12750857Y-16127786D01*
X12765143Y-16084929D01*
X12779428Y-16013500D01*
X12779428Y-15956357D01*
X12765143Y-15884929D01*
X12750857Y-15842071D01*
X12736571Y-15813500D01*
X12708000Y-15770643D01*
X12693714Y-15756357D01*
X1943000Y-16209500D02*
X1943000Y-16509500D01*
X1793000Y-16359500D02*
X2093000Y-16359500D01*
X2350857Y-16195214D02*
X2536571Y-16195214D01*
X2436571Y-16309500D01*
X2479428Y-16309500D01*
X2508000Y-16323786D01*
X2522286Y-16338071D01*
X2536571Y-16366643D01*
X2536571Y-16438071D01*
X2522286Y-16466643D01*
X2508000Y-16480929D01*
X2479428Y-16495214D01*
X2393714Y-16495214D01*
X2365143Y-16480929D01*
X2350857Y-16466643D01*
X2665143Y-16466643D02*
X2679428Y-16480929D01*
X2665143Y-16495214D01*
X2650857Y-16480929D01*
X2665143Y-16466643D01*
X2665143Y-16495214D01*
X2865143Y-16195214D02*
X2893714Y-16195214D01*
X2922286Y-16209500D01*
X2936571Y-16223786D01*
X2950857Y-16252357D01*
X2965143Y-16309500D01*
X2965143Y-16380929D01*
X2950857Y-16438071D01*
X2936571Y-16466643D01*
X2922286Y-16480929D01*
X2893714Y-16495214D01*
X2865143Y-16495214D01*
X2836571Y-16480929D01*
X2822286Y-16466643D01*
X2808000Y-16438071D01*
X2793714Y-16380929D01*
X2793714Y-16309500D01*
X2808000Y-16252357D01*
X2822286Y-16223786D01*
X2836571Y-16209500D01*
X2865143Y-16195214D01*
X3150857Y-16195214D02*
X3179428Y-16195214D01*
X3208000Y-16209500D01*
X3222286Y-16223786D01*
X3236571Y-16252357D01*
X3250857Y-16309500D01*
X3250857Y-16380929D01*
X3236571Y-16438071D01*
X3222286Y-16466643D01*
X3208000Y-16480929D01*
X3179428Y-16495214D01*
X3150857Y-16495214D01*
X3122286Y-16480929D01*
X3108000Y-16466643D01*
X3093714Y-16438071D01*
X3079428Y-16380929D01*
X3079428Y-16309500D01*
X3093714Y-16252357D01*
X3108000Y-16223786D01*
X3122286Y-16209500D01*
X3150857Y-16195214D01*
X3436571Y-16195214D02*
X3465143Y-16195214D01*
X3493714Y-16209500D01*
X3508000Y-16223786D01*
X3522286Y-16252357D01*
X3536571Y-16309500D01*
X3536571Y-16380929D01*
X3522286Y-16438071D01*
X3508000Y-16466643D01*
X3493714Y-16480929D01*
X3465143Y-16495214D01*
X3436571Y-16495214D01*
X3408000Y-16480929D01*
X3393714Y-16466643D01*
X3379428Y-16438071D01*
X3365143Y-16380929D01*
X3365143Y-16309500D01*
X3379428Y-16252357D01*
X3393714Y-16223786D01*
X3408000Y-16209500D01*
X3436571Y-16195214D01*
X3665143Y-16495214D02*
X3665143Y-16295214D01*
X3665143Y-16323786D02*
X3679428Y-16309500D01*
X3708000Y-16295214D01*
X3750857Y-16295214D01*
X3779428Y-16309500D01*
X3793714Y-16338071D01*
X3793714Y-16495214D01*
X3793714Y-16338071D02*
X3808000Y-16309500D01*
X3836571Y-16295214D01*
X3879428Y-16295214D01*
X3908000Y-16309500D01*
X3922286Y-16338071D01*
X3922286Y-16495214D01*
X4065143Y-16495214D02*
X4065143Y-16295214D01*
X4065143Y-16323786D02*
X4079428Y-16309500D01*
X4108000Y-16295214D01*
X4150857Y-16295214D01*
X4179428Y-16309500D01*
X4193714Y-16338071D01*
X4193714Y-16495214D01*
X4193714Y-16338071D02*
X4208000Y-16309500D01*
X4236571Y-16295214D01*
X4279428Y-16295214D01*
X4308000Y-16309500D01*
X4322286Y-16338071D01*
X4322286Y-16495214D01*
X4908000Y-16180929D02*
X4650857Y-16566643D01*
X5293714Y-16195214D02*
X5322286Y-16195214D01*
X5350857Y-16209500D01*
X5365143Y-16223786D01*
X5379428Y-16252357D01*
X5393714Y-16309500D01*
X5393714Y-16380929D01*
X5379428Y-16438071D01*
X5365143Y-16466643D01*
X5350857Y-16480929D01*
X5322286Y-16495214D01*
X5293714Y-16495214D01*
X5265143Y-16480929D01*
X5250857Y-16466643D01*
X5236571Y-16438071D01*
X5222286Y-16380929D01*
X5222286Y-16309500D01*
X5236571Y-16252357D01*
X5250857Y-16223786D01*
X5265143Y-16209500D01*
X5293714Y-16195214D01*
X5522286Y-16466643D02*
X5536571Y-16480929D01*
X5522286Y-16495214D01*
X5508000Y-16480929D01*
X5522286Y-16466643D01*
X5522286Y-16495214D01*
X5822286Y-16495214D02*
X5650857Y-16495214D01*
X5736571Y-16495214D02*
X5736571Y-16195214D01*
X5708000Y-16238071D01*
X5679428Y-16266643D01*
X5650857Y-16280929D01*
X6108000Y-16495214D02*
X5936571Y-16495214D01*
X6022286Y-16495214D02*
X6022286Y-16195214D01*
X5993714Y-16238071D01*
X5965143Y-16266643D01*
X5936571Y-16280929D01*
X6279428Y-16323786D02*
X6250857Y-16309500D01*
X6236571Y-16295214D01*
X6222286Y-16266643D01*
X6222286Y-16252357D01*
X6236571Y-16223786D01*
X6250857Y-16209500D01*
X6279428Y-16195214D01*
X6336571Y-16195214D01*
X6365143Y-16209500D01*
X6379428Y-16223786D01*
X6393714Y-16252357D01*
X6393714Y-16266643D01*
X6379428Y-16295214D01*
X6365143Y-16309500D01*
X6336571Y-16323786D01*
X6279428Y-16323786D01*
X6250857Y-16338071D01*
X6236571Y-16352357D01*
X6222286Y-16380929D01*
X6222286Y-16438071D01*
X6236571Y-16466643D01*
X6250857Y-16480929D01*
X6279428Y-16495214D01*
X6336571Y-16495214D01*
X6365143Y-16480929D01*
X6379428Y-16466643D01*
X6393714Y-16438071D01*
X6393714Y-16380929D01*
X6379428Y-16352357D01*
X6365143Y-16338071D01*
X6336571Y-16323786D01*
X6679428Y-16495214D02*
X6508000Y-16495214D01*
X6593714Y-16495214D02*
X6593714Y-16195214D01*
X6565143Y-16238071D01*
X6536571Y-16266643D01*
X6508000Y-16280929D01*
X6793714Y-16195214D02*
X6793714Y-16252357D01*
X6908000Y-16195214D02*
X6908000Y-16252357D01*
X7350857Y-16609500D02*
X7336571Y-16595214D01*
X7308000Y-16552357D01*
X7293714Y-16523786D01*
X7279428Y-16480929D01*
X7265143Y-16409500D01*
X7265143Y-16352357D01*
X7279428Y-16280929D01*
X7293714Y-16238071D01*
X7308000Y-16209500D01*
X7336571Y-16166643D01*
X7350857Y-16152357D01*
X7622286Y-16495214D02*
X7450857Y-16495214D01*
X7536571Y-16495214D02*
X7536571Y-16195214D01*
X7508000Y-16238071D01*
X7479428Y-16266643D01*
X7450857Y-16280929D01*
X7908000Y-16495214D02*
X7736571Y-16495214D01*
X7822286Y-16495214D02*
X7822286Y-16195214D01*
X7793714Y-16238071D01*
X7765143Y-16266643D01*
X7736571Y-16280929D01*
X8093714Y-16195214D02*
X8122286Y-16195214D01*
X8150857Y-16209500D01*
X8165143Y-16223786D01*
X8179428Y-16252357D01*
X8193714Y-16309500D01*
X8193714Y-16380929D01*
X8179428Y-16438071D01*
X8165143Y-16466643D01*
X8150857Y-16480929D01*
X8122286Y-16495214D01*
X8093714Y-16495214D01*
X8065143Y-16480929D01*
X8050857Y-16466643D01*
X8036571Y-16438071D01*
X8022286Y-16380929D01*
X8022286Y-16309500D01*
X8036571Y-16252357D01*
X8050857Y-16223786D01*
X8065143Y-16209500D01*
X8093714Y-16195214D01*
X8550857Y-16495214D02*
X8550857Y-16195214D01*
X8679428Y-16495214D02*
X8679428Y-16338071D01*
X8665143Y-16309500D01*
X8636571Y-16295214D01*
X8593714Y-16295214D01*
X8565143Y-16309500D01*
X8550857Y-16323786D01*
X8865143Y-16495214D02*
X8836571Y-16480929D01*
X8822286Y-16466643D01*
X8808000Y-16438071D01*
X8808000Y-16352357D01*
X8822286Y-16323786D01*
X8836571Y-16309500D01*
X8865143Y-16295214D01*
X8908000Y-16295214D01*
X8936571Y-16309500D01*
X8950857Y-16323786D01*
X8965143Y-16352357D01*
X8965143Y-16438071D01*
X8950857Y-16466643D01*
X8936571Y-16480929D01*
X8908000Y-16495214D01*
X8865143Y-16495214D01*
X9136571Y-16495214D02*
X9108000Y-16480929D01*
X9093714Y-16452357D01*
X9093714Y-16195214D01*
X9365143Y-16480929D02*
X9336571Y-16495214D01*
X9279428Y-16495214D01*
X9250857Y-16480929D01*
X9236571Y-16452357D01*
X9236571Y-16338071D01*
X9250857Y-16309500D01*
X9279428Y-16295214D01*
X9336571Y-16295214D01*
X9365143Y-16309500D01*
X9379428Y-16338071D01*
X9379428Y-16366643D01*
X9236571Y-16395214D01*
X9493714Y-16480929D02*
X9522286Y-16495214D01*
X9579428Y-16495214D01*
X9608000Y-16480929D01*
X9622286Y-16452357D01*
X9622286Y-16438071D01*
X9608000Y-16409500D01*
X9579428Y-16395214D01*
X9536571Y-16395214D01*
X9508000Y-16380929D01*
X9493714Y-16352357D01*
X9493714Y-16338071D01*
X9508000Y-16309500D01*
X9536571Y-16295214D01*
X9579428Y-16295214D01*
X9608000Y-16309500D01*
X9722286Y-16609500D02*
X9736571Y-16595214D01*
X9765143Y-16552357D01*
X9779428Y-16523786D01*
X9793714Y-16480929D01*
X9808000Y-16409500D01*
X9808000Y-16352357D01*
X9793714Y-16280929D01*
X9779428Y-16238071D01*
X9765143Y-16209500D01*
X9736571Y-16166643D01*
X9722286Y-16152357D01*
X10265143Y-16609500D02*
X10250857Y-16595214D01*
X10222286Y-16552357D01*
X10208000Y-16523786D01*
X10193714Y-16480929D01*
X10179428Y-16409500D01*
X10179428Y-16352357D01*
X10193714Y-16280929D01*
X10208000Y-16238071D01*
X10222286Y-16209500D01*
X10250857Y-16166643D01*
X10265143Y-16152357D01*
X10379428Y-16295214D02*
X10379428Y-16495214D01*
X10379428Y-16323786D02*
X10393714Y-16309500D01*
X10422286Y-16295214D01*
X10465143Y-16295214D01*
X10493714Y-16309500D01*
X10508000Y-16338071D01*
X10508000Y-16495214D01*
X10693714Y-16495214D02*
X10665143Y-16480929D01*
X10650857Y-16466643D01*
X10636571Y-16438071D01*
X10636571Y-16352357D01*
X10650857Y-16323786D01*
X10665143Y-16309500D01*
X10693714Y-16295214D01*
X10736571Y-16295214D01*
X10765143Y-16309500D01*
X10779428Y-16323786D01*
X10793714Y-16352357D01*
X10793714Y-16438071D01*
X10779428Y-16466643D01*
X10765143Y-16480929D01*
X10736571Y-16495214D01*
X10693714Y-16495214D01*
X10879428Y-16295214D02*
X10993714Y-16295214D01*
X10922286Y-16195214D02*
X10922286Y-16452357D01*
X10936571Y-16480929D01*
X10965143Y-16495214D01*
X10993714Y-16495214D01*
X11322286Y-16295214D02*
X11322286Y-16595214D01*
X11322286Y-16309500D02*
X11350857Y-16295214D01*
X11408000Y-16295214D01*
X11436571Y-16309500D01*
X11450857Y-16323786D01*
X11465143Y-16352357D01*
X11465143Y-16438071D01*
X11450857Y-16466643D01*
X11436571Y-16480929D01*
X11408000Y-16495214D01*
X11350857Y-16495214D01*
X11322286Y-16480929D01*
X11636571Y-16495214D02*
X11608000Y-16480929D01*
X11593714Y-16452357D01*
X11593714Y-16195214D01*
X11879428Y-16495214D02*
X11879428Y-16338071D01*
X11865143Y-16309500D01*
X11836571Y-16295214D01*
X11779428Y-16295214D01*
X11750857Y-16309500D01*
X11879428Y-16480929D02*
X11850857Y-16495214D01*
X11779428Y-16495214D01*
X11750857Y-16480929D01*
X11736571Y-16452357D01*
X11736571Y-16423786D01*
X11750857Y-16395214D01*
X11779428Y-16380929D01*
X11850857Y-16380929D01*
X11879428Y-16366643D01*
X11979428Y-16295214D02*
X12093714Y-16295214D01*
X12022286Y-16195214D02*
X12022286Y-16452357D01*
X12036571Y-16480929D01*
X12065143Y-16495214D01*
X12093714Y-16495214D01*
X12308000Y-16480929D02*
X12279428Y-16495214D01*
X12222286Y-16495214D01*
X12193714Y-16480929D01*
X12179428Y-16452357D01*
X12179428Y-16338071D01*
X12193714Y-16309500D01*
X12222286Y-16295214D01*
X12279428Y-16295214D01*
X12308000Y-16309500D01*
X12322286Y-16338071D01*
X12322286Y-16366643D01*
X12179428Y-16395214D01*
X12579428Y-16495214D02*
X12579428Y-16195214D01*
X12579428Y-16480929D02*
X12550857Y-16495214D01*
X12493714Y-16495214D01*
X12465143Y-16480929D01*
X12450857Y-16466643D01*
X12436571Y-16438071D01*
X12436571Y-16352357D01*
X12450857Y-16323786D01*
X12465143Y-16309500D01*
X12493714Y-16295214D01*
X12550857Y-16295214D01*
X12579428Y-16309500D01*
X12693714Y-16609500D02*
X12708000Y-16595214D01*
X12736571Y-16552357D01*
X12750857Y-16523786D01*
X12765143Y-16480929D01*
X12779428Y-16409500D01*
X12779428Y-16352357D01*
X12765143Y-16280929D01*
X12750857Y-16238071D01*
X12736571Y-16209500D01*
X12708000Y-16166643D01*
X12693714Y-16152357D01*
X2048364Y-16897264D02*
X2048364Y-16681736D01*
X1832836Y-16681736D01*
X1832836Y-16897264D01*
X2048364Y-16897264D01*
X2350857Y-16625214D02*
X2536571Y-16625214D01*
X2436571Y-16739500D01*
X2479428Y-16739500D01*
X2508000Y-16753786D01*
X2522286Y-16768071D01*
X2536571Y-16796643D01*
X2536571Y-16868072D01*
X2522286Y-16896643D01*
X2508000Y-16910929D01*
X2479428Y-16925214D01*
X2393714Y-16925214D01*
X2365143Y-16910929D01*
X2350857Y-16896643D01*
X2665143Y-16896643D02*
X2679428Y-16910929D01*
X2665143Y-16925214D01*
X2650857Y-16910929D01*
X2665143Y-16896643D01*
X2665143Y-16925214D01*
X2865143Y-16625214D02*
X2893714Y-16625214D01*
X2922286Y-16639500D01*
X2936571Y-16653786D01*
X2950857Y-16682357D01*
X2965143Y-16739500D01*
X2965143Y-16810929D01*
X2950857Y-16868072D01*
X2936571Y-16896643D01*
X2922286Y-16910929D01*
X2893714Y-16925214D01*
X2865143Y-16925214D01*
X2836571Y-16910929D01*
X2822286Y-16896643D01*
X2808000Y-16868072D01*
X2793714Y-16810929D01*
X2793714Y-16739500D01*
X2808000Y-16682357D01*
X2822286Y-16653786D01*
X2836571Y-16639500D01*
X2865143Y-16625214D01*
X3222286Y-16725214D02*
X3222286Y-16925214D01*
X3150857Y-16610929D02*
X3079428Y-16825214D01*
X3265143Y-16825214D01*
X3422286Y-16753786D02*
X3393714Y-16739500D01*
X3379428Y-16725214D01*
X3365143Y-16696643D01*
X3365143Y-16682357D01*
X3379428Y-16653786D01*
X3393714Y-16639500D01*
X3422286Y-16625214D01*
X3479428Y-16625214D01*
X3508000Y-16639500D01*
X3522286Y-16653786D01*
X3536571Y-16682357D01*
X3536571Y-16696643D01*
X3522286Y-16725214D01*
X3508000Y-16739500D01*
X3479428Y-16753786D01*
X3422286Y-16753786D01*
X3393714Y-16768071D01*
X3379428Y-16782357D01*
X3365143Y-16810929D01*
X3365143Y-16868072D01*
X3379428Y-16896643D01*
X3393714Y-16910929D01*
X3422286Y-16925214D01*
X3479428Y-16925214D01*
X3508000Y-16910929D01*
X3522286Y-16896643D01*
X3536571Y-16868072D01*
X3536571Y-16810929D01*
X3522286Y-16782357D01*
X3508000Y-16768071D01*
X3479428Y-16753786D01*
X3665143Y-16925214D02*
X3665143Y-16725214D01*
X3665143Y-16753786D02*
X3679428Y-16739500D01*
X3708000Y-16725214D01*
X3750857Y-16725214D01*
X3779428Y-16739500D01*
X3793714Y-16768071D01*
X3793714Y-16925214D01*
X3793714Y-16768071D02*
X3808000Y-16739500D01*
X3836571Y-16725214D01*
X3879428Y-16725214D01*
X3908000Y-16739500D01*
X3922286Y-16768071D01*
X3922286Y-16925214D01*
X4065143Y-16925214D02*
X4065143Y-16725214D01*
X4065143Y-16753786D02*
X4079428Y-16739500D01*
X4108000Y-16725214D01*
X4150857Y-16725214D01*
X4179428Y-16739500D01*
X4193714Y-16768071D01*
X4193714Y-16925214D01*
X4193714Y-16768071D02*
X4208000Y-16739500D01*
X4236571Y-16725214D01*
X4279428Y-16725214D01*
X4308000Y-16739500D01*
X4322286Y-16768071D01*
X4322286Y-16925214D01*
X4908000Y-16610929D02*
X4650857Y-16996643D01*
X5293714Y-16625214D02*
X5322286Y-16625214D01*
X5350857Y-16639500D01*
X5365143Y-16653786D01*
X5379428Y-16682357D01*
X5393714Y-16739500D01*
X5393714Y-16810929D01*
X5379428Y-16868072D01*
X5365143Y-16896643D01*
X5350857Y-16910929D01*
X5322286Y-16925214D01*
X5293714Y-16925214D01*
X5265143Y-16910929D01*
X5250857Y-16896643D01*
X5236571Y-16868072D01*
X5222286Y-16810929D01*
X5222286Y-16739500D01*
X5236571Y-16682357D01*
X5250857Y-16653786D01*
X5265143Y-16639500D01*
X5293714Y-16625214D01*
X5522286Y-16896643D02*
X5536571Y-16910929D01*
X5522286Y-16925214D01*
X5508000Y-16910929D01*
X5522286Y-16896643D01*
X5522286Y-16925214D01*
X5822286Y-16925214D02*
X5650857Y-16925214D01*
X5736571Y-16925214D02*
X5736571Y-16625214D01*
X5708000Y-16668071D01*
X5679428Y-16696643D01*
X5650857Y-16710929D01*
X5936571Y-16653786D02*
X5950857Y-16639500D01*
X5979428Y-16625214D01*
X6050857Y-16625214D01*
X6079428Y-16639500D01*
X6093714Y-16653786D01*
X6108000Y-16682357D01*
X6108000Y-16710929D01*
X6093714Y-16753786D01*
X5922286Y-16925214D01*
X6108000Y-16925214D01*
X6293714Y-16625214D02*
X6322286Y-16625214D01*
X6350857Y-16639500D01*
X6365143Y-16653786D01*
X6379428Y-16682357D01*
X6393714Y-16739500D01*
X6393714Y-16810929D01*
X6379428Y-16868072D01*
X6365143Y-16896643D01*
X6350857Y-16910929D01*
X6322286Y-16925214D01*
X6293714Y-16925214D01*
X6265143Y-16910929D01*
X6250857Y-16896643D01*
X6236571Y-16868072D01*
X6222286Y-16810929D01*
X6222286Y-16739500D01*
X6236571Y-16682357D01*
X6250857Y-16653786D01*
X6265143Y-16639500D01*
X6293714Y-16625214D01*
X6579428Y-16625214D02*
X6608000Y-16625214D01*
X6636571Y-16639500D01*
X6650857Y-16653786D01*
X6665143Y-16682357D01*
X6679428Y-16739500D01*
X6679428Y-16810929D01*
X6665143Y-16868072D01*
X6650857Y-16896643D01*
X6636571Y-16910929D01*
X6608000Y-16925214D01*
X6579428Y-16925214D01*
X6550857Y-16910929D01*
X6536571Y-16896643D01*
X6522286Y-16868072D01*
X6508000Y-16810929D01*
X6508000Y-16739500D01*
X6522286Y-16682357D01*
X6536571Y-16653786D01*
X6550857Y-16639500D01*
X6579428Y-16625214D01*
X6793714Y-16625214D02*
X6793714Y-16682357D01*
X6908000Y-16625214D02*
X6908000Y-16682357D01*
X7350857Y-17039500D02*
X7336571Y-17025214D01*
X7308000Y-16982357D01*
X7293714Y-16953786D01*
X7279428Y-16910929D01*
X7265143Y-16839500D01*
X7265143Y-16782357D01*
X7279428Y-16710929D01*
X7293714Y-16668071D01*
X7308000Y-16639500D01*
X7336571Y-16596643D01*
X7350857Y-16582357D01*
X7450857Y-16653786D02*
X7465143Y-16639500D01*
X7493714Y-16625214D01*
X7565143Y-16625214D01*
X7593714Y-16639500D01*
X7608000Y-16653786D01*
X7622286Y-16682357D01*
X7622286Y-16710929D01*
X7608000Y-16753786D01*
X7436571Y-16925214D01*
X7622286Y-16925214D01*
X7979428Y-16925214D02*
X7979428Y-16625214D01*
X8108000Y-16925214D02*
X8108000Y-16768071D01*
X8093714Y-16739500D01*
X8065143Y-16725214D01*
X8022286Y-16725214D01*
X7993714Y-16739500D01*
X7979428Y-16753786D01*
X8293714Y-16925214D02*
X8265143Y-16910929D01*
X8250857Y-16896643D01*
X8236571Y-16868072D01*
X8236571Y-16782357D01*
X8250857Y-16753786D01*
X8265143Y-16739500D01*
X8293714Y-16725214D01*
X8336571Y-16725214D01*
X8365143Y-16739500D01*
X8379428Y-16753786D01*
X8393714Y-16782357D01*
X8393714Y-16868072D01*
X8379428Y-16896643D01*
X8365143Y-16910929D01*
X8336571Y-16925214D01*
X8293714Y-16925214D01*
X8565143Y-16925214D02*
X8536571Y-16910929D01*
X8522286Y-16882357D01*
X8522286Y-16625214D01*
X8793714Y-16910929D02*
X8765143Y-16925214D01*
X8708000Y-16925214D01*
X8679428Y-16910929D01*
X8665143Y-16882357D01*
X8665143Y-16768071D01*
X8679428Y-16739500D01*
X8708000Y-16725214D01*
X8765143Y-16725214D01*
X8793714Y-16739500D01*
X8808000Y-16768071D01*
X8808000Y-16796643D01*
X8665143Y-16825214D01*
X8922286Y-16910929D02*
X8950857Y-16925214D01*
X9008000Y-16925214D01*
X9036571Y-16910929D01*
X9050857Y-16882357D01*
X9050857Y-16868072D01*
X9036571Y-16839500D01*
X9008000Y-16825214D01*
X8965143Y-16825214D01*
X8936571Y-16810929D01*
X8922286Y-16782357D01*
X8922286Y-16768071D01*
X8936571Y-16739500D01*
X8965143Y-16725214D01*
X9008000Y-16725214D01*
X9036571Y-16739500D01*
X9150857Y-17039500D02*
X9165143Y-17025214D01*
X9193714Y-16982357D01*
X9208000Y-16953786D01*
X9222286Y-16910929D01*
X9236571Y-16839500D01*
X9236571Y-16782357D01*
X9222286Y-16710929D01*
X9208000Y-16668071D01*
X9193714Y-16639500D01*
X9165143Y-16596643D01*
X9150857Y-16582357D01*
X9693714Y-17039500D02*
X9679428Y-17025214D01*
X9650857Y-16982357D01*
X9636571Y-16953786D01*
X9622286Y-16910929D01*
X9608000Y-16839500D01*
X9608000Y-16782357D01*
X9622286Y-16710929D01*
X9636571Y-16668071D01*
X9650857Y-16639500D01*
X9679428Y-16596643D01*
X9693714Y-16582357D01*
X9808000Y-16725214D02*
X9808000Y-16925214D01*
X9808000Y-16753786D02*
X9822286Y-16739500D01*
X9850857Y-16725214D01*
X9893714Y-16725214D01*
X9922286Y-16739500D01*
X9936571Y-16768071D01*
X9936571Y-16925214D01*
X10122286Y-16925214D02*
X10093714Y-16910929D01*
X10079428Y-16896643D01*
X10065143Y-16868072D01*
X10065143Y-16782357D01*
X10079428Y-16753786D01*
X10093714Y-16739500D01*
X10122286Y-16725214D01*
X10165143Y-16725214D01*
X10193714Y-16739500D01*
X10208000Y-16753786D01*
X10222286Y-16782357D01*
X10222286Y-16868072D01*
X10208000Y-16896643D01*
X10193714Y-16910929D01*
X10165143Y-16925214D01*
X10122286Y-16925214D01*
X10308000Y-16725214D02*
X10422286Y-16725214D01*
X10350857Y-16625214D02*
X10350857Y-16882357D01*
X10365143Y-16910929D01*
X10393714Y-16925214D01*
X10422286Y-16925214D01*
X10750857Y-16725214D02*
X10750857Y-17025214D01*
X10750857Y-16739500D02*
X10779428Y-16725214D01*
X10836571Y-16725214D01*
X10865143Y-16739500D01*
X10879428Y-16753786D01*
X10893714Y-16782357D01*
X10893714Y-16868072D01*
X10879428Y-16896643D01*
X10865143Y-16910929D01*
X10836571Y-16925214D01*
X10779428Y-16925214D01*
X10750857Y-16910929D01*
X11065143Y-16925214D02*
X11036571Y-16910929D01*
X11022286Y-16882357D01*
X11022286Y-16625214D01*
X11308000Y-16925214D02*
X11308000Y-16768071D01*
X11293714Y-16739500D01*
X11265143Y-16725214D01*
X11208000Y-16725214D01*
X11179428Y-16739500D01*
X11308000Y-16910929D02*
X11279428Y-16925214D01*
X11208000Y-16925214D01*
X11179428Y-16910929D01*
X11165143Y-16882357D01*
X11165143Y-16853786D01*
X11179428Y-16825214D01*
X11208000Y-16810929D01*
X11279428Y-16810929D01*
X11308000Y-16796643D01*
X11408000Y-16725214D02*
X11522286Y-16725214D01*
X11450857Y-16625214D02*
X11450857Y-16882357D01*
X11465143Y-16910929D01*
X11493714Y-16925214D01*
X11522286Y-16925214D01*
X11736571Y-16910929D02*
X11708000Y-16925214D01*
X11650857Y-16925214D01*
X11622286Y-16910929D01*
X11608000Y-16882357D01*
X11608000Y-16768071D01*
X11622286Y-16739500D01*
X11650857Y-16725214D01*
X11708000Y-16725214D01*
X11736571Y-16739500D01*
X11750857Y-16768071D01*
X11750857Y-16796643D01*
X11608000Y-16825214D01*
X12008000Y-16925214D02*
X12008000Y-16625214D01*
X12008000Y-16910929D02*
X11979428Y-16925214D01*
X11922286Y-16925214D01*
X11893714Y-16910929D01*
X11879428Y-16896643D01*
X11865143Y-16868072D01*
X11865143Y-16782357D01*
X11879428Y-16753786D01*
X11893714Y-16739500D01*
X11922286Y-16725214D01*
X11979428Y-16725214D01*
X12008000Y-16739500D01*
X12122286Y-17039500D02*
X12136571Y-17025214D01*
X12165143Y-16982357D01*
X12179428Y-16953786D01*
X12193714Y-16910929D01*
X12208000Y-16839500D01*
X12208000Y-16782357D01*
X12193714Y-16710929D01*
X12179428Y-16668071D01*
X12165143Y-16639500D01*
X12136571Y-16596643D01*
X12122286Y-16582357D01*
X1893610Y-17423690D02*
X2093000Y-17224300D01*
X1893610Y-17024910D01*
X1694220Y-17224300D01*
X1893610Y-17423690D01*
X2350857Y-17060014D02*
X2536571Y-17060014D01*
X2436571Y-17174300D01*
X2479428Y-17174300D01*
X2508000Y-17188586D01*
X2522286Y-17202872D01*
X2536571Y-17231443D01*
X2536571Y-17302872D01*
X2522286Y-17331443D01*
X2508000Y-17345729D01*
X2479428Y-17360014D01*
X2393714Y-17360014D01*
X2365143Y-17345729D01*
X2350857Y-17331443D01*
X2665143Y-17331443D02*
X2679428Y-17345729D01*
X2665143Y-17360014D01*
X2650857Y-17345729D01*
X2665143Y-17331443D01*
X2665143Y-17360014D01*
X2822286Y-17360014D02*
X2879428Y-17360014D01*
X2908000Y-17345729D01*
X2922286Y-17331443D01*
X2950857Y-17288586D01*
X2965143Y-17231443D01*
X2965143Y-17117157D01*
X2950857Y-17088586D01*
X2936571Y-17074300D01*
X2908000Y-17060014D01*
X2850857Y-17060014D01*
X2822286Y-17074300D01*
X2808000Y-17088586D01*
X2793714Y-17117157D01*
X2793714Y-17188586D01*
X2808000Y-17217157D01*
X2822286Y-17231443D01*
X2850857Y-17245729D01*
X2908000Y-17245729D01*
X2936571Y-17231443D01*
X2950857Y-17217157D01*
X2965143Y-17188586D01*
X3136571Y-17188586D02*
X3108000Y-17174300D01*
X3093714Y-17160014D01*
X3079428Y-17131443D01*
X3079428Y-17117157D01*
X3093714Y-17088586D01*
X3108000Y-17074300D01*
X3136571Y-17060014D01*
X3193714Y-17060014D01*
X3222286Y-17074300D01*
X3236571Y-17088586D01*
X3250857Y-17117157D01*
X3250857Y-17131443D01*
X3236571Y-17160014D01*
X3222286Y-17174300D01*
X3193714Y-17188586D01*
X3136571Y-17188586D01*
X3108000Y-17202872D01*
X3093714Y-17217157D01*
X3079428Y-17245729D01*
X3079428Y-17302872D01*
X3093714Y-17331443D01*
X3108000Y-17345729D01*
X3136571Y-17360014D01*
X3193714Y-17360014D01*
X3222286Y-17345729D01*
X3236571Y-17331443D01*
X3250857Y-17302872D01*
X3250857Y-17245729D01*
X3236571Y-17217157D01*
X3222286Y-17202872D01*
X3193714Y-17188586D01*
X3422286Y-17188586D02*
X3393714Y-17174300D01*
X3379428Y-17160014D01*
X3365143Y-17131443D01*
X3365143Y-17117157D01*
X3379428Y-17088586D01*
X3393714Y-17074300D01*
X3422286Y-17060014D01*
X3479428Y-17060014D01*
X3508000Y-17074300D01*
X3522286Y-17088586D01*
X3536571Y-17117157D01*
X3536571Y-17131443D01*
X3522286Y-17160014D01*
X3508000Y-17174300D01*
X3479428Y-17188586D01*
X3422286Y-17188586D01*
X3393714Y-17202872D01*
X3379428Y-17217157D01*
X3365143Y-17245729D01*
X3365143Y-17302872D01*
X3379428Y-17331443D01*
X3393714Y-17345729D01*
X3422286Y-17360014D01*
X3479428Y-17360014D01*
X3508000Y-17345729D01*
X3522286Y-17331443D01*
X3536571Y-17302872D01*
X3536571Y-17245729D01*
X3522286Y-17217157D01*
X3508000Y-17202872D01*
X3479428Y-17188586D01*
X3665143Y-17360014D02*
X3665143Y-17160014D01*
X3665143Y-17188586D02*
X3679428Y-17174300D01*
X3708000Y-17160014D01*
X3750857Y-17160014D01*
X3779428Y-17174300D01*
X3793714Y-17202872D01*
X3793714Y-17360014D01*
X3793714Y-17202872D02*
X3808000Y-17174300D01*
X3836571Y-17160014D01*
X3879428Y-17160014D01*
X3908000Y-17174300D01*
X3922286Y-17202872D01*
X3922286Y-17360014D01*
X4065143Y-17360014D02*
X4065143Y-17160014D01*
X4065143Y-17188586D02*
X4079428Y-17174300D01*
X4108000Y-17160014D01*
X4150857Y-17160014D01*
X4179428Y-17174300D01*
X4193714Y-17202872D01*
X4193714Y-17360014D01*
X4193714Y-17202872D02*
X4208000Y-17174300D01*
X4236571Y-17160014D01*
X4279428Y-17160014D01*
X4308000Y-17174300D01*
X4322286Y-17202872D01*
X4322286Y-17360014D01*
X4908000Y-17045729D02*
X4650857Y-17431443D01*
X5293714Y-17060014D02*
X5322286Y-17060014D01*
X5350857Y-17074300D01*
X5365143Y-17088586D01*
X5379428Y-17117157D01*
X5393714Y-17174300D01*
X5393714Y-17245729D01*
X5379428Y-17302872D01*
X5365143Y-17331443D01*
X5350857Y-17345729D01*
X5322286Y-17360014D01*
X5293714Y-17360014D01*
X5265143Y-17345729D01*
X5250857Y-17331443D01*
X5236571Y-17302872D01*
X5222286Y-17245729D01*
X5222286Y-17174300D01*
X5236571Y-17117157D01*
X5250857Y-17088586D01*
X5265143Y-17074300D01*
X5293714Y-17060014D01*
X5522286Y-17331443D02*
X5536571Y-17345729D01*
X5522286Y-17360014D01*
X5508000Y-17345729D01*
X5522286Y-17331443D01*
X5522286Y-17360014D01*
X5822286Y-17360014D02*
X5650857Y-17360014D01*
X5736571Y-17360014D02*
X5736571Y-17060014D01*
X5708000Y-17102872D01*
X5679428Y-17131443D01*
X5650857Y-17145729D01*
X6093714Y-17060014D02*
X5950857Y-17060014D01*
X5936571Y-17202872D01*
X5950857Y-17188586D01*
X5979428Y-17174300D01*
X6050857Y-17174300D01*
X6079428Y-17188586D01*
X6093714Y-17202872D01*
X6108000Y-17231443D01*
X6108000Y-17302872D01*
X6093714Y-17331443D01*
X6079428Y-17345729D01*
X6050857Y-17360014D01*
X5979428Y-17360014D01*
X5950857Y-17345729D01*
X5936571Y-17331443D01*
X6208000Y-17060014D02*
X6408000Y-17060014D01*
X6279428Y-17360014D01*
X6579428Y-17060014D02*
X6608000Y-17060014D01*
X6636571Y-17074300D01*
X6650857Y-17088586D01*
X6665143Y-17117157D01*
X6679428Y-17174300D01*
X6679428Y-17245729D01*
X6665143Y-17302872D01*
X6650857Y-17331443D01*
X6636571Y-17345729D01*
X6608000Y-17360014D01*
X6579428Y-17360014D01*
X6550857Y-17345729D01*
X6536571Y-17331443D01*
X6522286Y-17302872D01*
X6508000Y-17245729D01*
X6508000Y-17174300D01*
X6522286Y-17117157D01*
X6536571Y-17088586D01*
X6550857Y-17074300D01*
X6579428Y-17060014D01*
X6793714Y-17060014D02*
X6793714Y-17117157D01*
X6908000Y-17060014D02*
X6908000Y-17117157D01*
X7350857Y-17474300D02*
X7336571Y-17460014D01*
X7308000Y-17417157D01*
X7293714Y-17388586D01*
X7279428Y-17345729D01*
X7265143Y-17274300D01*
X7265143Y-17217157D01*
X7279428Y-17145729D01*
X7293714Y-17102872D01*
X7308000Y-17074300D01*
X7336571Y-17031443D01*
X7350857Y-17017157D01*
X7608000Y-17060014D02*
X7465143Y-17060014D01*
X7450857Y-17202872D01*
X7465143Y-17188586D01*
X7493714Y-17174300D01*
X7565143Y-17174300D01*
X7593714Y-17188586D01*
X7608000Y-17202872D01*
X7622286Y-17231443D01*
X7622286Y-17302872D01*
X7608000Y-17331443D01*
X7593714Y-17345729D01*
X7565143Y-17360014D01*
X7493714Y-17360014D01*
X7465143Y-17345729D01*
X7450857Y-17331443D01*
X7722286Y-17060014D02*
X7922286Y-17060014D01*
X7793714Y-17360014D01*
X8265143Y-17360014D02*
X8265143Y-17060014D01*
X8393714Y-17360014D02*
X8393714Y-17202872D01*
X8379428Y-17174300D01*
X8350857Y-17160014D01*
X8308000Y-17160014D01*
X8279428Y-17174300D01*
X8265143Y-17188586D01*
X8579428Y-17360014D02*
X8550857Y-17345729D01*
X8536571Y-17331443D01*
X8522286Y-17302872D01*
X8522286Y-17217157D01*
X8536571Y-17188586D01*
X8550857Y-17174300D01*
X8579428Y-17160014D01*
X8622286Y-17160014D01*
X8650857Y-17174300D01*
X8665143Y-17188586D01*
X8679428Y-17217157D01*
X8679428Y-17302872D01*
X8665143Y-17331443D01*
X8650857Y-17345729D01*
X8622286Y-17360014D01*
X8579428Y-17360014D01*
X8850857Y-17360014D02*
X8822286Y-17345729D01*
X8808000Y-17317157D01*
X8808000Y-17060014D01*
X9079428Y-17345729D02*
X9050857Y-17360014D01*
X8993714Y-17360014D01*
X8965143Y-17345729D01*
X8950857Y-17317157D01*
X8950857Y-17202872D01*
X8965143Y-17174300D01*
X8993714Y-17160014D01*
X9050857Y-17160014D01*
X9079428Y-17174300D01*
X9093714Y-17202872D01*
X9093714Y-17231443D01*
X8950857Y-17260014D01*
X9208000Y-17345729D02*
X9236571Y-17360014D01*
X9293714Y-17360014D01*
X9322286Y-17345729D01*
X9336571Y-17317157D01*
X9336571Y-17302872D01*
X9322286Y-17274300D01*
X9293714Y-17260014D01*
X9250857Y-17260014D01*
X9222286Y-17245729D01*
X9208000Y-17217157D01*
X9208000Y-17202872D01*
X9222286Y-17174300D01*
X9250857Y-17160014D01*
X9293714Y-17160014D01*
X9322286Y-17174300D01*
X9436571Y-17474300D02*
X9450857Y-17460014D01*
X9479428Y-17417157D01*
X9493714Y-17388586D01*
X9508000Y-17345729D01*
X9522286Y-17274300D01*
X9522286Y-17217157D01*
X9508000Y-17145729D01*
X9493714Y-17102872D01*
X9479428Y-17074300D01*
X9450857Y-17031443D01*
X9436571Y-17017157D01*
X9979428Y-17474300D02*
X9965143Y-17460014D01*
X9936571Y-17417157D01*
X9922286Y-17388586D01*
X9908000Y-17345729D01*
X9893714Y-17274300D01*
X9893714Y-17217157D01*
X9908000Y-17145729D01*
X9922286Y-17102872D01*
X9936571Y-17074300D01*
X9965143Y-17031443D01*
X9979428Y-17017157D01*
X10093714Y-17160014D02*
X10093714Y-17360014D01*
X10093714Y-17188586D02*
X10108000Y-17174300D01*
X10136571Y-17160014D01*
X10179428Y-17160014D01*
X10208000Y-17174300D01*
X10222286Y-17202872D01*
X10222286Y-17360014D01*
X10408000Y-17360014D02*
X10379428Y-17345729D01*
X10365143Y-17331443D01*
X10350857Y-17302872D01*
X10350857Y-17217157D01*
X10365143Y-17188586D01*
X10379428Y-17174300D01*
X10408000Y-17160014D01*
X10450857Y-17160014D01*
X10479428Y-17174300D01*
X10493714Y-17188586D01*
X10508000Y-17217157D01*
X10508000Y-17302872D01*
X10493714Y-17331443D01*
X10479428Y-17345729D01*
X10450857Y-17360014D01*
X10408000Y-17360014D01*
X10593714Y-17160014D02*
X10708000Y-17160014D01*
X10636571Y-17060014D02*
X10636571Y-17317157D01*
X10650857Y-17345729D01*
X10679428Y-17360014D01*
X10708000Y-17360014D01*
X11036571Y-17160014D02*
X11036571Y-17460014D01*
X11036571Y-17174300D02*
X11065143Y-17160014D01*
X11122286Y-17160014D01*
X11150857Y-17174300D01*
X11165143Y-17188586D01*
X11179428Y-17217157D01*
X11179428Y-17302872D01*
X11165143Y-17331443D01*
X11150857Y-17345729D01*
X11122286Y-17360014D01*
X11065143Y-17360014D01*
X11036571Y-17345729D01*
X11350857Y-17360014D02*
X11322286Y-17345729D01*
X11308000Y-17317157D01*
X11308000Y-17060014D01*
X11593714Y-17360014D02*
X11593714Y-17202872D01*
X11579428Y-17174300D01*
X11550857Y-17160014D01*
X11493714Y-17160014D01*
X11465143Y-17174300D01*
X11593714Y-17345729D02*
X11565143Y-17360014D01*
X11493714Y-17360014D01*
X11465143Y-17345729D01*
X11450857Y-17317157D01*
X11450857Y-17288586D01*
X11465143Y-17260014D01*
X11493714Y-17245729D01*
X11565143Y-17245729D01*
X11593714Y-17231443D01*
X11693714Y-17160014D02*
X11808000Y-17160014D01*
X11736571Y-17060014D02*
X11736571Y-17317157D01*
X11750857Y-17345729D01*
X11779428Y-17360014D01*
X11808000Y-17360014D01*
X12022286Y-17345729D02*
X11993714Y-17360014D01*
X11936571Y-17360014D01*
X11908000Y-17345729D01*
X11893714Y-17317157D01*
X11893714Y-17202872D01*
X11908000Y-17174300D01*
X11936571Y-17160014D01*
X11993714Y-17160014D01*
X12022286Y-17174300D01*
X12036571Y-17202872D01*
X12036571Y-17231443D01*
X11893714Y-17260014D01*
X12293714Y-17360014D02*
X12293714Y-17060014D01*
X12293714Y-17345729D02*
X12265143Y-17360014D01*
X12208000Y-17360014D01*
X12179428Y-17345729D01*
X12165143Y-17331443D01*
X12150857Y-17302872D01*
X12150857Y-17217157D01*
X12165143Y-17188586D01*
X12179428Y-17174300D01*
X12208000Y-17160014D01*
X12265143Y-17160014D01*
X12293714Y-17174300D01*
X12408000Y-17474300D02*
X12422286Y-17460014D01*
X12450857Y-17417157D01*
X12465143Y-17388586D01*
X12479428Y-17345729D01*
X12493714Y-17274300D01*
X12493714Y-17217157D01*
X12479428Y-17145729D01*
X12465143Y-17102872D01*
X12450857Y-17074300D01*
X12422286Y-17031443D01*
X12408000Y-17017157D01*
X1683000Y-17548080D02*
X2093000Y-17958080D01*
X2093000Y-17548080D02*
X1683000Y-17958080D01*
X2093000Y-17753080D02*
G75*
G03*
X2093000Y-17753080I-205000J0D01*
G01*
X2508000Y-17688794D02*
X2508000Y-17888794D01*
X2436571Y-17574509D02*
X2365143Y-17788794D01*
X2550857Y-17788794D01*
X2665143Y-17860223D02*
X2679428Y-17874509D01*
X2665143Y-17888794D01*
X2650857Y-17874509D01*
X2665143Y-17860223D01*
X2665143Y-17888794D01*
X2965143Y-17888794D02*
X2793714Y-17888794D01*
X2879428Y-17888794D02*
X2879428Y-17588794D01*
X2850857Y-17631652D01*
X2822286Y-17660223D01*
X2793714Y-17674509D01*
X3150857Y-17588794D02*
X3179428Y-17588794D01*
X3208000Y-17603080D01*
X3222286Y-17617366D01*
X3236571Y-17645937D01*
X3250857Y-17703080D01*
X3250857Y-17774509D01*
X3236571Y-17831652D01*
X3222286Y-17860223D01*
X3208000Y-17874509D01*
X3179428Y-17888794D01*
X3150857Y-17888794D01*
X3122286Y-17874509D01*
X3108000Y-17860223D01*
X3093714Y-17831652D01*
X3079428Y-17774509D01*
X3079428Y-17703080D01*
X3093714Y-17645937D01*
X3108000Y-17617366D01*
X3122286Y-17603080D01*
X3150857Y-17588794D01*
X3436571Y-17588794D02*
X3465143Y-17588794D01*
X3493714Y-17603080D01*
X3508000Y-17617366D01*
X3522286Y-17645937D01*
X3536571Y-17703080D01*
X3536571Y-17774509D01*
X3522286Y-17831652D01*
X3508000Y-17860223D01*
X3493714Y-17874509D01*
X3465143Y-17888794D01*
X3436571Y-17888794D01*
X3408000Y-17874509D01*
X3393714Y-17860223D01*
X3379428Y-17831652D01*
X3365143Y-17774509D01*
X3365143Y-17703080D01*
X3379428Y-17645937D01*
X3393714Y-17617366D01*
X3408000Y-17603080D01*
X3436571Y-17588794D01*
X3665143Y-17888794D02*
X3665143Y-17688794D01*
X3665143Y-17717366D02*
X3679428Y-17703080D01*
X3708000Y-17688794D01*
X3750857Y-17688794D01*
X3779428Y-17703080D01*
X3793714Y-17731652D01*
X3793714Y-17888794D01*
X3793714Y-17731652D02*
X3808000Y-17703080D01*
X3836571Y-17688794D01*
X3879428Y-17688794D01*
X3908000Y-17703080D01*
X3922286Y-17731652D01*
X3922286Y-17888794D01*
X4065143Y-17888794D02*
X4065143Y-17688794D01*
X4065143Y-17717366D02*
X4079428Y-17703080D01*
X4108000Y-17688794D01*
X4150857Y-17688794D01*
X4179428Y-17703080D01*
X4193714Y-17731652D01*
X4193714Y-17888794D01*
X4193714Y-17731652D02*
X4208000Y-17703080D01*
X4236571Y-17688794D01*
X4279428Y-17688794D01*
X4308000Y-17703080D01*
X4322286Y-17731652D01*
X4322286Y-17888794D01*
X4908000Y-17574509D02*
X4650857Y-17960223D01*
X5293714Y-17588794D02*
X5322286Y-17588794D01*
X5350857Y-17603080D01*
X5365143Y-17617366D01*
X5379428Y-17645937D01*
X5393714Y-17703080D01*
X5393714Y-17774509D01*
X5379428Y-17831652D01*
X5365143Y-17860223D01*
X5350857Y-17874509D01*
X5322286Y-17888794D01*
X5293714Y-17888794D01*
X5265143Y-17874509D01*
X5250857Y-17860223D01*
X5236571Y-17831652D01*
X5222286Y-17774509D01*
X5222286Y-17703080D01*
X5236571Y-17645937D01*
X5250857Y-17617366D01*
X5265143Y-17603080D01*
X5293714Y-17588794D01*
X5522286Y-17860223D02*
X5536571Y-17874509D01*
X5522286Y-17888794D01*
X5508000Y-17874509D01*
X5522286Y-17860223D01*
X5522286Y-17888794D01*
X5822286Y-17888794D02*
X5650857Y-17888794D01*
X5736571Y-17888794D02*
X5736571Y-17588794D01*
X5708000Y-17631652D01*
X5679428Y-17660223D01*
X5650857Y-17674509D01*
X6079428Y-17588794D02*
X6022286Y-17588794D01*
X5993714Y-17603080D01*
X5979428Y-17617366D01*
X5950857Y-17660223D01*
X5936571Y-17717366D01*
X5936571Y-17831652D01*
X5950857Y-17860223D01*
X5965143Y-17874509D01*
X5993714Y-17888794D01*
X6050857Y-17888794D01*
X6079428Y-17874509D01*
X6093714Y-17860223D01*
X6108000Y-17831652D01*
X6108000Y-17760223D01*
X6093714Y-17731652D01*
X6079428Y-17717366D01*
X6050857Y-17703080D01*
X5993714Y-17703080D01*
X5965143Y-17717366D01*
X5950857Y-17731652D01*
X5936571Y-17760223D01*
X6393714Y-17888794D02*
X6222286Y-17888794D01*
X6308000Y-17888794D02*
X6308000Y-17588794D01*
X6279428Y-17631652D01*
X6250857Y-17660223D01*
X6222286Y-17674509D01*
X6650857Y-17688794D02*
X6650857Y-17888794D01*
X6579428Y-17574509D02*
X6508000Y-17788794D01*
X6693714Y-17788794D01*
X6793714Y-17588794D02*
X6793714Y-17645937D01*
X6908000Y-17588794D02*
X6908000Y-17645937D01*
X7350857Y-18003080D02*
X7336571Y-17988794D01*
X7308000Y-17945937D01*
X7293714Y-17917366D01*
X7279428Y-17874509D01*
X7265143Y-17803080D01*
X7265143Y-17745937D01*
X7279428Y-17674509D01*
X7293714Y-17631652D01*
X7308000Y-17603080D01*
X7336571Y-17560223D01*
X7350857Y-17545937D01*
X7622286Y-17888794D02*
X7450857Y-17888794D01*
X7536571Y-17888794D02*
X7536571Y-17588794D01*
X7508000Y-17631652D01*
X7479428Y-17660223D01*
X7450857Y-17674509D01*
X7908000Y-17888794D02*
X7736571Y-17888794D01*
X7822286Y-17888794D02*
X7822286Y-17588794D01*
X7793714Y-17631652D01*
X7765143Y-17660223D01*
X7736571Y-17674509D01*
X8265143Y-17888794D02*
X8265143Y-17588794D01*
X8393714Y-17888794D02*
X8393714Y-17731652D01*
X8379428Y-17703080D01*
X8350857Y-17688794D01*
X8308000Y-17688794D01*
X8279428Y-17703080D01*
X8265143Y-17717366D01*
X8579428Y-17888794D02*
X8550857Y-17874509D01*
X8536571Y-17860223D01*
X8522286Y-17831652D01*
X8522286Y-17745937D01*
X8536571Y-17717366D01*
X8550857Y-17703080D01*
X8579428Y-17688794D01*
X8622286Y-17688794D01*
X8650857Y-17703080D01*
X8665143Y-17717366D01*
X8679428Y-17745937D01*
X8679428Y-17831652D01*
X8665143Y-17860223D01*
X8650857Y-17874509D01*
X8622286Y-17888794D01*
X8579428Y-17888794D01*
X8850857Y-17888794D02*
X8822286Y-17874509D01*
X8808000Y-17845937D01*
X8808000Y-17588794D01*
X9079428Y-17874509D02*
X9050857Y-17888794D01*
X8993714Y-17888794D01*
X8965143Y-17874509D01*
X8950857Y-17845937D01*
X8950857Y-17731652D01*
X8965143Y-17703080D01*
X8993714Y-17688794D01*
X9050857Y-17688794D01*
X9079428Y-17703080D01*
X9093714Y-17731652D01*
X9093714Y-17760223D01*
X8950857Y-17788794D01*
X9208000Y-17874509D02*
X9236571Y-17888794D01*
X9293714Y-17888794D01*
X9322286Y-17874509D01*
X9336571Y-17845937D01*
X9336571Y-17831652D01*
X9322286Y-17803080D01*
X9293714Y-17788794D01*
X9250857Y-17788794D01*
X9222286Y-17774509D01*
X9208000Y-17745937D01*
X9208000Y-17731652D01*
X9222286Y-17703080D01*
X9250857Y-17688794D01*
X9293714Y-17688794D01*
X9322286Y-17703080D01*
X9436571Y-18003080D02*
X9450857Y-17988794D01*
X9479428Y-17945937D01*
X9493714Y-17917366D01*
X9508000Y-17874509D01*
X9522286Y-17803080D01*
X9522286Y-17745937D01*
X9508000Y-17674509D01*
X9493714Y-17631652D01*
X9479428Y-17603080D01*
X9450857Y-17560223D01*
X9436571Y-17545937D01*
X9979428Y-18003080D02*
X9965143Y-17988794D01*
X9936571Y-17945937D01*
X9922286Y-17917366D01*
X9908000Y-17874509D01*
X9893714Y-17803080D01*
X9893714Y-17745937D01*
X9908000Y-17674509D01*
X9922286Y-17631652D01*
X9936571Y-17603080D01*
X9965143Y-17560223D01*
X9979428Y-17545937D01*
X10093714Y-17688794D02*
X10093714Y-17888794D01*
X10093714Y-17717366D02*
X10108000Y-17703080D01*
X10136571Y-17688794D01*
X10179428Y-17688794D01*
X10208000Y-17703080D01*
X10222286Y-17731652D01*
X10222286Y-17888794D01*
X10408000Y-17888794D02*
X10379428Y-17874509D01*
X10365143Y-17860223D01*
X10350857Y-17831652D01*
X10350857Y-17745937D01*
X10365143Y-17717366D01*
X10379428Y-17703080D01*
X10408000Y-17688794D01*
X10450857Y-17688794D01*
X10479428Y-17703080D01*
X10493714Y-17717366D01*
X10508000Y-17745937D01*
X10508000Y-17831652D01*
X10493714Y-17860223D01*
X10479428Y-17874509D01*
X10450857Y-17888794D01*
X10408000Y-17888794D01*
X10593714Y-17688794D02*
X10708000Y-17688794D01*
X10636571Y-17588794D02*
X10636571Y-17845937D01*
X10650857Y-17874509D01*
X10679428Y-17888794D01*
X10708000Y-17888794D01*
X11036571Y-17688794D02*
X11036571Y-17988794D01*
X11036571Y-17703080D02*
X11065143Y-17688794D01*
X11122286Y-17688794D01*
X11150857Y-17703080D01*
X11165143Y-17717366D01*
X11179428Y-17745937D01*
X11179428Y-17831652D01*
X11165143Y-17860223D01*
X11150857Y-17874509D01*
X11122286Y-17888794D01*
X11065143Y-17888794D01*
X11036571Y-17874509D01*
X11350857Y-17888794D02*
X11322286Y-17874509D01*
X11308000Y-17845937D01*
X11308000Y-17588794D01*
X11593714Y-17888794D02*
X11593714Y-17731652D01*
X11579428Y-17703080D01*
X11550857Y-17688794D01*
X11493714Y-17688794D01*
X11465143Y-17703080D01*
X11593714Y-17874509D02*
X11565143Y-17888794D01*
X11493714Y-17888794D01*
X11465143Y-17874509D01*
X11450857Y-17845937D01*
X11450857Y-17817366D01*
X11465143Y-17788794D01*
X11493714Y-17774509D01*
X11565143Y-17774509D01*
X11593714Y-17760223D01*
X11693714Y-17688794D02*
X11808000Y-17688794D01*
X11736571Y-17588794D02*
X11736571Y-17845937D01*
X11750857Y-17874509D01*
X11779428Y-17888794D01*
X11808000Y-17888794D01*
X12022286Y-17874509D02*
X11993714Y-17888794D01*
X11936571Y-17888794D01*
X11908000Y-17874509D01*
X11893714Y-17845937D01*
X11893714Y-17731652D01*
X11908000Y-17703080D01*
X11936571Y-17688794D01*
X11993714Y-17688794D01*
X12022286Y-17703080D01*
X12036571Y-17731652D01*
X12036571Y-17760223D01*
X11893714Y-17788794D01*
X12293714Y-17888794D02*
X12293714Y-17588794D01*
X12293714Y-17874509D02*
X12265143Y-17888794D01*
X12208000Y-17888794D01*
X12179428Y-17874509D01*
X12165143Y-17860223D01*
X12150857Y-17831652D01*
X12150857Y-17745937D01*
X12165143Y-17717366D01*
X12179428Y-17703080D01*
X12208000Y-17688794D01*
X12265143Y-17688794D01*
X12293714Y-17703080D01*
X12408000Y-18003080D02*
X12422286Y-17988794D01*
X12450857Y-17945937D01*
X12465143Y-17917366D01*
X12479428Y-17874509D01*
X12493714Y-17803080D01*
X12493714Y-17745937D01*
X12479428Y-17674509D01*
X12465143Y-17631652D01*
X12450857Y-17603080D01*
X12422286Y-17560223D01*
X12408000Y-17545937D01*
M02*
