%FSLAX45Y45*%
G04 Gerber Fmt 4.5, Leading zero omitted, Abs format (unit mm)*
G04 Created by KiCad (PCBNEW (5.1.12)-1) date 2022-03-16 07:26:37*
%MOMM*%
%LPD*%
G01*
G04 APERTURE LIST*
%TA.AperFunction,Profile*%
%ADD10C,0.050000*%
%TD*%
%ADD11C,0.200000*%
%ADD12C,0.300000*%
G04 APERTURE END LIST*
D10*
X23241000Y-13081000D02*
X23368000Y-12954000D01*
X10287000Y-13589000D02*
X12446000Y-14605000D01*
X8445500Y-13081000D02*
X10287000Y-13589000D01*
X6540500Y-13081000D02*
X8445500Y-13081000D01*
X6413500Y-12954000D02*
X6540500Y-13081000D01*
X6413500Y-11303000D02*
X6413500Y-12954000D01*
X2159000Y-10541000D02*
X6413500Y-11303000D01*
X2095500Y-10414000D02*
X2159000Y-10541000D01*
X3429000Y-2921000D02*
X2095500Y-10414000D01*
X3556000Y-2857500D02*
X3429000Y-2921000D01*
X10922000Y-2984500D02*
X3556000Y-2857500D01*
X16649700Y-1955800D02*
X10922000Y-2984500D01*
X16998950Y-3930650D02*
X16649700Y-1955800D01*
X18415000Y-3683000D02*
X16998950Y-3930650D01*
X18605500Y-3429000D02*
X18415000Y-3683000D01*
X20510500Y-3111500D02*
X18605500Y-3429000D01*
X26225500Y-2857500D02*
X20510500Y-3111500D01*
X26352500Y-2921000D02*
X26225500Y-2857500D01*
X27686000Y-10414000D02*
X26352500Y-2921000D01*
X27622500Y-10541000D02*
X27686000Y-10414000D01*
X23368000Y-11303000D02*
X27622500Y-10541000D01*
X23368000Y-12954000D02*
X23368000Y-11303000D01*
X21336000Y-13081000D02*
X23241000Y-13081000D01*
X19494500Y-13589000D02*
X21336000Y-13081000D01*
X17399000Y-14605000D02*
X19494500Y-13589000D01*
X12446000Y-14605000D02*
X17399000Y-14605000D01*
D11*
X2831150Y-8419150D02*
X2871150Y-8459150D01*
X2871150Y-8419150D02*
X2831150Y-8459150D01*
X3656650Y-8812850D02*
X3696650Y-8852850D01*
X3696650Y-8812850D02*
X3656650Y-8852850D01*
X4145600Y-6577650D02*
X4185600Y-6617650D01*
X4185600Y-6577650D02*
X4145600Y-6617650D01*
X4247200Y-10222550D02*
X4287200Y-10262550D01*
X4287200Y-10222550D02*
X4247200Y-10262550D01*
X4348800Y-8101650D02*
X4388800Y-8141650D01*
X4388800Y-8101650D02*
X4348800Y-8141650D01*
X4634550Y-6298250D02*
X4674550Y-6338250D01*
X4674550Y-6298250D02*
X4634550Y-6338250D01*
X4831400Y-8298500D02*
X4871400Y-8338500D01*
X4871400Y-8298500D02*
X4831400Y-8338500D01*
X4844100Y-5783900D02*
X4884100Y-5823900D01*
X4884100Y-5783900D02*
X4844100Y-5823900D01*
X4882200Y-4501200D02*
X4922200Y-4541200D01*
X4922200Y-4501200D02*
X4882200Y-4541200D01*
X5053650Y-7111050D02*
X5093650Y-7151050D01*
X5093650Y-7111050D02*
X5053650Y-7151050D01*
X5263200Y-8762050D02*
X5303200Y-8802050D01*
X5303200Y-8762050D02*
X5263200Y-8802050D01*
X5580700Y-6818950D02*
X5620700Y-6858950D01*
X5620700Y-6818950D02*
X5580700Y-6858950D01*
X5707700Y-4501200D02*
X5747700Y-4541200D01*
X5747700Y-4501200D02*
X5707700Y-4541200D01*
X5929950Y-10228900D02*
X5969950Y-10268900D01*
X5969950Y-10228900D02*
X5929950Y-10268900D01*
X6533200Y-10235250D02*
X6573200Y-10275250D01*
X6573200Y-10235250D02*
X6533200Y-10275250D01*
X6787200Y-5447350D02*
X6827200Y-5487350D01*
X6827200Y-5447350D02*
X6787200Y-5487350D01*
X6793550Y-8850950D02*
X6833550Y-8890950D01*
X6833550Y-8850950D02*
X6793550Y-8890950D01*
X6876100Y-6945950D02*
X6916100Y-6985950D01*
X6916100Y-6945950D02*
X6876100Y-6985950D01*
X6965000Y-4374200D02*
X7005000Y-4414200D01*
X7005000Y-4374200D02*
X6965000Y-4414200D01*
X7231700Y-8616000D02*
X7271700Y-8656000D01*
X7271700Y-8616000D02*
X7231700Y-8656000D01*
X7409500Y-10806750D02*
X7449500Y-10846750D01*
X7449500Y-10806750D02*
X7409500Y-10846750D01*
X7415850Y-6818950D02*
X7455850Y-6858950D01*
X7455850Y-6818950D02*
X7415850Y-6858950D01*
X7492050Y-4901250D02*
X7532050Y-4941250D01*
X7532050Y-4901250D02*
X7492050Y-4941250D01*
X7498400Y-5091750D02*
X7538400Y-5131750D01*
X7538400Y-5091750D02*
X7498400Y-5131750D01*
X7669850Y-4367850D02*
X7709850Y-4407850D01*
X7709850Y-4367850D02*
X7669850Y-4407850D01*
X8222300Y-11035350D02*
X8262300Y-11075350D01*
X8262300Y-11035350D02*
X8222300Y-11075350D01*
X8323900Y-11524300D02*
X8363900Y-11564300D01*
X8363900Y-11524300D02*
X8323900Y-11564300D01*
X8704900Y-8762050D02*
X8744900Y-8802050D01*
X8744900Y-8762050D02*
X8704900Y-8802050D01*
X9130350Y-8616000D02*
X9170350Y-8656000D01*
X9170350Y-8616000D02*
X9130350Y-8656000D01*
X9187500Y-4710750D02*
X9227500Y-4750750D01*
X9227500Y-4710750D02*
X9187500Y-4750750D01*
X9447850Y-6876100D02*
X9487850Y-6916100D01*
X9487850Y-6876100D02*
X9447850Y-6916100D01*
X9536750Y-4717100D02*
X9576750Y-4757100D01*
X9576750Y-4717100D02*
X9536750Y-4757100D01*
X9568500Y-5091750D02*
X9608500Y-5131750D01*
X9608500Y-5091750D02*
X9568500Y-5131750D01*
X9568500Y-5256850D02*
X9608500Y-5296850D01*
X9608500Y-5256850D02*
X9568500Y-5296850D01*
X9689150Y-10565450D02*
X9729150Y-10605450D01*
X9729150Y-10565450D02*
X9689150Y-10605450D01*
X10190800Y-5250500D02*
X10230800Y-5290500D01*
X10230800Y-5250500D02*
X10190800Y-5290500D01*
X10230969Y-10565450D02*
X10270969Y-10605450D01*
X10270969Y-10565450D02*
X10230969Y-10605450D01*
X10540050Y-9047800D02*
X10580050Y-9087800D01*
X10580050Y-9047800D02*
X10540050Y-9087800D01*
X10679750Y-6584000D02*
X10719750Y-6624000D01*
X10719750Y-6584000D02*
X10679750Y-6624000D01*
X10775000Y-11562400D02*
X10815000Y-11602400D01*
X10815000Y-11562400D02*
X10775000Y-11602400D01*
X10971850Y-9219250D02*
X11011850Y-9259250D01*
X11011850Y-9219250D02*
X10971850Y-9259250D01*
X11073450Y-4869500D02*
X11113450Y-4909500D01*
X11113450Y-4869500D02*
X11073450Y-4909500D01*
X11079800Y-4742500D02*
X11119800Y-4782500D01*
X11119800Y-4742500D02*
X11079800Y-4782500D01*
X11086150Y-5675950D02*
X11126150Y-5715950D01*
X11126150Y-5675950D02*
X11086150Y-5715950D01*
X11295700Y-7492050D02*
X11335700Y-7532050D01*
X11335700Y-7492050D02*
X11295700Y-7532050D01*
X11556050Y-5040950D02*
X11596050Y-5080950D01*
X11596050Y-5040950D02*
X11556050Y-5080950D01*
X12375200Y-10190800D02*
X12415200Y-10230800D01*
X12415200Y-10190800D02*
X12375200Y-10230800D01*
X12476800Y-7352350D02*
X12516800Y-7392350D01*
X12516800Y-7352350D02*
X12476800Y-7392350D01*
X12762550Y-9416100D02*
X12802550Y-9456100D01*
X12802550Y-9416100D02*
X12762550Y-9456100D01*
X12876850Y-5237800D02*
X12916850Y-5277800D01*
X12916850Y-5237800D02*
X12876850Y-5277800D01*
X12921300Y-3294700D02*
X12961300Y-3334700D01*
X12961300Y-3294700D02*
X12921300Y-3334700D01*
X12921300Y-12984800D02*
X12961300Y-13024800D01*
X12961300Y-12984800D02*
X12921300Y-13024800D01*
X13048300Y-2869250D02*
X13088300Y-2909250D01*
X13088300Y-2869250D02*
X13048300Y-2909250D01*
X13086400Y-7987350D02*
X13126400Y-8027350D01*
X13126400Y-7987350D02*
X13086400Y-8027350D01*
X13118150Y-12978450D02*
X13158150Y-13018450D01*
X13158150Y-12978450D02*
X13118150Y-13018450D01*
X13137200Y-2945450D02*
X13177200Y-2985450D01*
X13177200Y-2945450D02*
X13137200Y-2985450D01*
X13213400Y-3028000D02*
X13253400Y-3068000D01*
X13253400Y-3028000D02*
X13213400Y-3068000D01*
X13315000Y-3110550D02*
X13355000Y-3150550D01*
X13355000Y-3110550D02*
X13315000Y-3150550D01*
X13359450Y-5637850D02*
X13399450Y-5677850D01*
X13399450Y-5637850D02*
X13359450Y-5677850D01*
X14140500Y-14210350D02*
X14180500Y-14250350D01*
X14180500Y-14210350D02*
X14140500Y-14250350D01*
X14362750Y-7358700D02*
X14402750Y-7398700D01*
X14402750Y-7358700D02*
X14362750Y-7398700D01*
X14362750Y-10819450D02*
X14402750Y-10859450D01*
X14402750Y-10819450D02*
X14362750Y-10859450D01*
X14458000Y-7917500D02*
X14498000Y-7957500D01*
X14498000Y-7917500D02*
X14458000Y-7957500D01*
X14731050Y-7085650D02*
X14771050Y-7125650D01*
X14771050Y-7085650D02*
X14731050Y-7125650D01*
X14883450Y-10768650D02*
X14923450Y-10808650D01*
X14923450Y-10768650D02*
X14883450Y-10808650D01*
X15061250Y-10768650D02*
X15101250Y-10808650D01*
X15101250Y-10768650D02*
X15061250Y-10808650D01*
X15283500Y-10762300D02*
X15323500Y-10802300D01*
X15323500Y-10762300D02*
X15283500Y-10802300D01*
X15442250Y-11467150D02*
X15482250Y-11507150D01*
X15482250Y-11467150D02*
X15442250Y-11507150D01*
X15461300Y-8127050D02*
X15501300Y-8167050D01*
X15501300Y-8127050D02*
X15461300Y-8167050D01*
X15651800Y-2539050D02*
X15691800Y-2579050D01*
X15691800Y-2539050D02*
X15651800Y-2579050D01*
X15867700Y-9511350D02*
X15907700Y-9551350D01*
X15907700Y-9511350D02*
X15867700Y-9551350D01*
X16007400Y-6209350D02*
X16047400Y-6249350D01*
X16047400Y-6209350D02*
X16007400Y-6249350D01*
X16298121Y-10297371D02*
X16338121Y-10337371D01*
X16338121Y-10297371D02*
X16298121Y-10337371D01*
X16324900Y-8063550D02*
X16364900Y-8103550D01*
X16364900Y-8063550D02*
X16324900Y-8103550D01*
X16515400Y-13581700D02*
X16555400Y-13621700D01*
X16555400Y-13581700D02*
X16515400Y-13621700D01*
X16629700Y-9822500D02*
X16669700Y-9862500D01*
X16669700Y-9822500D02*
X16629700Y-9862500D01*
X17772700Y-5599750D02*
X17812700Y-5639750D01*
X17812700Y-5599750D02*
X17772700Y-5639750D01*
X18132939Y-9401689D02*
X18172939Y-9441689D01*
X18172939Y-9401689D02*
X18132939Y-9441689D01*
X18153700Y-7511100D02*
X18193700Y-7551100D01*
X18193700Y-7511100D02*
X18153700Y-7551100D01*
X18452150Y-5390200D02*
X18492150Y-5430200D01*
X18492150Y-5390200D02*
X18452150Y-5430200D01*
X18490250Y-9301800D02*
X18530250Y-9341800D01*
X18530250Y-9301800D02*
X18490250Y-9341800D01*
X18680750Y-4710750D02*
X18720750Y-4750750D01*
X18720750Y-4710750D02*
X18680750Y-4750750D01*
X18864900Y-11854500D02*
X18904900Y-11894500D01*
X18904900Y-11854500D02*
X18864900Y-11894500D01*
X19093500Y-5796600D02*
X19133500Y-5836600D01*
X19133500Y-5796600D02*
X19093500Y-5836600D01*
X19360200Y-12508550D02*
X19400200Y-12548550D01*
X19400200Y-12508550D02*
X19360200Y-12548550D01*
X19411000Y-11130600D02*
X19451000Y-11170600D01*
X19451000Y-11130600D02*
X19411000Y-11170600D01*
X19620550Y-4952050D02*
X19660550Y-4992050D01*
X19660550Y-4952050D02*
X19620550Y-4992050D01*
X19938050Y-6952300D02*
X19978050Y-6992300D01*
X19978050Y-6952300D02*
X19938050Y-6992300D01*
X19967756Y-8836206D02*
X20007756Y-8876206D01*
X20007756Y-8836206D02*
X19967756Y-8876206D01*
X20096800Y-10432100D02*
X20136800Y-10472100D01*
X20136800Y-10432100D02*
X20096800Y-10472100D01*
X20319050Y-8717600D02*
X20359050Y-8757600D01*
X20359050Y-8717600D02*
X20319050Y-8757600D01*
X21379500Y-5129850D02*
X21419500Y-5169850D01*
X21419500Y-5129850D02*
X21379500Y-5169850D01*
X21531900Y-4952050D02*
X21571900Y-4992050D01*
X21571900Y-4952050D02*
X21531900Y-4992050D01*
X21557300Y-12133900D02*
X21597300Y-12173900D01*
X21597300Y-12133900D02*
X21557300Y-12173900D01*
X21563650Y-5472750D02*
X21603650Y-5512750D01*
X21603650Y-5472750D02*
X21563650Y-5512750D01*
X21576350Y-11149650D02*
X21616350Y-11189650D01*
X21616350Y-11149650D02*
X21576350Y-11189650D01*
X21885056Y-8804056D02*
X21925056Y-8844056D01*
X21925056Y-8804056D02*
X21885056Y-8844056D01*
X21900200Y-6920550D02*
X21940200Y-6960550D01*
X21940200Y-6920550D02*
X21900200Y-6960550D01*
X22065300Y-11130600D02*
X22105300Y-11170600D01*
X22105300Y-11130600D02*
X22065300Y-11170600D01*
X22224050Y-8704900D02*
X22264050Y-8744900D01*
X22264050Y-8704900D02*
X22224050Y-8744900D01*
X22319300Y-9200200D02*
X22359300Y-9240200D01*
X22359300Y-9200200D02*
X22319300Y-9240200D01*
X22325650Y-10546400D02*
X22365650Y-10586400D01*
X22365650Y-10546400D02*
X22325650Y-10586400D01*
X22960650Y-5339400D02*
X23000650Y-5379400D01*
X23000650Y-5339400D02*
X22960650Y-5379400D01*
X23144800Y-10692450D02*
X23184800Y-10732450D01*
X23184800Y-10692450D02*
X23144800Y-10732450D01*
X23246400Y-7174550D02*
X23286400Y-7214550D01*
X23286400Y-7174550D02*
X23246400Y-7214550D01*
X23563900Y-5123500D02*
X23603900Y-5163500D01*
X23603900Y-5123500D02*
X23563900Y-5163500D01*
X23843598Y-8920502D02*
X23883598Y-8960502D01*
X23883598Y-8920502D02*
X23843598Y-8960502D01*
X23875050Y-6920550D02*
X23915050Y-6960550D01*
X23915050Y-6920550D02*
X23875050Y-6960550D01*
X23875050Y-7174550D02*
X23915050Y-7214550D01*
X23915050Y-7174550D02*
X23875050Y-7214550D01*
X24135400Y-9225600D02*
X24175400Y-9265600D01*
X24175400Y-9225600D02*
X24135400Y-9265600D01*
X24186200Y-8812850D02*
X24226200Y-8852850D01*
X24226200Y-8812850D02*
X24186200Y-8852850D01*
X24395750Y-6361750D02*
X24435750Y-6401750D01*
X24435750Y-6361750D02*
X24395750Y-6401750D01*
X24814850Y-8774750D02*
X24854850Y-8814750D01*
X24854850Y-8774750D02*
X24814850Y-8814750D01*
X25157750Y-4520250D02*
X25197750Y-4560250D01*
X25197750Y-4520250D02*
X25157750Y-4560250D01*
X25507000Y-6368100D02*
X25547000Y-6408100D01*
X25547000Y-6368100D02*
X25507000Y-6408100D01*
X25554625Y-8301675D02*
X25594625Y-8341675D01*
X25594625Y-8301675D02*
X25554625Y-8341675D01*
X25678450Y-8171500D02*
X25718450Y-8211500D01*
X25718450Y-8171500D02*
X25678450Y-8211500D01*
X13568770Y-2659464D02*
G75*
G03*
X13568770Y-2659464I-40640J0D01*
G01*
X13818911Y-2615358D02*
G75*
G03*
X13818911Y-2615358I-40640J0D01*
G01*
X13833062Y-4158342D02*
G75*
G03*
X13833062Y-4158342I-40640J0D01*
G01*
X14069052Y-2571251D02*
G75*
G03*
X14069052Y-2571251I-40640J0D01*
G01*
X14083203Y-4114235D02*
G75*
G03*
X14083203Y-4114235I-40640J0D01*
G01*
X14319193Y-2527144D02*
G75*
G03*
X14319193Y-2527144I-40640J0D01*
G01*
X14333345Y-4070128D02*
G75*
G03*
X14333345Y-4070128I-40640J0D01*
G01*
X14569334Y-2483038D02*
G75*
G03*
X14569334Y-2483038I-40640J0D01*
G01*
X14583486Y-4026022D02*
G75*
G03*
X14583486Y-4026022I-40640J0D01*
G01*
X14819476Y-2438931D02*
G75*
G03*
X14819476Y-2438931I-40640J0D01*
G01*
X14833627Y-3981915D02*
G75*
G03*
X14833627Y-3981915I-40640J0D01*
G01*
X15069617Y-2394825D02*
G75*
G03*
X15069617Y-2394825I-40640J0D01*
G01*
X15083768Y-3937809D02*
G75*
G03*
X15083768Y-3937809I-40640J0D01*
G01*
X15319758Y-2350718D02*
G75*
G03*
X15319758Y-2350718I-40640J0D01*
G01*
X15333909Y-3893702D02*
G75*
G03*
X15333909Y-3893702I-40640J0D01*
G01*
X15569899Y-2306611D02*
G75*
G03*
X15569899Y-2306611I-40640J0D01*
G01*
X15584051Y-3849595D02*
G75*
G03*
X15584051Y-3849595I-40640J0D01*
G01*
X15820040Y-2262505D02*
G75*
G03*
X15820040Y-2262505I-40640J0D01*
G01*
X15834192Y-3805489D02*
G75*
G03*
X15834192Y-3805489I-40640J0D01*
G01*
X16070181Y-2218398D02*
G75*
G03*
X16070181Y-2218398I-40640J0D01*
G01*
X16084333Y-3761382D02*
G75*
G03*
X16084333Y-3761382I-40640J0D01*
G01*
X16320323Y-2174291D02*
G75*
G03*
X16320323Y-2174291I-40640J0D01*
G01*
X16334474Y-3717275D02*
G75*
G03*
X16334474Y-3717275I-40640J0D01*
G01*
X16584615Y-3673169D02*
G75*
G03*
X16584615Y-3673169I-40640J0D01*
G01*
X14401800Y-12256300D02*
X14401800Y-12356300D01*
X14351800Y-12306300D02*
X14451800Y-12306300D01*
X14655800Y-12256300D02*
X14655800Y-12356300D01*
X14605800Y-12306300D02*
X14705800Y-12306300D01*
X14909800Y-12256300D02*
X14909800Y-12356300D01*
X14859800Y-12306300D02*
X14959800Y-12306300D01*
X15163800Y-12256300D02*
X15163800Y-12356300D01*
X15113800Y-12306300D02*
X15213800Y-12306300D01*
X15417800Y-12256300D02*
X15417800Y-12356300D01*
X15367800Y-12306300D02*
X15467800Y-12306300D01*
X11390850Y-3594898D02*
X11390850Y-3502973D01*
X11298925Y-3502973D01*
X11298925Y-3594898D01*
X11390850Y-3594898D01*
X12030975Y-3482027D02*
X12030975Y-3390102D01*
X11939050Y-3390102D01*
X11939050Y-3482027D01*
X12030975Y-3482027D01*
D12*
X2379428Y-15073214D02*
X2379428Y-14773214D01*
X2450857Y-14773214D01*
X2493714Y-14787500D01*
X2522286Y-14816071D01*
X2536571Y-14844643D01*
X2550857Y-14901786D01*
X2550857Y-14944643D01*
X2536571Y-15001786D01*
X2522286Y-15030357D01*
X2493714Y-15058929D01*
X2450857Y-15073214D01*
X2379428Y-15073214D01*
X2679428Y-15073214D02*
X2679428Y-14873214D01*
X2679428Y-14930357D02*
X2693714Y-14901786D01*
X2708000Y-14887500D01*
X2736571Y-14873214D01*
X2765143Y-14873214D01*
X2865143Y-15073214D02*
X2865143Y-14873214D01*
X2865143Y-14773214D02*
X2850857Y-14787500D01*
X2865143Y-14801786D01*
X2879428Y-14787500D01*
X2865143Y-14773214D01*
X2865143Y-14801786D01*
X3050857Y-15073214D02*
X3022286Y-15058929D01*
X3008000Y-15030357D01*
X3008000Y-14773214D01*
X3208000Y-15073214D02*
X3179428Y-15058929D01*
X3165143Y-15030357D01*
X3165143Y-14773214D01*
X3550857Y-15073214D02*
X3550857Y-14773214D01*
X3650857Y-14987500D01*
X3750857Y-14773214D01*
X3750857Y-15073214D01*
X4022286Y-15073214D02*
X4022286Y-14916071D01*
X4008000Y-14887500D01*
X3979428Y-14873214D01*
X3922286Y-14873214D01*
X3893714Y-14887500D01*
X4022286Y-15058929D02*
X3993714Y-15073214D01*
X3922286Y-15073214D01*
X3893714Y-15058929D01*
X3879428Y-15030357D01*
X3879428Y-15001786D01*
X3893714Y-14973214D01*
X3922286Y-14958929D01*
X3993714Y-14958929D01*
X4022286Y-14944643D01*
X4165143Y-14873214D02*
X4165143Y-15173214D01*
X4165143Y-14887500D02*
X4193714Y-14873214D01*
X4250857Y-14873214D01*
X4279428Y-14887500D01*
X4293714Y-14901786D01*
X4308000Y-14930357D01*
X4308000Y-15016071D01*
X4293714Y-15044643D01*
X4279428Y-15058929D01*
X4250857Y-15073214D01*
X4193714Y-15073214D01*
X4165143Y-15058929D01*
X4436571Y-15044643D02*
X4450857Y-15058929D01*
X4436571Y-15073214D01*
X4422286Y-15058929D01*
X4436571Y-15044643D01*
X4436571Y-15073214D01*
X4436571Y-14887500D02*
X4450857Y-14901786D01*
X4436571Y-14916071D01*
X4422286Y-14901786D01*
X4436571Y-14887500D01*
X4436571Y-14916071D01*
X2053000Y-15547500D02*
X2093000Y-15587500D01*
X2093000Y-15547500D02*
X2053000Y-15587500D01*
X2436571Y-15403214D02*
X2465143Y-15403214D01*
X2493714Y-15417500D01*
X2508000Y-15431786D01*
X2522286Y-15460357D01*
X2536571Y-15517500D01*
X2536571Y-15588929D01*
X2522286Y-15646071D01*
X2508000Y-15674643D01*
X2493714Y-15688929D01*
X2465143Y-15703214D01*
X2436571Y-15703214D01*
X2408000Y-15688929D01*
X2393714Y-15674643D01*
X2379428Y-15646071D01*
X2365143Y-15588929D01*
X2365143Y-15517500D01*
X2379428Y-15460357D01*
X2393714Y-15431786D01*
X2408000Y-15417500D01*
X2436571Y-15403214D01*
X2665143Y-15674643D02*
X2679428Y-15688929D01*
X2665143Y-15703214D01*
X2650857Y-15688929D01*
X2665143Y-15674643D01*
X2665143Y-15703214D01*
X2936571Y-15503214D02*
X2936571Y-15703214D01*
X2865143Y-15388929D02*
X2793714Y-15603214D01*
X2979428Y-15603214D01*
X3150857Y-15403214D02*
X3179428Y-15403214D01*
X3208000Y-15417500D01*
X3222286Y-15431786D01*
X3236571Y-15460357D01*
X3250857Y-15517500D01*
X3250857Y-15588929D01*
X3236571Y-15646071D01*
X3222286Y-15674643D01*
X3208000Y-15688929D01*
X3179428Y-15703214D01*
X3150857Y-15703214D01*
X3122286Y-15688929D01*
X3108000Y-15674643D01*
X3093714Y-15646071D01*
X3079428Y-15588929D01*
X3079428Y-15517500D01*
X3093714Y-15460357D01*
X3108000Y-15431786D01*
X3122286Y-15417500D01*
X3150857Y-15403214D01*
X3436571Y-15403214D02*
X3465143Y-15403214D01*
X3493714Y-15417500D01*
X3508000Y-15431786D01*
X3522286Y-15460357D01*
X3536571Y-15517500D01*
X3536571Y-15588929D01*
X3522286Y-15646071D01*
X3508000Y-15674643D01*
X3493714Y-15688929D01*
X3465143Y-15703214D01*
X3436571Y-15703214D01*
X3408000Y-15688929D01*
X3393714Y-15674643D01*
X3379428Y-15646071D01*
X3365143Y-15588929D01*
X3365143Y-15517500D01*
X3379428Y-15460357D01*
X3393714Y-15431786D01*
X3408000Y-15417500D01*
X3436571Y-15403214D01*
X3665143Y-15703214D02*
X3665143Y-15503214D01*
X3665143Y-15531786D02*
X3679428Y-15517500D01*
X3708000Y-15503214D01*
X3750857Y-15503214D01*
X3779428Y-15517500D01*
X3793714Y-15546071D01*
X3793714Y-15703214D01*
X3793714Y-15546071D02*
X3808000Y-15517500D01*
X3836571Y-15503214D01*
X3879428Y-15503214D01*
X3908000Y-15517500D01*
X3922286Y-15546071D01*
X3922286Y-15703214D01*
X4065143Y-15703214D02*
X4065143Y-15503214D01*
X4065143Y-15531786D02*
X4079428Y-15517500D01*
X4108000Y-15503214D01*
X4150857Y-15503214D01*
X4179428Y-15517500D01*
X4193714Y-15546071D01*
X4193714Y-15703214D01*
X4193714Y-15546071D02*
X4208000Y-15517500D01*
X4236571Y-15503214D01*
X4279428Y-15503214D01*
X4308000Y-15517500D01*
X4322286Y-15546071D01*
X4322286Y-15703214D01*
X4908000Y-15388929D02*
X4650857Y-15774643D01*
X5293714Y-15403214D02*
X5322286Y-15403214D01*
X5350857Y-15417500D01*
X5365143Y-15431786D01*
X5379428Y-15460357D01*
X5393714Y-15517500D01*
X5393714Y-15588929D01*
X5379428Y-15646071D01*
X5365143Y-15674643D01*
X5350857Y-15688929D01*
X5322286Y-15703214D01*
X5293714Y-15703214D01*
X5265143Y-15688929D01*
X5250857Y-15674643D01*
X5236571Y-15646071D01*
X5222286Y-15588929D01*
X5222286Y-15517500D01*
X5236571Y-15460357D01*
X5250857Y-15431786D01*
X5265143Y-15417500D01*
X5293714Y-15403214D01*
X5522286Y-15674643D02*
X5536571Y-15688929D01*
X5522286Y-15703214D01*
X5508000Y-15688929D01*
X5522286Y-15674643D01*
X5522286Y-15703214D01*
X5722286Y-15403214D02*
X5750857Y-15403214D01*
X5779428Y-15417500D01*
X5793714Y-15431786D01*
X5808000Y-15460357D01*
X5822286Y-15517500D01*
X5822286Y-15588929D01*
X5808000Y-15646071D01*
X5793714Y-15674643D01*
X5779428Y-15688929D01*
X5750857Y-15703214D01*
X5722286Y-15703214D01*
X5693714Y-15688929D01*
X5679428Y-15674643D01*
X5665143Y-15646071D01*
X5650857Y-15588929D01*
X5650857Y-15517500D01*
X5665143Y-15460357D01*
X5679428Y-15431786D01*
X5693714Y-15417500D01*
X5722286Y-15403214D01*
X6108000Y-15703214D02*
X5936571Y-15703214D01*
X6022286Y-15703214D02*
X6022286Y-15403214D01*
X5993714Y-15446071D01*
X5965143Y-15474643D01*
X5936571Y-15488929D01*
X6379428Y-15403214D02*
X6236571Y-15403214D01*
X6222286Y-15546071D01*
X6236571Y-15531786D01*
X6265143Y-15517500D01*
X6336571Y-15517500D01*
X6365143Y-15531786D01*
X6379428Y-15546071D01*
X6393714Y-15574643D01*
X6393714Y-15646071D01*
X6379428Y-15674643D01*
X6365143Y-15688929D01*
X6336571Y-15703214D01*
X6265143Y-15703214D01*
X6236571Y-15688929D01*
X6222286Y-15674643D01*
X6493714Y-15403214D02*
X6693714Y-15403214D01*
X6565143Y-15703214D01*
X6793714Y-15403214D02*
X6793714Y-15460357D01*
X6908000Y-15403214D02*
X6908000Y-15460357D01*
X7350857Y-15817500D02*
X7336571Y-15803214D01*
X7308000Y-15760357D01*
X7293714Y-15731786D01*
X7279428Y-15688929D01*
X7265143Y-15617500D01*
X7265143Y-15560357D01*
X7279428Y-15488929D01*
X7293714Y-15446071D01*
X7308000Y-15417500D01*
X7336571Y-15374643D01*
X7350857Y-15360357D01*
X7622286Y-15703214D02*
X7450857Y-15703214D01*
X7536571Y-15703214D02*
X7536571Y-15403214D01*
X7508000Y-15446071D01*
X7479428Y-15474643D01*
X7450857Y-15488929D01*
X7908000Y-15703214D02*
X7736571Y-15703214D01*
X7822286Y-15703214D02*
X7822286Y-15403214D01*
X7793714Y-15446071D01*
X7765143Y-15474643D01*
X7736571Y-15488929D01*
X8008000Y-15403214D02*
X8208000Y-15403214D01*
X8079428Y-15703214D01*
X8550857Y-15703214D02*
X8550857Y-15403214D01*
X8679428Y-15703214D02*
X8679428Y-15546071D01*
X8665143Y-15517500D01*
X8636571Y-15503214D01*
X8593714Y-15503214D01*
X8565143Y-15517500D01*
X8550857Y-15531786D01*
X8865143Y-15703214D02*
X8836571Y-15688929D01*
X8822286Y-15674643D01*
X8808000Y-15646071D01*
X8808000Y-15560357D01*
X8822286Y-15531786D01*
X8836571Y-15517500D01*
X8865143Y-15503214D01*
X8908000Y-15503214D01*
X8936571Y-15517500D01*
X8950857Y-15531786D01*
X8965143Y-15560357D01*
X8965143Y-15646071D01*
X8950857Y-15674643D01*
X8936571Y-15688929D01*
X8908000Y-15703214D01*
X8865143Y-15703214D01*
X9136571Y-15703214D02*
X9108000Y-15688929D01*
X9093714Y-15660357D01*
X9093714Y-15403214D01*
X9365143Y-15688929D02*
X9336571Y-15703214D01*
X9279428Y-15703214D01*
X9250857Y-15688929D01*
X9236571Y-15660357D01*
X9236571Y-15546071D01*
X9250857Y-15517500D01*
X9279428Y-15503214D01*
X9336571Y-15503214D01*
X9365143Y-15517500D01*
X9379428Y-15546071D01*
X9379428Y-15574643D01*
X9236571Y-15603214D01*
X9493714Y-15688929D02*
X9522286Y-15703214D01*
X9579428Y-15703214D01*
X9608000Y-15688929D01*
X9622286Y-15660357D01*
X9622286Y-15646071D01*
X9608000Y-15617500D01*
X9579428Y-15603214D01*
X9536571Y-15603214D01*
X9508000Y-15588929D01*
X9493714Y-15560357D01*
X9493714Y-15546071D01*
X9508000Y-15517500D01*
X9536571Y-15503214D01*
X9579428Y-15503214D01*
X9608000Y-15517500D01*
X9722286Y-15817500D02*
X9736571Y-15803214D01*
X9765143Y-15760357D01*
X9779428Y-15731786D01*
X9793714Y-15688929D01*
X9808000Y-15617500D01*
X9808000Y-15560357D01*
X9793714Y-15488929D01*
X9779428Y-15446071D01*
X9765143Y-15417500D01*
X9736571Y-15374643D01*
X9722286Y-15360357D01*
X2093000Y-15963500D02*
G75*
G03*
X2093000Y-15963500I-40640J0D01*
G01*
X2436571Y-15799214D02*
X2465143Y-15799214D01*
X2493714Y-15813500D01*
X2508000Y-15827786D01*
X2522286Y-15856357D01*
X2536571Y-15913500D01*
X2536571Y-15984929D01*
X2522286Y-16042071D01*
X2508000Y-16070643D01*
X2493714Y-16084929D01*
X2465143Y-16099214D01*
X2436571Y-16099214D01*
X2408000Y-16084929D01*
X2393714Y-16070643D01*
X2379428Y-16042071D01*
X2365143Y-15984929D01*
X2365143Y-15913500D01*
X2379428Y-15856357D01*
X2393714Y-15827786D01*
X2408000Y-15813500D01*
X2436571Y-15799214D01*
X2665143Y-16070643D02*
X2679428Y-16084929D01*
X2665143Y-16099214D01*
X2650857Y-16084929D01*
X2665143Y-16070643D01*
X2665143Y-16099214D01*
X2850857Y-15927786D02*
X2822286Y-15913500D01*
X2808000Y-15899214D01*
X2793714Y-15870643D01*
X2793714Y-15856357D01*
X2808000Y-15827786D01*
X2822286Y-15813500D01*
X2850857Y-15799214D01*
X2908000Y-15799214D01*
X2936571Y-15813500D01*
X2950857Y-15827786D01*
X2965143Y-15856357D01*
X2965143Y-15870643D01*
X2950857Y-15899214D01*
X2936571Y-15913500D01*
X2908000Y-15927786D01*
X2850857Y-15927786D01*
X2822286Y-15942071D01*
X2808000Y-15956357D01*
X2793714Y-15984929D01*
X2793714Y-16042071D01*
X2808000Y-16070643D01*
X2822286Y-16084929D01*
X2850857Y-16099214D01*
X2908000Y-16099214D01*
X2936571Y-16084929D01*
X2950857Y-16070643D01*
X2965143Y-16042071D01*
X2965143Y-15984929D01*
X2950857Y-15956357D01*
X2936571Y-15942071D01*
X2908000Y-15927786D01*
X3250857Y-16099214D02*
X3079428Y-16099214D01*
X3165143Y-16099214D02*
X3165143Y-15799214D01*
X3136571Y-15842071D01*
X3108000Y-15870643D01*
X3079428Y-15884929D01*
X3350857Y-15799214D02*
X3536571Y-15799214D01*
X3436571Y-15913500D01*
X3479428Y-15913500D01*
X3508000Y-15927786D01*
X3522286Y-15942071D01*
X3536571Y-15970643D01*
X3536571Y-16042071D01*
X3522286Y-16070643D01*
X3508000Y-16084929D01*
X3479428Y-16099214D01*
X3393714Y-16099214D01*
X3365143Y-16084929D01*
X3350857Y-16070643D01*
X3665143Y-16099214D02*
X3665143Y-15899214D01*
X3665143Y-15927786D02*
X3679428Y-15913500D01*
X3708000Y-15899214D01*
X3750857Y-15899214D01*
X3779428Y-15913500D01*
X3793714Y-15942071D01*
X3793714Y-16099214D01*
X3793714Y-15942071D02*
X3808000Y-15913500D01*
X3836571Y-15899214D01*
X3879428Y-15899214D01*
X3908000Y-15913500D01*
X3922286Y-15942071D01*
X3922286Y-16099214D01*
X4065143Y-16099214D02*
X4065143Y-15899214D01*
X4065143Y-15927786D02*
X4079428Y-15913500D01*
X4108000Y-15899214D01*
X4150857Y-15899214D01*
X4179428Y-15913500D01*
X4193714Y-15942071D01*
X4193714Y-16099214D01*
X4193714Y-15942071D02*
X4208000Y-15913500D01*
X4236571Y-15899214D01*
X4279428Y-15899214D01*
X4308000Y-15913500D01*
X4322286Y-15942071D01*
X4322286Y-16099214D01*
X4908000Y-15784929D02*
X4650857Y-16170643D01*
X5293714Y-15799214D02*
X5322286Y-15799214D01*
X5350857Y-15813500D01*
X5365143Y-15827786D01*
X5379428Y-15856357D01*
X5393714Y-15913500D01*
X5393714Y-15984929D01*
X5379428Y-16042071D01*
X5365143Y-16070643D01*
X5350857Y-16084929D01*
X5322286Y-16099214D01*
X5293714Y-16099214D01*
X5265143Y-16084929D01*
X5250857Y-16070643D01*
X5236571Y-16042071D01*
X5222286Y-15984929D01*
X5222286Y-15913500D01*
X5236571Y-15856357D01*
X5250857Y-15827786D01*
X5265143Y-15813500D01*
X5293714Y-15799214D01*
X5522286Y-16070643D02*
X5536571Y-16084929D01*
X5522286Y-16099214D01*
X5508000Y-16084929D01*
X5522286Y-16070643D01*
X5522286Y-16099214D01*
X5722286Y-15799214D02*
X5750857Y-15799214D01*
X5779428Y-15813500D01*
X5793714Y-15827786D01*
X5808000Y-15856357D01*
X5822286Y-15913500D01*
X5822286Y-15984929D01*
X5808000Y-16042071D01*
X5793714Y-16070643D01*
X5779428Y-16084929D01*
X5750857Y-16099214D01*
X5722286Y-16099214D01*
X5693714Y-16084929D01*
X5679428Y-16070643D01*
X5665143Y-16042071D01*
X5650857Y-15984929D01*
X5650857Y-15913500D01*
X5665143Y-15856357D01*
X5679428Y-15827786D01*
X5693714Y-15813500D01*
X5722286Y-15799214D01*
X5922286Y-15799214D02*
X6108000Y-15799214D01*
X6008000Y-15913500D01*
X6050857Y-15913500D01*
X6079428Y-15927786D01*
X6093714Y-15942071D01*
X6108000Y-15970643D01*
X6108000Y-16042071D01*
X6093714Y-16070643D01*
X6079428Y-16084929D01*
X6050857Y-16099214D01*
X5965143Y-16099214D01*
X5936571Y-16084929D01*
X5922286Y-16070643D01*
X6222286Y-15827786D02*
X6236571Y-15813500D01*
X6265143Y-15799214D01*
X6336571Y-15799214D01*
X6365143Y-15813500D01*
X6379428Y-15827786D01*
X6393714Y-15856357D01*
X6393714Y-15884929D01*
X6379428Y-15927786D01*
X6208000Y-16099214D01*
X6393714Y-16099214D01*
X6579428Y-15799214D02*
X6608000Y-15799214D01*
X6636571Y-15813500D01*
X6650857Y-15827786D01*
X6665143Y-15856357D01*
X6679428Y-15913500D01*
X6679428Y-15984929D01*
X6665143Y-16042071D01*
X6650857Y-16070643D01*
X6636571Y-16084929D01*
X6608000Y-16099214D01*
X6579428Y-16099214D01*
X6550857Y-16084929D01*
X6536571Y-16070643D01*
X6522286Y-16042071D01*
X6508000Y-15984929D01*
X6508000Y-15913500D01*
X6522286Y-15856357D01*
X6536571Y-15827786D01*
X6550857Y-15813500D01*
X6579428Y-15799214D01*
X6793714Y-15799214D02*
X6793714Y-15856357D01*
X6908000Y-15799214D02*
X6908000Y-15856357D01*
X7350857Y-16213500D02*
X7336571Y-16199214D01*
X7308000Y-16156357D01*
X7293714Y-16127786D01*
X7279428Y-16084929D01*
X7265143Y-16013500D01*
X7265143Y-15956357D01*
X7279428Y-15884929D01*
X7293714Y-15842071D01*
X7308000Y-15813500D01*
X7336571Y-15770643D01*
X7350857Y-15756357D01*
X7450857Y-15827786D02*
X7465143Y-15813500D01*
X7493714Y-15799214D01*
X7565143Y-15799214D01*
X7593714Y-15813500D01*
X7608000Y-15827786D01*
X7622286Y-15856357D01*
X7622286Y-15884929D01*
X7608000Y-15927786D01*
X7436571Y-16099214D01*
X7622286Y-16099214D01*
X7879428Y-15899214D02*
X7879428Y-16099214D01*
X7808000Y-15784929D02*
X7736571Y-15999214D01*
X7922286Y-15999214D01*
X8265143Y-16099214D02*
X8265143Y-15799214D01*
X8393714Y-16099214D02*
X8393714Y-15942071D01*
X8379428Y-15913500D01*
X8350857Y-15899214D01*
X8308000Y-15899214D01*
X8279428Y-15913500D01*
X8265143Y-15927786D01*
X8579428Y-16099214D02*
X8550857Y-16084929D01*
X8536571Y-16070643D01*
X8522286Y-16042071D01*
X8522286Y-15956357D01*
X8536571Y-15927786D01*
X8550857Y-15913500D01*
X8579428Y-15899214D01*
X8622286Y-15899214D01*
X8650857Y-15913500D01*
X8665143Y-15927786D01*
X8679428Y-15956357D01*
X8679428Y-16042071D01*
X8665143Y-16070643D01*
X8650857Y-16084929D01*
X8622286Y-16099214D01*
X8579428Y-16099214D01*
X8850857Y-16099214D02*
X8822286Y-16084929D01*
X8808000Y-16056357D01*
X8808000Y-15799214D01*
X9079428Y-16084929D02*
X9050857Y-16099214D01*
X8993714Y-16099214D01*
X8965143Y-16084929D01*
X8950857Y-16056357D01*
X8950857Y-15942071D01*
X8965143Y-15913500D01*
X8993714Y-15899214D01*
X9050857Y-15899214D01*
X9079428Y-15913500D01*
X9093714Y-15942071D01*
X9093714Y-15970643D01*
X8950857Y-15999214D01*
X9208000Y-16084929D02*
X9236571Y-16099214D01*
X9293714Y-16099214D01*
X9322286Y-16084929D01*
X9336571Y-16056357D01*
X9336571Y-16042071D01*
X9322286Y-16013500D01*
X9293714Y-15999214D01*
X9250857Y-15999214D01*
X9222286Y-15984929D01*
X9208000Y-15956357D01*
X9208000Y-15942071D01*
X9222286Y-15913500D01*
X9250857Y-15899214D01*
X9293714Y-15899214D01*
X9322286Y-15913500D01*
X9436571Y-16213500D02*
X9450857Y-16199214D01*
X9479428Y-16156357D01*
X9493714Y-16127786D01*
X9508000Y-16084929D01*
X9522286Y-16013500D01*
X9522286Y-15956357D01*
X9508000Y-15884929D01*
X9493714Y-15842071D01*
X9479428Y-15813500D01*
X9450857Y-15770643D01*
X9436571Y-15756357D01*
X2043000Y-16309500D02*
X2043000Y-16409500D01*
X1993000Y-16359500D02*
X2093000Y-16359500D01*
X2536571Y-16495214D02*
X2365143Y-16495214D01*
X2450857Y-16495214D02*
X2450857Y-16195214D01*
X2422286Y-16238071D01*
X2393714Y-16266643D01*
X2365143Y-16280929D01*
X2665143Y-16466643D02*
X2679428Y-16480929D01*
X2665143Y-16495214D01*
X2650857Y-16480929D01*
X2665143Y-16466643D01*
X2665143Y-16495214D01*
X2865143Y-16195214D02*
X2893714Y-16195214D01*
X2922286Y-16209500D01*
X2936571Y-16223786D01*
X2950857Y-16252357D01*
X2965143Y-16309500D01*
X2965143Y-16380929D01*
X2950857Y-16438071D01*
X2936571Y-16466643D01*
X2922286Y-16480929D01*
X2893714Y-16495214D01*
X2865143Y-16495214D01*
X2836571Y-16480929D01*
X2822286Y-16466643D01*
X2808000Y-16438071D01*
X2793714Y-16380929D01*
X2793714Y-16309500D01*
X2808000Y-16252357D01*
X2822286Y-16223786D01*
X2836571Y-16209500D01*
X2865143Y-16195214D01*
X3150857Y-16195214D02*
X3179428Y-16195214D01*
X3208000Y-16209500D01*
X3222286Y-16223786D01*
X3236571Y-16252357D01*
X3250857Y-16309500D01*
X3250857Y-16380929D01*
X3236571Y-16438071D01*
X3222286Y-16466643D01*
X3208000Y-16480929D01*
X3179428Y-16495214D01*
X3150857Y-16495214D01*
X3122286Y-16480929D01*
X3108000Y-16466643D01*
X3093714Y-16438071D01*
X3079428Y-16380929D01*
X3079428Y-16309500D01*
X3093714Y-16252357D01*
X3108000Y-16223786D01*
X3122286Y-16209500D01*
X3150857Y-16195214D01*
X3436571Y-16195214D02*
X3465143Y-16195214D01*
X3493714Y-16209500D01*
X3508000Y-16223786D01*
X3522286Y-16252357D01*
X3536571Y-16309500D01*
X3536571Y-16380929D01*
X3522286Y-16438071D01*
X3508000Y-16466643D01*
X3493714Y-16480929D01*
X3465143Y-16495214D01*
X3436571Y-16495214D01*
X3408000Y-16480929D01*
X3393714Y-16466643D01*
X3379428Y-16438071D01*
X3365143Y-16380929D01*
X3365143Y-16309500D01*
X3379428Y-16252357D01*
X3393714Y-16223786D01*
X3408000Y-16209500D01*
X3436571Y-16195214D01*
X3665143Y-16495214D02*
X3665143Y-16295214D01*
X3665143Y-16323786D02*
X3679428Y-16309500D01*
X3708000Y-16295214D01*
X3750857Y-16295214D01*
X3779428Y-16309500D01*
X3793714Y-16338071D01*
X3793714Y-16495214D01*
X3793714Y-16338071D02*
X3808000Y-16309500D01*
X3836571Y-16295214D01*
X3879428Y-16295214D01*
X3908000Y-16309500D01*
X3922286Y-16338071D01*
X3922286Y-16495214D01*
X4065143Y-16495214D02*
X4065143Y-16295214D01*
X4065143Y-16323786D02*
X4079428Y-16309500D01*
X4108000Y-16295214D01*
X4150857Y-16295214D01*
X4179428Y-16309500D01*
X4193714Y-16338071D01*
X4193714Y-16495214D01*
X4193714Y-16338071D02*
X4208000Y-16309500D01*
X4236571Y-16295214D01*
X4279428Y-16295214D01*
X4308000Y-16309500D01*
X4322286Y-16338071D01*
X4322286Y-16495214D01*
X4908000Y-16180929D02*
X4650857Y-16566643D01*
X5293714Y-16195214D02*
X5322286Y-16195214D01*
X5350857Y-16209500D01*
X5365143Y-16223786D01*
X5379428Y-16252357D01*
X5393714Y-16309500D01*
X5393714Y-16380929D01*
X5379428Y-16438071D01*
X5365143Y-16466643D01*
X5350857Y-16480929D01*
X5322286Y-16495214D01*
X5293714Y-16495214D01*
X5265143Y-16480929D01*
X5250857Y-16466643D01*
X5236571Y-16438071D01*
X5222286Y-16380929D01*
X5222286Y-16309500D01*
X5236571Y-16252357D01*
X5250857Y-16223786D01*
X5265143Y-16209500D01*
X5293714Y-16195214D01*
X5522286Y-16466643D02*
X5536571Y-16480929D01*
X5522286Y-16495214D01*
X5508000Y-16480929D01*
X5522286Y-16466643D01*
X5522286Y-16495214D01*
X5722286Y-16195214D02*
X5750857Y-16195214D01*
X5779428Y-16209500D01*
X5793714Y-16223786D01*
X5808000Y-16252357D01*
X5822286Y-16309500D01*
X5822286Y-16380929D01*
X5808000Y-16438071D01*
X5793714Y-16466643D01*
X5779428Y-16480929D01*
X5750857Y-16495214D01*
X5722286Y-16495214D01*
X5693714Y-16480929D01*
X5679428Y-16466643D01*
X5665143Y-16438071D01*
X5650857Y-16380929D01*
X5650857Y-16309500D01*
X5665143Y-16252357D01*
X5679428Y-16223786D01*
X5693714Y-16209500D01*
X5722286Y-16195214D01*
X5922286Y-16195214D02*
X6108000Y-16195214D01*
X6008000Y-16309500D01*
X6050857Y-16309500D01*
X6079428Y-16323786D01*
X6093714Y-16338071D01*
X6108000Y-16366643D01*
X6108000Y-16438071D01*
X6093714Y-16466643D01*
X6079428Y-16480929D01*
X6050857Y-16495214D01*
X5965143Y-16495214D01*
X5936571Y-16480929D01*
X5922286Y-16466643D01*
X6250857Y-16495214D02*
X6308000Y-16495214D01*
X6336571Y-16480929D01*
X6350857Y-16466643D01*
X6379428Y-16423786D01*
X6393714Y-16366643D01*
X6393714Y-16252357D01*
X6379428Y-16223786D01*
X6365143Y-16209500D01*
X6336571Y-16195214D01*
X6279428Y-16195214D01*
X6250857Y-16209500D01*
X6236571Y-16223786D01*
X6222286Y-16252357D01*
X6222286Y-16323786D01*
X6236571Y-16352357D01*
X6250857Y-16366643D01*
X6279428Y-16380929D01*
X6336571Y-16380929D01*
X6365143Y-16366643D01*
X6379428Y-16352357D01*
X6393714Y-16323786D01*
X6650857Y-16295214D02*
X6650857Y-16495214D01*
X6579428Y-16180929D02*
X6508000Y-16395214D01*
X6693714Y-16395214D01*
X6793714Y-16195214D02*
X6793714Y-16252357D01*
X6908000Y-16195214D02*
X6908000Y-16252357D01*
X7350857Y-16609500D02*
X7336571Y-16595214D01*
X7308000Y-16552357D01*
X7293714Y-16523786D01*
X7279428Y-16480929D01*
X7265143Y-16409500D01*
X7265143Y-16352357D01*
X7279428Y-16280929D01*
X7293714Y-16238071D01*
X7308000Y-16209500D01*
X7336571Y-16166643D01*
X7350857Y-16152357D01*
X7608000Y-16195214D02*
X7465143Y-16195214D01*
X7450857Y-16338071D01*
X7465143Y-16323786D01*
X7493714Y-16309500D01*
X7565143Y-16309500D01*
X7593714Y-16323786D01*
X7608000Y-16338071D01*
X7622286Y-16366643D01*
X7622286Y-16438071D01*
X7608000Y-16466643D01*
X7593714Y-16480929D01*
X7565143Y-16495214D01*
X7493714Y-16495214D01*
X7465143Y-16480929D01*
X7450857Y-16466643D01*
X7979428Y-16495214D02*
X7979428Y-16195214D01*
X8108000Y-16495214D02*
X8108000Y-16338071D01*
X8093714Y-16309500D01*
X8065143Y-16295214D01*
X8022286Y-16295214D01*
X7993714Y-16309500D01*
X7979428Y-16323786D01*
X8293714Y-16495214D02*
X8265143Y-16480929D01*
X8250857Y-16466643D01*
X8236571Y-16438071D01*
X8236571Y-16352357D01*
X8250857Y-16323786D01*
X8265143Y-16309500D01*
X8293714Y-16295214D01*
X8336571Y-16295214D01*
X8365143Y-16309500D01*
X8379428Y-16323786D01*
X8393714Y-16352357D01*
X8393714Y-16438071D01*
X8379428Y-16466643D01*
X8365143Y-16480929D01*
X8336571Y-16495214D01*
X8293714Y-16495214D01*
X8565143Y-16495214D02*
X8536571Y-16480929D01*
X8522286Y-16452357D01*
X8522286Y-16195214D01*
X8793714Y-16480929D02*
X8765143Y-16495214D01*
X8708000Y-16495214D01*
X8679428Y-16480929D01*
X8665143Y-16452357D01*
X8665143Y-16338071D01*
X8679428Y-16309500D01*
X8708000Y-16295214D01*
X8765143Y-16295214D01*
X8793714Y-16309500D01*
X8808000Y-16338071D01*
X8808000Y-16366643D01*
X8665143Y-16395214D01*
X8922286Y-16480929D02*
X8950857Y-16495214D01*
X9008000Y-16495214D01*
X9036571Y-16480929D01*
X9050857Y-16452357D01*
X9050857Y-16438071D01*
X9036571Y-16409500D01*
X9008000Y-16395214D01*
X8965143Y-16395214D01*
X8936571Y-16380929D01*
X8922286Y-16352357D01*
X8922286Y-16338071D01*
X8936571Y-16309500D01*
X8965143Y-16295214D01*
X9008000Y-16295214D01*
X9036571Y-16309500D01*
X9150857Y-16609500D02*
X9165143Y-16595214D01*
X9193714Y-16552357D01*
X9208000Y-16523786D01*
X9222286Y-16480929D01*
X9236571Y-16409500D01*
X9236571Y-16352357D01*
X9222286Y-16280929D01*
X9208000Y-16238071D01*
X9193714Y-16209500D01*
X9165143Y-16166643D01*
X9150857Y-16152357D01*
X2073962Y-16801463D02*
X2073962Y-16709538D01*
X1982037Y-16709538D01*
X1982037Y-16801463D01*
X2073962Y-16801463D01*
X2536571Y-16891214D02*
X2365143Y-16891214D01*
X2450857Y-16891214D02*
X2450857Y-16591214D01*
X2422286Y-16634071D01*
X2393714Y-16662643D01*
X2365143Y-16676929D01*
X2665143Y-16862643D02*
X2679428Y-16876929D01*
X2665143Y-16891214D01*
X2650857Y-16876929D01*
X2665143Y-16862643D01*
X2665143Y-16891214D01*
X2779428Y-16591214D02*
X2965143Y-16591214D01*
X2865143Y-16705500D01*
X2908000Y-16705500D01*
X2936571Y-16719786D01*
X2950857Y-16734071D01*
X2965143Y-16762643D01*
X2965143Y-16834072D01*
X2950857Y-16862643D01*
X2936571Y-16876929D01*
X2908000Y-16891214D01*
X2822286Y-16891214D01*
X2793714Y-16876929D01*
X2779428Y-16862643D01*
X3150857Y-16591214D02*
X3179428Y-16591214D01*
X3208000Y-16605500D01*
X3222286Y-16619786D01*
X3236571Y-16648357D01*
X3250857Y-16705500D01*
X3250857Y-16776929D01*
X3236571Y-16834072D01*
X3222286Y-16862643D01*
X3208000Y-16876929D01*
X3179428Y-16891214D01*
X3150857Y-16891214D01*
X3122286Y-16876929D01*
X3108000Y-16862643D01*
X3093714Y-16834072D01*
X3079428Y-16776929D01*
X3079428Y-16705500D01*
X3093714Y-16648357D01*
X3108000Y-16619786D01*
X3122286Y-16605500D01*
X3150857Y-16591214D01*
X3436571Y-16591214D02*
X3465143Y-16591214D01*
X3493714Y-16605500D01*
X3508000Y-16619786D01*
X3522286Y-16648357D01*
X3536571Y-16705500D01*
X3536571Y-16776929D01*
X3522286Y-16834072D01*
X3508000Y-16862643D01*
X3493714Y-16876929D01*
X3465143Y-16891214D01*
X3436571Y-16891214D01*
X3408000Y-16876929D01*
X3393714Y-16862643D01*
X3379428Y-16834072D01*
X3365143Y-16776929D01*
X3365143Y-16705500D01*
X3379428Y-16648357D01*
X3393714Y-16619786D01*
X3408000Y-16605500D01*
X3436571Y-16591214D01*
X3665143Y-16891214D02*
X3665143Y-16691214D01*
X3665143Y-16719786D02*
X3679428Y-16705500D01*
X3708000Y-16691214D01*
X3750857Y-16691214D01*
X3779428Y-16705500D01*
X3793714Y-16734071D01*
X3793714Y-16891214D01*
X3793714Y-16734071D02*
X3808000Y-16705500D01*
X3836571Y-16691214D01*
X3879428Y-16691214D01*
X3908000Y-16705500D01*
X3922286Y-16734071D01*
X3922286Y-16891214D01*
X4065143Y-16891214D02*
X4065143Y-16691214D01*
X4065143Y-16719786D02*
X4079428Y-16705500D01*
X4108000Y-16691214D01*
X4150857Y-16691214D01*
X4179428Y-16705500D01*
X4193714Y-16734071D01*
X4193714Y-16891214D01*
X4193714Y-16734071D02*
X4208000Y-16705500D01*
X4236571Y-16691214D01*
X4279428Y-16691214D01*
X4308000Y-16705500D01*
X4322286Y-16734071D01*
X4322286Y-16891214D01*
X4908000Y-16576929D02*
X4650857Y-16962643D01*
X5293714Y-16591214D02*
X5322286Y-16591214D01*
X5350857Y-16605500D01*
X5365143Y-16619786D01*
X5379428Y-16648357D01*
X5393714Y-16705500D01*
X5393714Y-16776929D01*
X5379428Y-16834072D01*
X5365143Y-16862643D01*
X5350857Y-16876929D01*
X5322286Y-16891214D01*
X5293714Y-16891214D01*
X5265143Y-16876929D01*
X5250857Y-16862643D01*
X5236571Y-16834072D01*
X5222286Y-16776929D01*
X5222286Y-16705500D01*
X5236571Y-16648357D01*
X5250857Y-16619786D01*
X5265143Y-16605500D01*
X5293714Y-16591214D01*
X5522286Y-16862643D02*
X5536571Y-16876929D01*
X5522286Y-16891214D01*
X5508000Y-16876929D01*
X5522286Y-16862643D01*
X5522286Y-16891214D01*
X5722286Y-16591214D02*
X5750857Y-16591214D01*
X5779428Y-16605500D01*
X5793714Y-16619786D01*
X5808000Y-16648357D01*
X5822286Y-16705500D01*
X5822286Y-16776929D01*
X5808000Y-16834072D01*
X5793714Y-16862643D01*
X5779428Y-16876929D01*
X5750857Y-16891214D01*
X5722286Y-16891214D01*
X5693714Y-16876929D01*
X5679428Y-16862643D01*
X5665143Y-16834072D01*
X5650857Y-16776929D01*
X5650857Y-16705500D01*
X5665143Y-16648357D01*
X5679428Y-16619786D01*
X5693714Y-16605500D01*
X5722286Y-16591214D01*
X6093714Y-16591214D02*
X5950857Y-16591214D01*
X5936571Y-16734071D01*
X5950857Y-16719786D01*
X5979428Y-16705500D01*
X6050857Y-16705500D01*
X6079428Y-16719786D01*
X6093714Y-16734071D01*
X6108000Y-16762643D01*
X6108000Y-16834072D01*
X6093714Y-16862643D01*
X6079428Y-16876929D01*
X6050857Y-16891214D01*
X5979428Y-16891214D01*
X5950857Y-16876929D01*
X5936571Y-16862643D01*
X6393714Y-16891214D02*
X6222286Y-16891214D01*
X6308000Y-16891214D02*
X6308000Y-16591214D01*
X6279428Y-16634071D01*
X6250857Y-16662643D01*
X6222286Y-16676929D01*
X6508000Y-16619786D02*
X6522286Y-16605500D01*
X6550857Y-16591214D01*
X6622286Y-16591214D01*
X6650857Y-16605500D01*
X6665143Y-16619786D01*
X6679428Y-16648357D01*
X6679428Y-16676929D01*
X6665143Y-16719786D01*
X6493714Y-16891214D01*
X6679428Y-16891214D01*
X6793714Y-16591214D02*
X6793714Y-16648357D01*
X6908000Y-16591214D02*
X6908000Y-16648357D01*
X7350857Y-17005500D02*
X7336571Y-16991214D01*
X7308000Y-16948357D01*
X7293714Y-16919786D01*
X7279428Y-16876929D01*
X7265143Y-16805500D01*
X7265143Y-16748357D01*
X7279428Y-16676929D01*
X7293714Y-16634071D01*
X7308000Y-16605500D01*
X7336571Y-16562643D01*
X7350857Y-16548357D01*
X7450857Y-16619786D02*
X7465143Y-16605500D01*
X7493714Y-16591214D01*
X7565143Y-16591214D01*
X7593714Y-16605500D01*
X7608000Y-16619786D01*
X7622286Y-16648357D01*
X7622286Y-16676929D01*
X7608000Y-16719786D01*
X7436571Y-16891214D01*
X7622286Y-16891214D01*
X7979428Y-16891214D02*
X7979428Y-16591214D01*
X8108000Y-16891214D02*
X8108000Y-16734071D01*
X8093714Y-16705500D01*
X8065143Y-16691214D01*
X8022286Y-16691214D01*
X7993714Y-16705500D01*
X7979428Y-16719786D01*
X8293714Y-16891214D02*
X8265143Y-16876929D01*
X8250857Y-16862643D01*
X8236571Y-16834072D01*
X8236571Y-16748357D01*
X8250857Y-16719786D01*
X8265143Y-16705500D01*
X8293714Y-16691214D01*
X8336571Y-16691214D01*
X8365143Y-16705500D01*
X8379428Y-16719786D01*
X8393714Y-16748357D01*
X8393714Y-16834072D01*
X8379428Y-16862643D01*
X8365143Y-16876929D01*
X8336571Y-16891214D01*
X8293714Y-16891214D01*
X8565143Y-16891214D02*
X8536571Y-16876929D01*
X8522286Y-16848357D01*
X8522286Y-16591214D01*
X8793714Y-16876929D02*
X8765143Y-16891214D01*
X8708000Y-16891214D01*
X8679428Y-16876929D01*
X8665143Y-16848357D01*
X8665143Y-16734071D01*
X8679428Y-16705500D01*
X8708000Y-16691214D01*
X8765143Y-16691214D01*
X8793714Y-16705500D01*
X8808000Y-16734071D01*
X8808000Y-16762643D01*
X8665143Y-16791214D01*
X8922286Y-16876929D02*
X8950857Y-16891214D01*
X9008000Y-16891214D01*
X9036571Y-16876929D01*
X9050857Y-16848357D01*
X9050857Y-16834072D01*
X9036571Y-16805500D01*
X9008000Y-16791214D01*
X8965143Y-16791214D01*
X8936571Y-16776929D01*
X8922286Y-16748357D01*
X8922286Y-16734071D01*
X8936571Y-16705500D01*
X8965143Y-16691214D01*
X9008000Y-16691214D01*
X9036571Y-16705500D01*
X9150857Y-17005500D02*
X9165143Y-16991214D01*
X9193714Y-16948357D01*
X9208000Y-16919786D01*
X9222286Y-16876929D01*
X9236571Y-16805500D01*
X9236571Y-16748357D01*
X9222286Y-16676929D01*
X9208000Y-16634071D01*
X9193714Y-16605500D01*
X9165143Y-16562643D01*
X9150857Y-16548357D01*
M02*
