M48
; DRILL file {KiCad (5.1.12)-1} date 03/16/22 07:26:28
; FORMAT={-:-/ absolute / metric / decimal}
; #@! TF.CreationDate,2022-03-16T07:26:28-05:00
; #@! TF.GenerationSoftware,Kicad,Pcbnew,(5.1.12)-1
; #@! TF.FileFunction,NonPlated,1,2,NPTH
FMAT,2
METRIC
T1C0.900
T2C1.750
T3C3.000
T4C3.048
T5C3.988
T6C4.100
%
G90
G05
T1
X123.497Y-29.145
X126.451Y-28.625
T2
X27.997Y-95.645
X31.305Y-76.885
X34.613Y-58.124
X37.921Y-39.363
X38.003Y-97.409
X41.311Y-78.649
X44.619Y-59.888
X46.758Y-98.953
X47.927Y-41.128
X50.066Y-80.193
X53.374Y-61.432
X56.682Y-42.671
X56.763Y-100.717
X60.071Y-81.957
X63.379Y-63.196
X66.343Y-97.583
X66.687Y-44.436
X69.651Y-78.823
X69.85Y-120.015
X72.959Y-60.062
X76.267Y-41.302
X76.349Y-99.348
X79.657Y-80.587
X80.01Y-120.015
X82.965Y-61.826
X85.516Y-98.552
X86.273Y-43.066
X88.824Y-79.792
X91.613Y-121.875
X92.132Y-61.031
X95.44Y-42.271
X95.522Y-100.317
X98.83Y-81.556
X101.427Y-124.505
X102.138Y-62.795
X103.864Y-104.199
X105.446Y-44.035
X107.172Y-85.439
X110.48Y-66.678
X112.236Y-128.028
X113.788Y-47.918
X113.87Y-105.964
X117.178Y-87.203
X120.486Y-68.442
X121.444Y-132.322
X122.213Y-109.846
X123.794Y-49.682
X125.521Y-91.086
X128.829Y-72.325
X132.137Y-53.564
X132.218Y-111.61
X135.526Y-92.85
X138.834Y-74.089
X142.142Y-55.329
X144.145Y-135.255
X154.305Y-135.255
X155.673Y-55.329
X158.981Y-74.089
X162.289Y-92.85
X165.597Y-111.61
X165.678Y-53.564
X168.986Y-72.325
X172.294Y-91.086
X174.021Y-49.682
X175.602Y-109.846
X177.006Y-132.322
X177.329Y-68.442
X180.637Y-87.203
X183.945Y-105.964
X184.027Y-47.918
X186.214Y-128.028
X187.335Y-66.678
X190.643Y-85.439
X192.369Y-44.035
X193.951Y-104.199
X195.677Y-62.795
X196.388Y-124.505
X198.985Y-81.556
X202.293Y-100.317
X202.375Y-42.271
X205.683Y-61.031
X206.202Y-121.875
X208.991Y-79.792
X211.542Y-43.066
X212.299Y-98.552
X214.85Y-61.826
X217.805Y-120.015
X218.158Y-80.587
X221.466Y-99.348
X221.548Y-41.302
X224.856Y-60.062
X227.965Y-120.015
X228.164Y-78.823
X231.128Y-44.436
X231.472Y-97.583
X234.436Y-63.196
X237.744Y-81.957
X241.052Y-100.717
X241.133Y-42.671
X244.441Y-61.432
X247.749Y-80.193
X249.888Y-41.128
X251.057Y-98.953
X253.196Y-59.888
X256.504Y-78.649
X259.812Y-97.409
X259.894Y-39.363
X263.202Y-58.124
X266.51Y-76.885
X269.818Y-95.645
T3
X29.689Y-93.364
X32.997Y-74.604
X36.305Y-55.843
X36.384Y-91.965
X39.613Y-37.082
X39.692Y-73.205
X43.0Y-54.444
X46.308Y-35.684
X48.45Y-96.672
X51.758Y-77.912
X55.066Y-59.151
X55.144Y-95.273
X58.374Y-40.39
X58.452Y-76.513
X61.76Y-57.752
X65.068Y-38.992
X68.035Y-95.302
X71.12Y-117.475
X71.343Y-76.542
X74.651Y-57.781
X74.73Y-93.904
X77.47Y-114.935
X77.959Y-39.021
X78.038Y-75.143
X81.346Y-56.382
X84.654Y-37.622
X87.208Y-96.271
X90.516Y-77.511
X93.497Y-119.75
X93.824Y-58.75
X93.903Y-94.873
X97.132Y-39.99
X97.211Y-76.112
X100.288Y-118.94
X100.519Y-57.352
X103.827Y-38.591
X105.556Y-101.918
X108.864Y-83.158
X112.172Y-64.397
X112.251Y-100.52
X114.46Y-126.263
X115.48Y-45.637
X115.559Y-81.759
X118.867Y-62.998
X121.289Y-126.644
X122.175Y-44.238
X123.904Y-107.565
X127.212Y-88.805
X130.52Y-70.044
X130.599Y-106.167
X133.828Y-51.284
X133.907Y-87.406
X137.215Y-68.645
X140.523Y-49.885
X145.415Y-132.715
X151.765Y-130.175
X156.482Y-52.607
X159.79Y-71.367
X162.295Y-49.003
X163.098Y-90.128
X165.603Y-67.763
X166.406Y-108.889
X168.911Y-86.524
X172.219Y-105.284
X174.831Y-46.96
X177.084Y-129.483
X178.139Y-65.72
X180.643Y-43.356
X181.447Y-84.481
X181.765Y-124.498
X183.951Y-62.116
X184.755Y-103.242
X187.259Y-80.877
X190.567Y-99.638
X193.179Y-41.313
X196.487Y-60.074
X196.957Y-121.723
X198.991Y-37.709
X199.795Y-78.834
X202.299Y-56.469
X202.434Y-117.626
X203.103Y-97.595
X205.607Y-75.23
X208.915Y-93.991
X212.352Y-40.344
X215.66Y-59.104
X218.164Y-36.74
X218.968Y-77.865
X219.075Y-117.475
X221.472Y-55.5
X222.276Y-96.626
X224.78Y-74.261
X225.425Y-114.935
X228.088Y-93.022
X231.937Y-41.714
X235.245Y-60.474
X237.75Y-38.11
X238.553Y-79.235
X241.058Y-56.87
X241.861Y-97.995
X244.366Y-75.631
X247.674Y-94.391
X250.698Y-38.406
X254.006Y-57.166
X256.51Y-34.802
X257.314Y-75.927
X259.818Y-53.562
X260.622Y-94.687
X263.126Y-72.323
X266.434Y-91.083
T4
X137.287Y-142.24
X161.163Y-142.24
T5
X33.0Y-96.527
X36.308Y-77.767
X39.616Y-59.006
X42.924Y-40.245
X51.761Y-99.835
X55.069Y-81.075
X58.377Y-62.314
X61.685Y-43.553
X71.346Y-98.465
X74.654Y-79.705
X74.93Y-120.015
X77.962Y-60.944
X81.27Y-42.184
X90.519Y-99.434
X93.827Y-80.674
X96.52Y-123.19
X97.135Y-61.913
X100.443Y-43.153
X108.867Y-105.081
X112.175Y-86.321
X115.483Y-67.56
X116.84Y-130.175
X118.791Y-48.8
X127.215Y-110.728
X130.523Y-91.968
X133.831Y-73.207
X137.139Y-54.447
X137.287Y-127.0
X149.225Y-135.255
X160.676Y-54.447
X161.163Y-127.0
X163.984Y-73.207
X167.292Y-91.968
X170.6Y-110.728
X179.024Y-48.8
X181.61Y-130.175
X182.332Y-67.56
X185.64Y-86.321
X188.948Y-105.081
X197.372Y-43.153
X200.68Y-61.913
X201.295Y-123.19
X203.988Y-80.674
X207.296Y-99.434
X216.545Y-42.184
X219.853Y-60.944
X222.885Y-120.015
X223.161Y-79.705
X226.469Y-98.465
X236.13Y-43.553
X239.438Y-62.314
X242.746Y-81.075
X246.054Y-99.835
X254.891Y-40.245
X258.199Y-59.006
X261.507Y-77.767
X264.815Y-96.527
T6
X43.815Y-88.9
X50.8Y-50.8
X85.725Y-71.12
X89.916Y-110.49
X125.73Y-59.69
X148.336Y-84.201
X172.085Y-59.69
X207.772Y-110.299
X211.455Y-69.215
X247.015Y-51.435
X254.0Y-88.9
T0
M30
