%TF.GenerationSoftware,KiCad,Pcbnew,(5.1.12)-1*%
%TF.CreationDate,2022-03-16T07:25:32-05:00*%
%TF.ProjectId,keyboard_CarrasTech,6b657962-6f61-4726-945f-436172726173,rev?*%
%TF.SameCoordinates,Original*%
%TF.FileFunction,Profile,NP*%
%FSLAX46Y46*%
G04 Gerber Fmt 4.6, Leading zero omitted, Abs format (unit mm)*
G04 Created by KiCad (PCBNEW (5.1.12)-1) date 2022-03-16 07:25:32*
%MOMM*%
%LPD*%
G01*
G04 APERTURE LIST*
%TA.AperFunction,Profile*%
%ADD10C,0.050000*%
%TD*%
G04 APERTURE END LIST*
D10*
X232410000Y-130810000D02*
X233680000Y-129540000D01*
X102870000Y-135890000D02*
X124460000Y-146050000D01*
X84455000Y-130810000D02*
X102870000Y-135890000D01*
X65405000Y-130810000D02*
X84455000Y-130810000D01*
X64135000Y-129540000D02*
X65405000Y-130810000D01*
X64135000Y-113030000D02*
X64135000Y-129540000D01*
X21590000Y-105410000D02*
X64135000Y-113030000D01*
X20955000Y-104140000D02*
X21590000Y-105410000D01*
X34290000Y-29210000D02*
X20955000Y-104140000D01*
X35560000Y-28575000D02*
X34290000Y-29210000D01*
X109220000Y-29845000D02*
X35560000Y-28575000D01*
X166497000Y-19558000D02*
X109220000Y-29845000D01*
X169989500Y-39306500D02*
X166497000Y-19558000D01*
X184150000Y-36830000D02*
X169989500Y-39306500D01*
X186055000Y-34290000D02*
X184150000Y-36830000D01*
X205105000Y-31115000D02*
X186055000Y-34290000D01*
X262255000Y-28575000D02*
X205105000Y-31115000D01*
X263525000Y-29210000D02*
X262255000Y-28575000D01*
X276860000Y-104140000D02*
X263525000Y-29210000D01*
X276225000Y-105410000D02*
X276860000Y-104140000D01*
X233680000Y-113030000D02*
X276225000Y-105410000D01*
X233680000Y-129540000D02*
X233680000Y-113030000D01*
X213360000Y-130810000D02*
X232410000Y-130810000D01*
X194945000Y-135890000D02*
X213360000Y-130810000D01*
X173990000Y-146050000D02*
X194945000Y-135890000D01*
X124460000Y-146050000D02*
X173990000Y-146050000D01*
M02*
