M48
; DRILL file {KiCad (5.1.12)-1} date 03/16/22 07:26:28
; FORMAT={-:-/ absolute / metric / decimal}
; #@! TF.CreationDate,2022-03-16T07:26:28-05:00
; #@! TF.GenerationSoftware,Kicad,Pcbnew,(5.1.12)-1
; #@! TF.FileFunction,Plated,1,2,PTH
FMAT,2
METRIC
T1C0.400
T2C0.813
T3C1.000
T4C1.300
%
G90
G05
T1
X28.511Y-84.391
X36.767Y-88.328
X41.656Y-65.977
X42.672Y-102.425
X43.688Y-81.216
X46.545Y-63.182
X48.514Y-83.185
X48.641Y-58.039
X49.022Y-45.212
X50.736Y-71.31
X52.832Y-87.82
X56.007Y-68.389
X57.277Y-45.212
X59.499Y-102.489
X65.532Y-102.552
X68.072Y-54.673
X68.135Y-88.709
X68.961Y-69.659
X69.85Y-43.942
X72.517Y-86.36
X74.295Y-108.267
X74.358Y-68.389
X75.12Y-49.212
X75.184Y-51.117
X76.898Y-43.878
X82.423Y-110.553
X83.439Y-115.443
X87.249Y-87.82
X91.504Y-86.36
X92.075Y-47.307
X94.678Y-68.961
X95.567Y-47.371
X95.885Y-51.117
X95.885Y-52.768
X97.091Y-105.855
X102.108Y-52.705
X102.51Y-105.855
X105.6Y-90.678
X106.997Y-66.04
X107.95Y-115.824
X109.918Y-92.392
X110.934Y-48.895
X110.998Y-47.625
X111.061Y-56.959
X113.157Y-75.12
X115.76Y-50.609
X123.952Y-102.108
X124.968Y-73.724
X127.825Y-94.361
X128.969Y-52.578
X129.413Y-33.147
X129.413Y-130.048
X130.683Y-28.892
X131.064Y-80.073
X131.381Y-129.984
X131.572Y-29.654
X132.334Y-30.48
X133.35Y-31.305
X133.794Y-56.578
X141.605Y-142.303
X143.827Y-73.787
X143.827Y-108.394
X144.78Y-79.375
X147.511Y-71.056
X149.034Y-107.886
X150.812Y-107.886
X153.035Y-107.823
X154.623Y-114.871
X154.813Y-81.471
X156.718Y-25.59
X158.877Y-95.313
X160.274Y-62.293
X163.181Y-103.174
X163.449Y-80.835
X165.354Y-136.017
X166.497Y-98.425
X177.927Y-56.197
X181.529Y-94.217
X181.737Y-75.311
X184.721Y-54.102
X185.102Y-93.218
X187.007Y-47.307
X188.849Y-118.745
X191.135Y-58.166
X193.802Y-125.285
X194.31Y-111.506
X196.405Y-49.721
X199.581Y-69.723
X199.878Y-88.562
X201.168Y-104.521
X203.391Y-87.376
X213.995Y-51.498
X215.519Y-49.721
X215.773Y-121.539
X215.837Y-54.927
X215.963Y-111.697
X219.051Y-88.241
X219.202Y-69.406
X220.853Y-111.506
X222.44Y-87.249
X223.393Y-92.202
X223.456Y-105.664
X229.806Y-53.594
X231.648Y-107.124
X232.664Y-71.945
X235.839Y-51.435
X238.636Y-89.405
X238.95Y-69.406
X238.95Y-71.945
X241.554Y-92.456
X242.062Y-88.328
X244.157Y-63.817
X248.349Y-87.947
X251.777Y-45.402
X255.27Y-63.881
X255.746Y-83.217
X256.984Y-81.915
T2
X135.281Y-26.595
X137.783Y-26.154
X137.924Y-41.583
X140.284Y-25.713
X140.426Y-41.142
X142.786Y-25.271
X142.927Y-40.701
X145.287Y-24.83
X145.428Y-40.26
X147.788Y-24.389
X147.93Y-39.819
X150.29Y-23.948
X150.431Y-39.378
X152.791Y-23.507
X152.933Y-38.937
X155.293Y-23.066
X155.434Y-38.496
X157.794Y-22.625
X157.936Y-38.055
X160.295Y-22.184
X160.437Y-37.614
X162.797Y-21.743
X162.938Y-37.173
X165.44Y-36.732
T3
X144.018Y-123.063
X146.558Y-123.063
X149.098Y-123.063
X151.638Y-123.063
X154.178Y-123.063
T4
X113.449Y-35.489
X119.85Y-34.361
T0
M30
